%FSLAX25Y25*%
%MOIN*%
G70*
G01*
G75*
%ADD10C,0.00800*%
%ADD11O,0.11000X0.01400*%
%ADD12O,0.01400X0.11000*%
%ADD13O,0.02500X0.07300*%
%ADD14O,0.02500X0.07000*%
%ADD15O,0.07000X0.02300*%
%ADD16O,0.04500X0.01200*%
%ADD17O,0.07000X0.02500*%
G04:AMPARAMS|DCode=18|XSize=70mil|YSize=100mil|CornerRadius=17.5mil|HoleSize=0mil|Usage=FLASHONLY|Rotation=90.000|XOffset=0mil|YOffset=0mil|HoleType=Round|Shape=RoundedRectangle|*
%AMROUNDEDRECTD18*
21,1,0.07000,0.06500,0,0,90.0*
21,1,0.03500,0.10000,0,0,90.0*
1,1,0.03500,0.03250,0.01750*
1,1,0.03500,0.03250,-0.01750*
1,1,0.03500,-0.03250,-0.01750*
1,1,0.03500,-0.03250,0.01750*
%
%ADD18ROUNDEDRECTD18*%
%ADD19O,0.07000X0.01400*%
%ADD20R,0.28000X0.35000*%
G04:AMPARAMS|DCode=21|XSize=70mil|YSize=165mil|CornerRadius=0mil|HoleSize=0mil|Usage=FLASHONLY|Rotation=90.000|XOffset=0mil|YOffset=0mil|HoleType=Round|Shape=Octagon|*
%AMOCTAGOND21*
4,1,8,-0.08250,-0.01750,-0.08250,0.01750,-0.06500,0.03500,0.06500,0.03500,0.08250,0.01750,0.08250,-0.01750,0.06500,-0.03500,-0.06500,-0.03500,-0.08250,-0.01750,0.0*
%
%ADD21OCTAGOND21*%

G04:AMPARAMS|DCode=22|XSize=60mil|YSize=385mil|CornerRadius=0mil|HoleSize=0mil|Usage=FLASHONLY|Rotation=180.000|XOffset=0mil|YOffset=0mil|HoleType=Round|Shape=Octagon|*
%AMOCTAGOND22*
4,1,8,0.01500,-0.19250,-0.01500,-0.19250,-0.03000,-0.17750,-0.03000,0.17750,-0.01500,0.19250,0.01500,0.19250,0.03000,0.17750,0.03000,-0.17750,0.01500,-0.19250,0.0*
%
%ADD22OCTAGOND22*%

G04:AMPARAMS|DCode=23|XSize=100mil|YSize=275mil|CornerRadius=25mil|HoleSize=0mil|Usage=FLASHONLY|Rotation=0.000|XOffset=0mil|YOffset=0mil|HoleType=Round|Shape=RoundedRectangle|*
%AMROUNDEDRECTD23*
21,1,0.10000,0.22500,0,0,0.0*
21,1,0.05000,0.27500,0,0,0.0*
1,1,0.05000,0.02500,-0.11250*
1,1,0.05000,-0.02500,-0.11250*
1,1,0.05000,-0.02500,0.11250*
1,1,0.05000,0.02500,0.11250*
%
%ADD23ROUNDEDRECTD23*%
%ADD24C,0.17000*%
G04:AMPARAMS|DCode=25|XSize=150mil|YSize=115mil|CornerRadius=28.75mil|HoleSize=0mil|Usage=FLASHONLY|Rotation=270.000|XOffset=0mil|YOffset=0mil|HoleType=Round|Shape=RoundedRectangle|*
%AMROUNDEDRECTD25*
21,1,0.15000,0.05750,0,0,270.0*
21,1,0.09250,0.11500,0,0,270.0*
1,1,0.05750,-0.02875,-0.04625*
1,1,0.05750,-0.02875,0.04625*
1,1,0.05750,0.02875,0.04625*
1,1,0.05750,0.02875,-0.04625*
%
%ADD25ROUNDEDRECTD25*%
G04:AMPARAMS|DCode=26|XSize=150mil|YSize=110mil|CornerRadius=27.5mil|HoleSize=0mil|Usage=FLASHONLY|Rotation=0.000|XOffset=0mil|YOffset=0mil|HoleType=Round|Shape=RoundedRectangle|*
%AMROUNDEDRECTD26*
21,1,0.15000,0.05500,0,0,0.0*
21,1,0.09500,0.11000,0,0,0.0*
1,1,0.05500,0.04750,-0.02750*
1,1,0.05500,-0.04750,-0.02750*
1,1,0.05500,-0.04750,0.02750*
1,1,0.05500,0.04750,0.02750*
%
%ADD26ROUNDEDRECTD26*%
G04:AMPARAMS|DCode=27|XSize=170mil|YSize=88mil|CornerRadius=22mil|HoleSize=0mil|Usage=FLASHONLY|Rotation=180.000|XOffset=0mil|YOffset=0mil|HoleType=Round|Shape=RoundedRectangle|*
%AMROUNDEDRECTD27*
21,1,0.17000,0.04400,0,0,180.0*
21,1,0.12600,0.08800,0,0,180.0*
1,1,0.04400,-0.06300,0.02200*
1,1,0.04400,0.06300,0.02200*
1,1,0.04400,0.06300,-0.02200*
1,1,0.04400,-0.06300,-0.02200*
%
%ADD27ROUNDEDRECTD27*%
G04:AMPARAMS|DCode=28|XSize=60mil|YSize=90mil|CornerRadius=15mil|HoleSize=0mil|Usage=FLASHONLY|Rotation=270.000|XOffset=0mil|YOffset=0mil|HoleType=Round|Shape=RoundedRectangle|*
%AMROUNDEDRECTD28*
21,1,0.06000,0.06000,0,0,270.0*
21,1,0.03000,0.09000,0,0,270.0*
1,1,0.03000,-0.03000,-0.01500*
1,1,0.03000,-0.03000,0.01500*
1,1,0.03000,0.03000,0.01500*
1,1,0.03000,0.03000,-0.01500*
%
%ADD28ROUNDEDRECTD28*%
G04:AMPARAMS|DCode=29|XSize=40mil|YSize=65mil|CornerRadius=10mil|HoleSize=0mil|Usage=FLASHONLY|Rotation=90.000|XOffset=0mil|YOffset=0mil|HoleType=Round|Shape=RoundedRectangle|*
%AMROUNDEDRECTD29*
21,1,0.04000,0.04500,0,0,90.0*
21,1,0.02000,0.06500,0,0,90.0*
1,1,0.02000,0.02250,0.01000*
1,1,0.02000,0.02250,-0.01000*
1,1,0.02000,-0.02250,-0.01000*
1,1,0.02000,-0.02250,0.01000*
%
%ADD29ROUNDEDRECTD29*%
G04:AMPARAMS|DCode=30|XSize=85mil|YSize=85mil|CornerRadius=21.25mil|HoleSize=0mil|Usage=FLASHONLY|Rotation=0.000|XOffset=0mil|YOffset=0mil|HoleType=Round|Shape=RoundedRectangle|*
%AMROUNDEDRECTD30*
21,1,0.08500,0.04250,0,0,0.0*
21,1,0.04250,0.08500,0,0,0.0*
1,1,0.04250,0.02125,-0.02125*
1,1,0.04250,-0.02125,-0.02125*
1,1,0.04250,-0.02125,0.02125*
1,1,0.04250,0.02125,0.02125*
%
%ADD30ROUNDEDRECTD30*%
G04:AMPARAMS|DCode=31|XSize=145mil|YSize=50mil|CornerRadius=0mil|HoleSize=0mil|Usage=FLASHONLY|Rotation=180.000|XOffset=0mil|YOffset=0mil|HoleType=Round|Shape=Octagon|*
%AMOCTAGOND31*
4,1,8,-0.07250,0.01250,-0.07250,-0.01250,-0.06000,-0.02500,0.06000,-0.02500,0.07250,-0.01250,0.07250,0.01250,0.06000,0.02500,-0.06000,0.02500,-0.07250,0.01250,0.0*
%
%ADD31OCTAGOND31*%

G04:AMPARAMS|DCode=32|XSize=115mil|YSize=50mil|CornerRadius=0mil|HoleSize=0mil|Usage=FLASHONLY|Rotation=180.000|XOffset=0mil|YOffset=0mil|HoleType=Round|Shape=Octagon|*
%AMOCTAGOND32*
4,1,8,-0.05750,0.01250,-0.05750,-0.01250,-0.04500,-0.02500,0.04500,-0.02500,0.05750,-0.01250,0.05750,0.01250,0.04500,0.02500,-0.04500,0.02500,-0.05750,0.01250,0.0*
%
%ADD32OCTAGOND32*%

%ADD33O,0.06000X0.05000*%
%ADD34O,0.05000X0.07000*%
%ADD35O,0.07000X0.05000*%
G04:AMPARAMS|DCode=36|XSize=145mil|YSize=50mil|CornerRadius=0mil|HoleSize=0mil|Usage=FLASHONLY|Rotation=270.000|XOffset=0mil|YOffset=0mil|HoleType=Round|Shape=Octagon|*
%AMOCTAGOND36*
4,1,8,-0.01250,-0.07250,0.01250,-0.07250,0.02500,-0.06000,0.02500,0.06000,0.01250,0.07250,-0.01250,0.07250,-0.02500,0.06000,-0.02500,-0.06000,-0.01250,-0.07250,0.0*
%
%ADD36OCTAGOND36*%

G04:AMPARAMS|DCode=37|XSize=115mil|YSize=50mil|CornerRadius=0mil|HoleSize=0mil|Usage=FLASHONLY|Rotation=270.000|XOffset=0mil|YOffset=0mil|HoleType=Round|Shape=Octagon|*
%AMOCTAGOND37*
4,1,8,-0.01250,-0.05750,0.01250,-0.05750,0.02500,-0.04500,0.02500,0.04500,0.01250,0.05750,-0.01250,0.05750,-0.02500,0.04500,-0.02500,-0.04500,-0.01250,-0.05750,0.0*
%
%ADD37OCTAGOND37*%

%ADD38O,0.05000X0.14000*%
G04:AMPARAMS|DCode=39|XSize=110mil|YSize=85mil|CornerRadius=21.25mil|HoleSize=0mil|Usage=FLASHONLY|Rotation=90.000|XOffset=0mil|YOffset=0mil|HoleType=Round|Shape=RoundedRectangle|*
%AMROUNDEDRECTD39*
21,1,0.11000,0.04250,0,0,90.0*
21,1,0.06750,0.08500,0,0,90.0*
1,1,0.04250,0.02125,0.03375*
1,1,0.04250,0.02125,-0.03375*
1,1,0.04250,-0.02125,-0.03375*
1,1,0.04250,-0.02125,0.03375*
%
%ADD39ROUNDEDRECTD39*%
G04:AMPARAMS|DCode=40|XSize=120mil|YSize=110mil|CornerRadius=27.5mil|HoleSize=0mil|Usage=FLASHONLY|Rotation=90.000|XOffset=0mil|YOffset=0mil|HoleType=Round|Shape=RoundedRectangle|*
%AMROUNDEDRECTD40*
21,1,0.12000,0.05500,0,0,90.0*
21,1,0.06500,0.11000,0,0,90.0*
1,1,0.05500,0.02750,0.03250*
1,1,0.05500,0.02750,-0.03250*
1,1,0.05500,-0.02750,-0.03250*
1,1,0.05500,-0.02750,0.03250*
%
%ADD40ROUNDEDRECTD40*%
G04:AMPARAMS|DCode=41|XSize=60mil|YSize=160mil|CornerRadius=15mil|HoleSize=0mil|Usage=FLASHONLY|Rotation=180.000|XOffset=0mil|YOffset=0mil|HoleType=Round|Shape=RoundedRectangle|*
%AMROUNDEDRECTD41*
21,1,0.06000,0.13000,0,0,180.0*
21,1,0.03000,0.16000,0,0,180.0*
1,1,0.03000,-0.01500,0.06500*
1,1,0.03000,0.01500,0.06500*
1,1,0.03000,0.01500,-0.06500*
1,1,0.03000,-0.01500,-0.06500*
%
%ADD41ROUNDEDRECTD41*%
G04:AMPARAMS|DCode=42|XSize=95mil|YSize=170mil|CornerRadius=23.75mil|HoleSize=0mil|Usage=FLASHONLY|Rotation=270.000|XOffset=0mil|YOffset=0mil|HoleType=Round|Shape=RoundedRectangle|*
%AMROUNDEDRECTD42*
21,1,0.09500,0.12250,0,0,270.0*
21,1,0.04750,0.17000,0,0,270.0*
1,1,0.04750,-0.06125,-0.02375*
1,1,0.04750,-0.06125,0.02375*
1,1,0.04750,0.06125,0.02375*
1,1,0.04750,0.06125,-0.02375*
%
%ADD42ROUNDEDRECTD42*%
G04:AMPARAMS|DCode=43|XSize=95mil|YSize=120mil|CornerRadius=23.75mil|HoleSize=0mil|Usage=FLASHONLY|Rotation=270.000|XOffset=0mil|YOffset=0mil|HoleType=Round|Shape=RoundedRectangle|*
%AMROUNDEDRECTD43*
21,1,0.09500,0.07250,0,0,270.0*
21,1,0.04750,0.12000,0,0,270.0*
1,1,0.04750,-0.03625,-0.02375*
1,1,0.04750,-0.03625,0.02375*
1,1,0.04750,0.03625,0.02375*
1,1,0.04750,0.03625,-0.02375*
%
%ADD43ROUNDEDRECTD43*%
G04:AMPARAMS|DCode=44|XSize=118mil|YSize=100mil|CornerRadius=25mil|HoleSize=0mil|Usage=FLASHONLY|Rotation=0.000|XOffset=0mil|YOffset=0mil|HoleType=Round|Shape=RoundedRectangle|*
%AMROUNDEDRECTD44*
21,1,0.11800,0.05000,0,0,0.0*
21,1,0.06800,0.10000,0,0,0.0*
1,1,0.05000,0.03400,-0.02500*
1,1,0.05000,-0.03400,-0.02500*
1,1,0.05000,-0.03400,0.02500*
1,1,0.05000,0.03400,0.02500*
%
%ADD44ROUNDEDRECTD44*%
G04:AMPARAMS|DCode=45|XSize=85mil|YSize=85mil|CornerRadius=21.25mil|HoleSize=0mil|Usage=FLASHONLY|Rotation=270.000|XOffset=0mil|YOffset=0mil|HoleType=Round|Shape=RoundedRectangle|*
%AMROUNDEDRECTD45*
21,1,0.08500,0.04250,0,0,270.0*
21,1,0.04250,0.08500,0,0,270.0*
1,1,0.04250,-0.02125,-0.02125*
1,1,0.04250,-0.02125,0.02125*
1,1,0.04250,0.02125,0.02125*
1,1,0.04250,0.02125,-0.02125*
%
%ADD45ROUNDEDRECTD45*%
G04:AMPARAMS|DCode=46|XSize=45mil|YSize=60mil|CornerRadius=11.25mil|HoleSize=0mil|Usage=FLASHONLY|Rotation=90.000|XOffset=0mil|YOffset=0mil|HoleType=Round|Shape=RoundedRectangle|*
%AMROUNDEDRECTD46*
21,1,0.04500,0.03750,0,0,90.0*
21,1,0.02250,0.06000,0,0,90.0*
1,1,0.02250,0.01875,0.01125*
1,1,0.02250,0.01875,-0.01125*
1,1,0.02250,-0.01875,-0.01125*
1,1,0.02250,-0.01875,0.01125*
%
%ADD46ROUNDEDRECTD46*%
G04:AMPARAMS|DCode=47|XSize=40mil|YSize=60mil|CornerRadius=10mil|HoleSize=0mil|Usage=FLASHONLY|Rotation=90.000|XOffset=0mil|YOffset=0mil|HoleType=Round|Shape=RoundedRectangle|*
%AMROUNDEDRECTD47*
21,1,0.04000,0.04000,0,0,90.0*
21,1,0.02000,0.06000,0,0,90.0*
1,1,0.02000,0.02000,0.01000*
1,1,0.02000,0.02000,-0.01000*
1,1,0.02000,-0.02000,-0.01000*
1,1,0.02000,-0.02000,0.01000*
%
%ADD47ROUNDEDRECTD47*%
G04:AMPARAMS|DCode=48|XSize=40mil|YSize=33mil|CornerRadius=8.25mil|HoleSize=0mil|Usage=FLASHONLY|Rotation=180.000|XOffset=0mil|YOffset=0mil|HoleType=Round|Shape=RoundedRectangle|*
%AMROUNDEDRECTD48*
21,1,0.04000,0.01650,0,0,180.0*
21,1,0.02350,0.03300,0,0,180.0*
1,1,0.01650,-0.01175,0.00825*
1,1,0.01650,0.01175,0.00825*
1,1,0.01650,0.01175,-0.00825*
1,1,0.01650,-0.01175,-0.00825*
%
%ADD48ROUNDEDRECTD48*%
G04:AMPARAMS|DCode=49|XSize=40mil|YSize=33mil|CornerRadius=8.25mil|HoleSize=0mil|Usage=FLASHONLY|Rotation=270.000|XOffset=0mil|YOffset=0mil|HoleType=Round|Shape=RoundedRectangle|*
%AMROUNDEDRECTD49*
21,1,0.04000,0.01650,0,0,270.0*
21,1,0.02350,0.03300,0,0,270.0*
1,1,0.01650,-0.00825,-0.01175*
1,1,0.01650,-0.00825,0.01175*
1,1,0.01650,0.00825,0.01175*
1,1,0.01650,0.00825,-0.01175*
%
%ADD49ROUNDEDRECTD49*%
G04:AMPARAMS|DCode=50|XSize=40mil|YSize=60mil|CornerRadius=10mil|HoleSize=0mil|Usage=FLASHONLY|Rotation=180.000|XOffset=0mil|YOffset=0mil|HoleType=Round|Shape=RoundedRectangle|*
%AMROUNDEDRECTD50*
21,1,0.04000,0.04000,0,0,180.0*
21,1,0.02000,0.06000,0,0,180.0*
1,1,0.02000,-0.01000,0.02000*
1,1,0.02000,0.01000,0.02000*
1,1,0.02000,0.01000,-0.02000*
1,1,0.02000,-0.01000,-0.02000*
%
%ADD50ROUNDEDRECTD50*%
%ADD51O,0.05000X0.06000*%
G04:AMPARAMS|DCode=52|XSize=40mil|YSize=65mil|CornerRadius=10mil|HoleSize=0mil|Usage=FLASHONLY|Rotation=180.000|XOffset=0mil|YOffset=0mil|HoleType=Round|Shape=RoundedRectangle|*
%AMROUNDEDRECTD52*
21,1,0.04000,0.04500,0,0,180.0*
21,1,0.02000,0.06500,0,0,180.0*
1,1,0.02000,-0.01000,0.02250*
1,1,0.02000,0.01000,0.02250*
1,1,0.02000,0.01000,-0.02250*
1,1,0.02000,-0.01000,-0.02250*
%
%ADD52ROUNDEDRECTD52*%
G04:AMPARAMS|DCode=53|XSize=32mil|YSize=70mil|CornerRadius=8mil|HoleSize=0mil|Usage=FLASHONLY|Rotation=180.000|XOffset=0mil|YOffset=0mil|HoleType=Round|Shape=RoundedRectangle|*
%AMROUNDEDRECTD53*
21,1,0.03200,0.05400,0,0,180.0*
21,1,0.01600,0.07000,0,0,180.0*
1,1,0.01600,-0.00800,0.02700*
1,1,0.01600,0.00800,0.02700*
1,1,0.01600,0.00800,-0.02700*
1,1,0.01600,-0.00800,-0.02700*
%
%ADD53ROUNDEDRECTD53*%
%ADD54R,0.12000X0.12000*%
%ADD55R,0.02500X0.11000*%
G04:AMPARAMS|DCode=56|XSize=32mil|YSize=70mil|CornerRadius=8mil|HoleSize=0mil|Usage=FLASHONLY|Rotation=90.000|XOffset=0mil|YOffset=0mil|HoleType=Round|Shape=RoundedRectangle|*
%AMROUNDEDRECTD56*
21,1,0.03200,0.05400,0,0,90.0*
21,1,0.01600,0.07000,0,0,90.0*
1,1,0.01600,0.02700,0.00800*
1,1,0.01600,0.02700,-0.00800*
1,1,0.01600,-0.02700,-0.00800*
1,1,0.01600,-0.02700,0.00800*
%
%ADD56ROUNDEDRECTD56*%
%ADD57R,0.12000X0.12000*%
%ADD58R,0.11000X0.02500*%
G04:AMPARAMS|DCode=59|XSize=45mil|YSize=60mil|CornerRadius=11.25mil|HoleSize=0mil|Usage=FLASHONLY|Rotation=180.000|XOffset=0mil|YOffset=0mil|HoleType=Round|Shape=RoundedRectangle|*
%AMROUNDEDRECTD59*
21,1,0.04500,0.03750,0,0,180.0*
21,1,0.02250,0.06000,0,0,180.0*
1,1,0.02250,-0.01125,0.01875*
1,1,0.02250,0.01125,0.01875*
1,1,0.02250,0.01125,-0.01875*
1,1,0.02250,-0.01125,-0.01875*
%
%ADD59ROUNDEDRECTD59*%
%ADD60C,0.04000*%
%ADD61C,0.00600*%
%ADD62C,0.01500*%
%ADD63C,0.01000*%
%ADD64C,0.03000*%
%ADD65C,0.03500*%
%ADD66C,0.01200*%
%ADD67C,0.01800*%
%ADD68C,0.02500*%
%ADD69C,0.02000*%
%ADD70C,0.04000*%
%ADD71R,0.10117X0.01478*%
%ADD72R,0.02833X0.14583*%
%ADD73R,0.08417X0.01750*%
%ADD74R,0.02958X0.12250*%
%ADD75R,0.06616X0.02983*%
%ADD76R,0.12250X0.02917*%
%ADD77R,0.20333X0.02917*%
%ADD78R,0.03000X0.18083*%
%ADD79R,0.12692X0.03483*%
%ADD80R,0.26983X0.29695*%
%ADD81R,0.19583X0.23917*%
%ADD82R,0.30500X0.29417*%
%ADD83R,0.23150X0.21600*%
%ADD84R,0.07259X0.15505*%
%ADD85R,0.15158X0.14500*%
%ADD86R,0.38667X0.24333*%
%ADD87R,0.72667X0.30671*%
%ADD88R,0.63500X0.25167*%
%ADD89R,0.24500X0.51667*%
%ADD90R,0.16167X0.11667*%
%ADD91R,0.66167X0.20500*%
%ADD92R,0.15833X4.09667*%
%ADD93R,0.18167X0.69000*%
%ADD94R,0.31833X0.11667*%
%ADD95R,5.41000X0.15167*%
%ADD96R,0.16667X0.18667*%
%ADD97R,0.17442X4.02738*%
%ADD98R,0.65000X0.04667*%
%ADD99R,5.49167X0.05667*%
%ADD100R,0.34500X0.15333*%
%ADD101R,0.13667X0.86667*%
%ADD102R,0.37667X0.14333*%
%ADD103R,0.33250X0.02167*%
%ADD104R,0.05333X0.28500*%
%ADD105R,0.12500X0.10000*%
%ADD106R,0.11100X0.12000*%
%ADD107R,0.25667X0.57667*%
%ADD108R,0.06333X0.57000*%
%ADD109R,0.03667X0.31500*%
%ADD110R,0.26500X0.52167*%
%ADD111R,0.08833X0.19667*%
%ADD112R,0.48917X0.25000*%
%ADD113R,0.12250X0.05667*%
%ADD114R,0.07083X0.03333*%
%ADD115R,0.02667X0.13405*%
%ADD116C,0.06000*%
%ADD117C,0.09500*%
%ADD118C,0.09500*%
%ADD119C,0.08000*%
%ADD120R,0.03354X0.02125*%
%ADD121R,0.03208X0.02813*%
%ADD122C,0.06500*%
%ADD123R,0.40583X0.25417*%
%ADD124R,0.16914X0.04080*%
%ADD125O,0.11800X0.02200*%
%ADD126O,0.02200X0.11800*%
%ADD127O,0.03300X0.08100*%
%ADD128O,0.03300X0.07800*%
%ADD129O,0.07800X0.03100*%
%ADD130O,0.05300X0.02000*%
%ADD131O,0.07800X0.03300*%
G04:AMPARAMS|DCode=132|XSize=78mil|YSize=108mil|CornerRadius=19.5mil|HoleSize=0mil|Usage=FLASHONLY|Rotation=90.000|XOffset=0mil|YOffset=0mil|HoleType=Round|Shape=RoundedRectangle|*
%AMROUNDEDRECTD132*
21,1,0.07800,0.06900,0,0,90.0*
21,1,0.03900,0.10800,0,0,90.0*
1,1,0.03900,0.03450,0.01950*
1,1,0.03900,0.03450,-0.01950*
1,1,0.03900,-0.03450,-0.01950*
1,1,0.03900,-0.03450,0.01950*
%
%ADD132ROUNDEDRECTD132*%
%ADD133O,0.07800X0.02200*%
%ADD134R,0.28800X0.35800*%
G04:AMPARAMS|DCode=135|XSize=78mil|YSize=173mil|CornerRadius=0mil|HoleSize=0mil|Usage=FLASHONLY|Rotation=90.000|XOffset=0mil|YOffset=0mil|HoleType=Round|Shape=Octagon|*
%AMOCTAGOND135*
4,1,8,-0.08650,-0.01950,-0.08650,0.01950,-0.06700,0.03900,0.06700,0.03900,0.08650,0.01950,0.08650,-0.01950,0.06700,-0.03900,-0.06700,-0.03900,-0.08650,-0.01950,0.0*
%
%ADD135OCTAGOND135*%

G04:AMPARAMS|DCode=136|XSize=68mil|YSize=393mil|CornerRadius=0mil|HoleSize=0mil|Usage=FLASHONLY|Rotation=180.000|XOffset=0mil|YOffset=0mil|HoleType=Round|Shape=Octagon|*
%AMOCTAGOND136*
4,1,8,0.01700,-0.19650,-0.01700,-0.19650,-0.03400,-0.17950,-0.03400,0.17950,-0.01700,0.19650,0.01700,0.19650,0.03400,0.17950,0.03400,-0.17950,0.01700,-0.19650,0.0*
%
%ADD136OCTAGOND136*%

G04:AMPARAMS|DCode=137|XSize=108mil|YSize=283mil|CornerRadius=27mil|HoleSize=0mil|Usage=FLASHONLY|Rotation=0.000|XOffset=0mil|YOffset=0mil|HoleType=Round|Shape=RoundedRectangle|*
%AMROUNDEDRECTD137*
21,1,0.10800,0.22900,0,0,0.0*
21,1,0.05400,0.28300,0,0,0.0*
1,1,0.05400,0.02700,-0.11450*
1,1,0.05400,-0.02700,-0.11450*
1,1,0.05400,-0.02700,0.11450*
1,1,0.05400,0.02700,0.11450*
%
%ADD137ROUNDEDRECTD137*%
%ADD138C,0.17800*%
G04:AMPARAMS|DCode=139|XSize=158mil|YSize=123mil|CornerRadius=30.75mil|HoleSize=0mil|Usage=FLASHONLY|Rotation=270.000|XOffset=0mil|YOffset=0mil|HoleType=Round|Shape=RoundedRectangle|*
%AMROUNDEDRECTD139*
21,1,0.15800,0.06150,0,0,270.0*
21,1,0.09650,0.12300,0,0,270.0*
1,1,0.06150,-0.03075,-0.04825*
1,1,0.06150,-0.03075,0.04825*
1,1,0.06150,0.03075,0.04825*
1,1,0.06150,0.03075,-0.04825*
%
%ADD139ROUNDEDRECTD139*%
G04:AMPARAMS|DCode=140|XSize=158mil|YSize=118mil|CornerRadius=29.5mil|HoleSize=0mil|Usage=FLASHONLY|Rotation=0.000|XOffset=0mil|YOffset=0mil|HoleType=Round|Shape=RoundedRectangle|*
%AMROUNDEDRECTD140*
21,1,0.15800,0.05900,0,0,0.0*
21,1,0.09900,0.11800,0,0,0.0*
1,1,0.05900,0.04950,-0.02950*
1,1,0.05900,-0.04950,-0.02950*
1,1,0.05900,-0.04950,0.02950*
1,1,0.05900,0.04950,0.02950*
%
%ADD140ROUNDEDRECTD140*%
G04:AMPARAMS|DCode=141|XSize=178mil|YSize=96mil|CornerRadius=24mil|HoleSize=0mil|Usage=FLASHONLY|Rotation=180.000|XOffset=0mil|YOffset=0mil|HoleType=Round|Shape=RoundedRectangle|*
%AMROUNDEDRECTD141*
21,1,0.17800,0.04800,0,0,180.0*
21,1,0.13000,0.09600,0,0,180.0*
1,1,0.04800,-0.06500,0.02400*
1,1,0.04800,0.06500,0.02400*
1,1,0.04800,0.06500,-0.02400*
1,1,0.04800,-0.06500,-0.02400*
%
%ADD141ROUNDEDRECTD141*%
G04:AMPARAMS|DCode=142|XSize=68mil|YSize=98mil|CornerRadius=17mil|HoleSize=0mil|Usage=FLASHONLY|Rotation=270.000|XOffset=0mil|YOffset=0mil|HoleType=Round|Shape=RoundedRectangle|*
%AMROUNDEDRECTD142*
21,1,0.06800,0.06400,0,0,270.0*
21,1,0.03400,0.09800,0,0,270.0*
1,1,0.03400,-0.03200,-0.01700*
1,1,0.03400,-0.03200,0.01700*
1,1,0.03400,0.03200,0.01700*
1,1,0.03400,0.03200,-0.01700*
%
%ADD142ROUNDEDRECTD142*%
G04:AMPARAMS|DCode=143|XSize=48mil|YSize=73mil|CornerRadius=12mil|HoleSize=0mil|Usage=FLASHONLY|Rotation=90.000|XOffset=0mil|YOffset=0mil|HoleType=Round|Shape=RoundedRectangle|*
%AMROUNDEDRECTD143*
21,1,0.04800,0.04900,0,0,90.0*
21,1,0.02400,0.07300,0,0,90.0*
1,1,0.02400,0.02450,0.01200*
1,1,0.02400,0.02450,-0.01200*
1,1,0.02400,-0.02450,-0.01200*
1,1,0.02400,-0.02450,0.01200*
%
%ADD143ROUNDEDRECTD143*%
G04:AMPARAMS|DCode=144|XSize=93mil|YSize=93mil|CornerRadius=23.25mil|HoleSize=0mil|Usage=FLASHONLY|Rotation=0.000|XOffset=0mil|YOffset=0mil|HoleType=Round|Shape=RoundedRectangle|*
%AMROUNDEDRECTD144*
21,1,0.09300,0.04650,0,0,0.0*
21,1,0.04650,0.09300,0,0,0.0*
1,1,0.04650,0.02325,-0.02325*
1,1,0.04650,-0.02325,-0.02325*
1,1,0.04650,-0.02325,0.02325*
1,1,0.04650,0.02325,0.02325*
%
%ADD144ROUNDEDRECTD144*%
G04:AMPARAMS|DCode=145|XSize=153mil|YSize=58mil|CornerRadius=0mil|HoleSize=0mil|Usage=FLASHONLY|Rotation=180.000|XOffset=0mil|YOffset=0mil|HoleType=Round|Shape=Octagon|*
%AMOCTAGOND145*
4,1,8,-0.07650,0.01450,-0.07650,-0.01450,-0.06200,-0.02900,0.06200,-0.02900,0.07650,-0.01450,0.07650,0.01450,0.06200,0.02900,-0.06200,0.02900,-0.07650,0.01450,0.0*
%
%ADD145OCTAGOND145*%

G04:AMPARAMS|DCode=146|XSize=123mil|YSize=58mil|CornerRadius=0mil|HoleSize=0mil|Usage=FLASHONLY|Rotation=180.000|XOffset=0mil|YOffset=0mil|HoleType=Round|Shape=Octagon|*
%AMOCTAGOND146*
4,1,8,-0.06150,0.01450,-0.06150,-0.01450,-0.04700,-0.02900,0.04700,-0.02900,0.06150,-0.01450,0.06150,0.01450,0.04700,0.02900,-0.04700,0.02900,-0.06150,0.01450,0.0*
%
%ADD146OCTAGOND146*%

%ADD147O,0.06800X0.05800*%
%ADD148O,0.05800X0.07800*%
%ADD149O,0.07800X0.05800*%
G04:AMPARAMS|DCode=150|XSize=153mil|YSize=58mil|CornerRadius=0mil|HoleSize=0mil|Usage=FLASHONLY|Rotation=270.000|XOffset=0mil|YOffset=0mil|HoleType=Round|Shape=Octagon|*
%AMOCTAGOND150*
4,1,8,-0.01450,-0.07650,0.01450,-0.07650,0.02900,-0.06200,0.02900,0.06200,0.01450,0.07650,-0.01450,0.07650,-0.02900,0.06200,-0.02900,-0.06200,-0.01450,-0.07650,0.0*
%
%ADD150OCTAGOND150*%

G04:AMPARAMS|DCode=151|XSize=123mil|YSize=58mil|CornerRadius=0mil|HoleSize=0mil|Usage=FLASHONLY|Rotation=270.000|XOffset=0mil|YOffset=0mil|HoleType=Round|Shape=Octagon|*
%AMOCTAGOND151*
4,1,8,-0.01450,-0.06150,0.01450,-0.06150,0.02900,-0.04700,0.02900,0.04700,0.01450,0.06150,-0.01450,0.06150,-0.02900,0.04700,-0.02900,-0.04700,-0.01450,-0.06150,0.0*
%
%ADD151OCTAGOND151*%

%ADD152O,0.05800X0.14800*%
G04:AMPARAMS|DCode=153|XSize=118mil|YSize=93mil|CornerRadius=23.25mil|HoleSize=0mil|Usage=FLASHONLY|Rotation=90.000|XOffset=0mil|YOffset=0mil|HoleType=Round|Shape=RoundedRectangle|*
%AMROUNDEDRECTD153*
21,1,0.11800,0.04650,0,0,90.0*
21,1,0.07150,0.09300,0,0,90.0*
1,1,0.04650,0.02325,0.03575*
1,1,0.04650,0.02325,-0.03575*
1,1,0.04650,-0.02325,-0.03575*
1,1,0.04650,-0.02325,0.03575*
%
%ADD153ROUNDEDRECTD153*%
G04:AMPARAMS|DCode=154|XSize=128mil|YSize=118mil|CornerRadius=29.5mil|HoleSize=0mil|Usage=FLASHONLY|Rotation=90.000|XOffset=0mil|YOffset=0mil|HoleType=Round|Shape=RoundedRectangle|*
%AMROUNDEDRECTD154*
21,1,0.12800,0.05900,0,0,90.0*
21,1,0.06900,0.11800,0,0,90.0*
1,1,0.05900,0.02950,0.03450*
1,1,0.05900,0.02950,-0.03450*
1,1,0.05900,-0.02950,-0.03450*
1,1,0.05900,-0.02950,0.03450*
%
%ADD154ROUNDEDRECTD154*%
G04:AMPARAMS|DCode=155|XSize=68mil|YSize=168mil|CornerRadius=17mil|HoleSize=0mil|Usage=FLASHONLY|Rotation=180.000|XOffset=0mil|YOffset=0mil|HoleType=Round|Shape=RoundedRectangle|*
%AMROUNDEDRECTD155*
21,1,0.06800,0.13400,0,0,180.0*
21,1,0.03400,0.16800,0,0,180.0*
1,1,0.03400,-0.01700,0.06700*
1,1,0.03400,0.01700,0.06700*
1,1,0.03400,0.01700,-0.06700*
1,1,0.03400,-0.01700,-0.06700*
%
%ADD155ROUNDEDRECTD155*%
G04:AMPARAMS|DCode=156|XSize=103mil|YSize=178mil|CornerRadius=25.75mil|HoleSize=0mil|Usage=FLASHONLY|Rotation=270.000|XOffset=0mil|YOffset=0mil|HoleType=Round|Shape=RoundedRectangle|*
%AMROUNDEDRECTD156*
21,1,0.10300,0.12650,0,0,270.0*
21,1,0.05150,0.17800,0,0,270.0*
1,1,0.05150,-0.06325,-0.02575*
1,1,0.05150,-0.06325,0.02575*
1,1,0.05150,0.06325,0.02575*
1,1,0.05150,0.06325,-0.02575*
%
%ADD156ROUNDEDRECTD156*%
G04:AMPARAMS|DCode=157|XSize=103mil|YSize=128mil|CornerRadius=25.75mil|HoleSize=0mil|Usage=FLASHONLY|Rotation=270.000|XOffset=0mil|YOffset=0mil|HoleType=Round|Shape=RoundedRectangle|*
%AMROUNDEDRECTD157*
21,1,0.10300,0.07650,0,0,270.0*
21,1,0.05150,0.12800,0,0,270.0*
1,1,0.05150,-0.03825,-0.02575*
1,1,0.05150,-0.03825,0.02575*
1,1,0.05150,0.03825,0.02575*
1,1,0.05150,0.03825,-0.02575*
%
%ADD157ROUNDEDRECTD157*%
G04:AMPARAMS|DCode=158|XSize=126mil|YSize=108mil|CornerRadius=27mil|HoleSize=0mil|Usage=FLASHONLY|Rotation=0.000|XOffset=0mil|YOffset=0mil|HoleType=Round|Shape=RoundedRectangle|*
%AMROUNDEDRECTD158*
21,1,0.12600,0.05400,0,0,0.0*
21,1,0.07200,0.10800,0,0,0.0*
1,1,0.05400,0.03600,-0.02700*
1,1,0.05400,-0.03600,-0.02700*
1,1,0.05400,-0.03600,0.02700*
1,1,0.05400,0.03600,0.02700*
%
%ADD158ROUNDEDRECTD158*%
G04:AMPARAMS|DCode=159|XSize=93mil|YSize=93mil|CornerRadius=23.25mil|HoleSize=0mil|Usage=FLASHONLY|Rotation=270.000|XOffset=0mil|YOffset=0mil|HoleType=Round|Shape=RoundedRectangle|*
%AMROUNDEDRECTD159*
21,1,0.09300,0.04650,0,0,270.0*
21,1,0.04650,0.09300,0,0,270.0*
1,1,0.04650,-0.02325,-0.02325*
1,1,0.04650,-0.02325,0.02325*
1,1,0.04650,0.02325,0.02325*
1,1,0.04650,0.02325,-0.02325*
%
%ADD159ROUNDEDRECTD159*%
G04:AMPARAMS|DCode=160|XSize=53mil|YSize=68mil|CornerRadius=13.25mil|HoleSize=0mil|Usage=FLASHONLY|Rotation=90.000|XOffset=0mil|YOffset=0mil|HoleType=Round|Shape=RoundedRectangle|*
%AMROUNDEDRECTD160*
21,1,0.05300,0.04150,0,0,90.0*
21,1,0.02650,0.06800,0,0,90.0*
1,1,0.02650,0.02075,0.01325*
1,1,0.02650,0.02075,-0.01325*
1,1,0.02650,-0.02075,-0.01325*
1,1,0.02650,-0.02075,0.01325*
%
%ADD160ROUNDEDRECTD160*%
G04:AMPARAMS|DCode=161|XSize=48mil|YSize=68mil|CornerRadius=12mil|HoleSize=0mil|Usage=FLASHONLY|Rotation=90.000|XOffset=0mil|YOffset=0mil|HoleType=Round|Shape=RoundedRectangle|*
%AMROUNDEDRECTD161*
21,1,0.04800,0.04400,0,0,90.0*
21,1,0.02400,0.06800,0,0,90.0*
1,1,0.02400,0.02200,0.01200*
1,1,0.02400,0.02200,-0.01200*
1,1,0.02400,-0.02200,-0.01200*
1,1,0.02400,-0.02200,0.01200*
%
%ADD161ROUNDEDRECTD161*%
G04:AMPARAMS|DCode=162|XSize=48mil|YSize=41mil|CornerRadius=10.25mil|HoleSize=0mil|Usage=FLASHONLY|Rotation=180.000|XOffset=0mil|YOffset=0mil|HoleType=Round|Shape=RoundedRectangle|*
%AMROUNDEDRECTD162*
21,1,0.04800,0.02050,0,0,180.0*
21,1,0.02750,0.04100,0,0,180.0*
1,1,0.02050,-0.01375,0.01025*
1,1,0.02050,0.01375,0.01025*
1,1,0.02050,0.01375,-0.01025*
1,1,0.02050,-0.01375,-0.01025*
%
%ADD162ROUNDEDRECTD162*%
G04:AMPARAMS|DCode=163|XSize=48mil|YSize=41mil|CornerRadius=10.25mil|HoleSize=0mil|Usage=FLASHONLY|Rotation=270.000|XOffset=0mil|YOffset=0mil|HoleType=Round|Shape=RoundedRectangle|*
%AMROUNDEDRECTD163*
21,1,0.04800,0.02050,0,0,270.0*
21,1,0.02750,0.04100,0,0,270.0*
1,1,0.02050,-0.01025,-0.01375*
1,1,0.02050,-0.01025,0.01375*
1,1,0.02050,0.01025,0.01375*
1,1,0.02050,0.01025,-0.01375*
%
%ADD163ROUNDEDRECTD163*%
G04:AMPARAMS|DCode=164|XSize=48mil|YSize=68mil|CornerRadius=12mil|HoleSize=0mil|Usage=FLASHONLY|Rotation=180.000|XOffset=0mil|YOffset=0mil|HoleType=Round|Shape=RoundedRectangle|*
%AMROUNDEDRECTD164*
21,1,0.04800,0.04400,0,0,180.0*
21,1,0.02400,0.06800,0,0,180.0*
1,1,0.02400,-0.01200,0.02200*
1,1,0.02400,0.01200,0.02200*
1,1,0.02400,0.01200,-0.02200*
1,1,0.02400,-0.01200,-0.02200*
%
%ADD164ROUNDEDRECTD164*%
%ADD165O,0.05800X0.06800*%
G04:AMPARAMS|DCode=166|XSize=48mil|YSize=73mil|CornerRadius=12mil|HoleSize=0mil|Usage=FLASHONLY|Rotation=180.000|XOffset=0mil|YOffset=0mil|HoleType=Round|Shape=RoundedRectangle|*
%AMROUNDEDRECTD166*
21,1,0.04800,0.04900,0,0,180.0*
21,1,0.02400,0.07300,0,0,180.0*
1,1,0.02400,-0.01200,0.02450*
1,1,0.02400,0.01200,0.02450*
1,1,0.02400,0.01200,-0.02450*
1,1,0.02400,-0.01200,-0.02450*
%
%ADD166ROUNDEDRECTD166*%
G04:AMPARAMS|DCode=167|XSize=40mil|YSize=78mil|CornerRadius=10mil|HoleSize=0mil|Usage=FLASHONLY|Rotation=180.000|XOffset=0mil|YOffset=0mil|HoleType=Round|Shape=RoundedRectangle|*
%AMROUNDEDRECTD167*
21,1,0.04000,0.05800,0,0,180.0*
21,1,0.02000,0.07800,0,0,180.0*
1,1,0.02000,-0.01000,0.02900*
1,1,0.02000,0.01000,0.02900*
1,1,0.02000,0.01000,-0.02900*
1,1,0.02000,-0.01000,-0.02900*
%
%ADD167ROUNDEDRECTD167*%
%ADD168R,0.12800X0.12800*%
%ADD169R,0.03300X0.11800*%
G04:AMPARAMS|DCode=170|XSize=40mil|YSize=78mil|CornerRadius=10mil|HoleSize=0mil|Usage=FLASHONLY|Rotation=90.000|XOffset=0mil|YOffset=0mil|HoleType=Round|Shape=RoundedRectangle|*
%AMROUNDEDRECTD170*
21,1,0.04000,0.05800,0,0,90.0*
21,1,0.02000,0.07800,0,0,90.0*
1,1,0.02000,0.02900,0.01000*
1,1,0.02000,0.02900,-0.01000*
1,1,0.02000,-0.02900,-0.01000*
1,1,0.02000,-0.02900,0.01000*
%
%ADD170ROUNDEDRECTD170*%
%ADD171R,0.12800X0.12800*%
%ADD172R,0.11800X0.03300*%
G04:AMPARAMS|DCode=173|XSize=53mil|YSize=68mil|CornerRadius=13.25mil|HoleSize=0mil|Usage=FLASHONLY|Rotation=180.000|XOffset=0mil|YOffset=0mil|HoleType=Round|Shape=RoundedRectangle|*
%AMROUNDEDRECTD173*
21,1,0.05300,0.04150,0,0,180.0*
21,1,0.02650,0.06800,0,0,180.0*
1,1,0.02650,-0.01325,0.02075*
1,1,0.02650,0.01325,0.02075*
1,1,0.02650,0.01325,-0.02075*
1,1,0.02650,-0.01325,-0.02075*
%
%ADD173ROUNDEDRECTD173*%
%ADD174C,0.04800*%
%ADD175C,0.06800*%
%ADD176C,0.10300*%
%ADD177C,0.00500*%
%ADD178C,0.00667*%
D177*
X178700Y386400D02*
Y390400D01*
X182700D01*
Y386400D01*
X178700D01*
X188743D02*
Y390400D01*
X192743D01*
Y386400D01*
X188743D01*
X198786D02*
Y390400D01*
X202786D01*
Y386400D01*
X198786D01*
X208828D02*
Y390400D01*
X212828D01*
Y386400D01*
X208828D01*
X218871D02*
Y390400D01*
X222871D01*
Y386400D01*
X218871D01*
X228914D02*
Y390400D01*
X232914D01*
Y386400D01*
X228914D01*
X238957D02*
Y390400D01*
X242957D01*
Y386400D01*
X238957D01*
X249000D02*
Y390400D01*
X253000D01*
Y386400D01*
X249000D01*
X492200D02*
Y390400D01*
X496200D01*
Y386400D01*
X492200D01*
X482172D02*
Y390400D01*
X486172D01*
Y386400D01*
X482172D01*
X472144D02*
Y390400D01*
X476144D01*
Y386400D01*
X472144D01*
X462117D02*
Y390400D01*
X466117D01*
Y386400D01*
X462117D01*
X452089D02*
Y390400D01*
X456089D01*
Y386400D01*
X452089D01*
X442061D02*
Y390400D01*
X446061D01*
Y386400D01*
X442061D01*
X432033D02*
Y390400D01*
X436033D01*
Y386400D01*
X432033D01*
X422006D02*
Y390400D01*
X426006D01*
Y386400D01*
X422006D01*
X411978D02*
Y390400D01*
X415978D01*
Y386400D01*
X411978D01*
X401950D02*
Y390400D01*
X405950D01*
Y386400D01*
X401950D01*
X391922D02*
Y390400D01*
X395922D01*
Y386400D01*
X391922D01*
X381894D02*
Y390400D01*
X385894D01*
Y386400D01*
X381894D01*
X371867D02*
Y390400D01*
X375867D01*
Y386400D01*
X371867D01*
X361839D02*
Y390400D01*
X365839D01*
Y386400D01*
X361839D01*
X351811D02*
Y390400D01*
X355811D01*
Y386400D01*
X351811D01*
X341783D02*
Y390400D01*
X345783D01*
Y386400D01*
X341783D01*
X331755D02*
Y390400D01*
X335755D01*
Y386400D01*
X331755D01*
X321728D02*
Y390400D01*
X325728D01*
Y386400D01*
X321728D01*
X311700D02*
Y390400D01*
X315700D01*
Y386400D01*
X311700D01*
X178700Y396400D02*
Y400400D01*
X182700D01*
Y396400D01*
X178700D01*
X188743D02*
Y400400D01*
X192743D01*
Y396400D01*
X188743D01*
X198786D02*
Y400400D01*
X202786D01*
Y396400D01*
X198786D01*
X208828D02*
Y400400D01*
X212828D01*
Y396400D01*
X208828D01*
X218871D02*
Y400400D01*
X222871D01*
Y396400D01*
X218871D01*
X228914D02*
Y400400D01*
X232914D01*
Y396400D01*
X228914D01*
X238957D02*
Y400400D01*
X242957D01*
Y396400D01*
X238957D01*
X249000D02*
Y400400D01*
X253000D01*
Y396400D01*
X249000D01*
X492200D02*
Y400400D01*
X496200D01*
Y396400D01*
X492200D01*
X482172D02*
Y400400D01*
X486172D01*
Y396400D01*
X482172D01*
X472144D02*
Y400400D01*
X476144D01*
Y396400D01*
X472144D01*
X462117D02*
Y400400D01*
X466117D01*
Y396400D01*
X462117D01*
X452089D02*
Y400400D01*
X456089D01*
Y396400D01*
X452089D01*
X442061D02*
Y400400D01*
X446061D01*
Y396400D01*
X442061D01*
X432033D02*
Y400400D01*
X436033D01*
Y396400D01*
X432033D01*
X422006D02*
Y400400D01*
X426006D01*
Y396400D01*
X422006D01*
X411978D02*
Y400400D01*
X415978D01*
Y396400D01*
X411978D01*
X401950D02*
Y400400D01*
X405950D01*
Y396400D01*
X401950D01*
X391922D02*
Y400400D01*
X395922D01*
Y396400D01*
X391922D01*
X381894D02*
Y400400D01*
X385894D01*
Y396400D01*
X381894D01*
X371867D02*
Y400400D01*
X375867D01*
Y396400D01*
X371867D01*
X361839D02*
Y400400D01*
X365839D01*
Y396400D01*
X361839D01*
X351811D02*
Y400400D01*
X355811D01*
Y396400D01*
X351811D01*
X341783D02*
Y400400D01*
X345783D01*
Y396400D01*
X341783D01*
X331755D02*
Y400400D01*
X335755D01*
Y396400D01*
X331755D01*
X321728D02*
Y400400D01*
X325728D01*
Y396400D01*
X321728D01*
X311700D02*
Y400400D01*
X315700D01*
Y396400D01*
X311700D01*
X178700Y420200D02*
Y424200D01*
X182700D01*
Y420200D01*
X178700D01*
X188743D02*
Y424200D01*
X192743D01*
Y420200D01*
X188743D01*
X198786D02*
Y424200D01*
X202786D01*
Y420200D01*
X198786D01*
X208828D02*
Y424200D01*
X212828D01*
Y420200D01*
X208828D01*
X218871D02*
Y424200D01*
X222871D01*
Y420200D01*
X218871D01*
X228914D02*
Y424200D01*
X232914D01*
Y420200D01*
X228914D01*
X238957D02*
Y424200D01*
X242957D01*
Y420200D01*
X238957D01*
X249000D02*
Y424200D01*
X253000D01*
Y420200D01*
X249000D01*
X492200D02*
Y424200D01*
X496200D01*
Y420200D01*
X492200D01*
X482172D02*
Y424200D01*
X486172D01*
Y420200D01*
X482172D01*
X472144D02*
Y424200D01*
X476144D01*
Y420200D01*
X472144D01*
X462117D02*
Y424200D01*
X466117D01*
Y420200D01*
X462117D01*
X452089D02*
Y424200D01*
X456089D01*
Y420200D01*
X452089D01*
X442061D02*
Y424200D01*
X446061D01*
Y420200D01*
X442061D01*
X432033D02*
Y424200D01*
X436033D01*
Y420200D01*
X432033D01*
X422006D02*
Y424200D01*
X426006D01*
Y420200D01*
X422006D01*
X411978D02*
Y424200D01*
X415978D01*
Y420200D01*
X411978D01*
X401950D02*
Y424200D01*
X405950D01*
Y420200D01*
X401950D01*
X391922D02*
Y424200D01*
X395922D01*
Y420200D01*
X391922D01*
X381894D02*
Y424200D01*
X385894D01*
Y420200D01*
X381894D01*
X371867D02*
Y424200D01*
X375867D01*
Y420200D01*
X371867D01*
X361839D02*
Y424200D01*
X365839D01*
Y420200D01*
X361839D01*
X351811D02*
Y424200D01*
X355811D01*
Y420200D01*
X351811D01*
X341783D02*
Y424200D01*
X345783D01*
Y420200D01*
X341783D01*
X331755D02*
Y424200D01*
X335755D01*
Y420200D01*
X331755D01*
X321728D02*
Y424200D01*
X325728D01*
Y420200D01*
X321728D01*
X311700D02*
Y424200D01*
X315700D01*
Y420200D01*
X311700D01*
X178700Y430200D02*
Y434200D01*
X182700D01*
Y430200D01*
X178700D01*
X188743D02*
Y434200D01*
X192743D01*
Y430200D01*
X188743D01*
X198786D02*
Y434200D01*
X202786D01*
Y430200D01*
X198786D01*
X208828D02*
Y434200D01*
X212828D01*
Y430200D01*
X208828D01*
X218871D02*
Y434200D01*
X222871D01*
Y430200D01*
X218871D01*
X228914D02*
Y434200D01*
X232914D01*
Y430200D01*
X228914D01*
X238957D02*
Y434200D01*
X242957D01*
Y430200D01*
X238957D01*
X249000D02*
Y434200D01*
X253000D01*
Y430200D01*
X249000D01*
X492200D02*
Y434200D01*
X496200D01*
Y430200D01*
X492200D01*
X482172D02*
Y434200D01*
X486172D01*
Y430200D01*
X482172D01*
X472144D02*
Y434200D01*
X476144D01*
Y430200D01*
X472144D01*
X462117D02*
Y434200D01*
X466117D01*
Y430200D01*
X462117D01*
X452089D02*
Y434200D01*
X456089D01*
Y430200D01*
X452089D01*
X442061D02*
Y434200D01*
X446061D01*
Y430200D01*
X442061D01*
X432033D02*
Y434200D01*
X436033D01*
Y430200D01*
X432033D01*
X422006D02*
Y434200D01*
X426006D01*
Y430200D01*
X422006D01*
X411978D02*
Y434200D01*
X415978D01*
Y430200D01*
X411978D01*
X401950D02*
Y434200D01*
X405950D01*
Y430200D01*
X401950D01*
X391922D02*
Y434200D01*
X395922D01*
Y430200D01*
X391922D01*
X381894D02*
Y434200D01*
X385894D01*
Y430200D01*
X381894D01*
X371867D02*
Y434200D01*
X375867D01*
Y430200D01*
X371867D01*
X361839D02*
Y434200D01*
X365839D01*
Y430200D01*
X361839D01*
X351811D02*
Y434200D01*
X355811D01*
Y430200D01*
X351811D01*
X341783D02*
Y434200D01*
X345783D01*
Y430200D01*
X341783D01*
X331755D02*
Y434200D01*
X335755D01*
Y430200D01*
X331755D01*
X321728D02*
Y434200D01*
X325728D01*
Y430200D01*
X321728D01*
X311700D02*
Y434200D01*
X315700D01*
Y430200D01*
X311700D01*
X484500Y103200D02*
X482500Y107200D01*
X486500D01*
X484500Y103200D01*
X474000Y113400D02*
X472000Y117400D01*
X476000D01*
X474000Y113400D01*
X14600Y428700D02*
X12600Y432700D01*
X16600D01*
X14600Y428700D01*
X8500D02*
X6500Y432700D01*
X10500D01*
X8500Y428700D01*
Y418800D02*
X6500Y422800D01*
X10500D01*
X8500Y418800D01*
X14500Y418900D02*
X12500Y422900D01*
X16500D01*
X14500Y418900D01*
X8500Y408800D02*
X6500Y412800D01*
X10500D01*
X8500Y408800D01*
X14500Y408900D02*
X12500Y412900D01*
X16500D01*
X14500Y408900D01*
X14300Y399200D02*
X12300Y403200D01*
X16300D01*
X14300Y399200D01*
X8500Y399100D02*
X6500Y403100D01*
X10500D01*
X8500Y399100D01*
Y389100D02*
X6500Y393100D01*
X10500D01*
X8500Y389100D01*
X14600Y389200D02*
X12600Y393200D01*
X16600D01*
X14600Y389200D01*
X8500Y379400D02*
X6500Y383400D01*
X10500D01*
X8500Y379400D01*
X14400D02*
X12400Y383400D01*
X16400D01*
X14400Y379400D01*
X8500Y369500D02*
X6500Y373500D01*
X10500D01*
X8500Y369500D01*
X14300Y369700D02*
X12300Y373700D01*
X16300D01*
X14300Y369700D01*
X14200Y300600D02*
X12200Y304600D01*
X16200D01*
X14200Y300600D01*
X8400Y300400D02*
X6400Y304400D01*
X10400D01*
X8400Y300400D01*
X14300Y310300D02*
X12300Y314300D01*
X16300D01*
X14300Y310300D01*
X8400D02*
X6400Y314300D01*
X10400D01*
X8400Y310300D01*
X14500Y320100D02*
X12500Y324100D01*
X16500D01*
X14500Y320100D01*
X8400Y320000D02*
X6400Y324000D01*
X10400D01*
X8400Y320000D01*
Y330000D02*
X6400Y334000D01*
X10400D01*
X8400Y330000D01*
X14200Y330100D02*
X12200Y334100D01*
X16200D01*
X14200Y330100D01*
X14400Y339800D02*
X12400Y343800D01*
X16400D01*
X14400Y339800D01*
X8400Y339700D02*
X6400Y343700D01*
X10400D01*
X8400Y339700D01*
X14400Y349800D02*
X12400Y353800D01*
X16400D01*
X14400Y349800D01*
X8400Y349700D02*
X6400Y353700D01*
X10400D01*
X8400Y349700D01*
Y359600D02*
X6400Y363600D01*
X10400D01*
X8400Y359600D01*
X14500D02*
X12500Y363600D01*
X16500D01*
X14500Y359600D01*
X13900Y232000D02*
X11900Y236000D01*
X15900D01*
X13900Y232000D01*
X8100Y231800D02*
X6100Y235800D01*
X10100D01*
X8100Y231800D01*
X14000Y241700D02*
X12000Y245700D01*
X16000D01*
X14000Y241700D01*
X8100D02*
X6100Y245700D01*
X10100D01*
X8100Y241700D01*
X14200Y251500D02*
X12200Y255500D01*
X16200D01*
X14200Y251500D01*
X8100Y251400D02*
X6100Y255400D01*
X10100D01*
X8100Y251400D01*
Y261400D02*
X6100Y265400D01*
X10100D01*
X8100Y261400D01*
X13900Y261500D02*
X11900Y265500D01*
X15900D01*
X13900Y261500D01*
X14100Y271200D02*
X12100Y275200D01*
X16100D01*
X14100Y271200D01*
X8100Y271100D02*
X6100Y275100D01*
X10100D01*
X8100Y271100D01*
X14100Y281200D02*
X12100Y285200D01*
X16100D01*
X14100Y281200D01*
X8100Y281100D02*
X6100Y285100D01*
X10100D01*
X8100Y281100D01*
Y291000D02*
X6100Y295000D01*
X10100D01*
X8100Y291000D01*
X14200D02*
X12200Y295000D01*
X16200D01*
X14200Y291000D01*
X13700Y163100D02*
X11700Y167100D01*
X15700D01*
X13700Y163100D01*
X7900Y162900D02*
X5900Y166900D01*
X9900D01*
X7900Y162900D01*
X13800Y172800D02*
X11800Y176800D01*
X15800D01*
X13800Y172800D01*
X7900D02*
X5900Y176800D01*
X9900D01*
X7900Y172800D01*
X14000Y182600D02*
X12000Y186600D01*
X16000D01*
X14000Y182600D01*
X7900Y182500D02*
X5900Y186500D01*
X9900D01*
X7900Y182500D01*
Y192500D02*
X5900Y196500D01*
X9900D01*
X7900Y192500D01*
X13700Y192600D02*
X11700Y196600D01*
X15700D01*
X13700Y192600D01*
X13900Y202300D02*
X11900Y206300D01*
X15900D01*
X13900Y202300D01*
X7900Y202200D02*
X5900Y206200D01*
X9900D01*
X7900Y202200D01*
X13900Y212300D02*
X11900Y216300D01*
X15900D01*
X13900Y212300D01*
X7900Y212200D02*
X5900Y216200D01*
X9900D01*
X7900Y212200D01*
Y222100D02*
X5900Y226100D01*
X9900D01*
X7900Y222100D01*
X14000D02*
X12000Y226100D01*
X16000D01*
X14000Y222100D01*
X13700Y94100D02*
X11700Y98100D01*
X15700D01*
X13700Y94100D01*
X7900Y93900D02*
X5900Y97900D01*
X9900D01*
X7900Y93900D01*
X13800Y103800D02*
X11800Y107800D01*
X15800D01*
X13800Y103800D01*
X7900D02*
X5900Y107800D01*
X9900D01*
X7900Y103800D01*
X14000Y113600D02*
X12000Y117600D01*
X16000D01*
X14000Y113600D01*
X7900Y113500D02*
X5900Y117500D01*
X9900D01*
X7900Y113500D01*
Y123500D02*
X5900Y127500D01*
X9900D01*
X7900Y123500D01*
X13700Y123600D02*
X11700Y127600D01*
X15700D01*
X13700Y123600D01*
X13900Y133300D02*
X11900Y137300D01*
X15900D01*
X13900Y133300D01*
X7900Y133200D02*
X5900Y137200D01*
X9900D01*
X7900Y133200D01*
X13900Y143300D02*
X11900Y147300D01*
X15900D01*
X13900Y143300D01*
X7900Y143200D02*
X5900Y147200D01*
X9900D01*
X7900Y143200D01*
Y153100D02*
X5900Y157100D01*
X9900D01*
X7900Y153100D01*
X14000D02*
X12000Y157100D01*
X16000D01*
X14000Y153100D01*
X7800Y25200D02*
X5800Y29200D01*
X9800D01*
X7800Y25200D01*
X13700Y35100D02*
X11700Y39100D01*
X15700D01*
X13700Y35100D01*
X7800D02*
X5800Y39100D01*
X9800D01*
X7800Y35100D01*
X13900Y44900D02*
X11900Y48900D01*
X15900D01*
X13900Y44900D01*
X7800Y44800D02*
X5800Y48800D01*
X9800D01*
X7800Y44800D01*
Y54800D02*
X5800Y58800D01*
X9800D01*
X7800Y54800D01*
X13600Y54900D02*
X11600Y58900D01*
X15600D01*
X13600Y54900D01*
X13800Y64600D02*
X11800Y68600D01*
X15800D01*
X13800Y64600D01*
X7800Y64500D02*
X5800Y68500D01*
X9800D01*
X7800Y64500D01*
X13800Y74600D02*
X11800Y78600D01*
X15800D01*
X13800Y74600D01*
X7800Y74500D02*
X5800Y78500D01*
X9800D01*
X7800Y74500D01*
Y84400D02*
X5800Y88400D01*
X9800D01*
X7800Y84400D01*
X13900D02*
X11900Y88400D01*
X15900D01*
X13900Y84400D01*
X59600Y11500D02*
X57600Y15500D01*
X61600D01*
X59600Y11500D01*
X67200D02*
X65200Y15500D01*
X69200D01*
X67200Y11500D01*
X75100D02*
X73100Y15500D01*
X77100D01*
X75100Y11500D01*
X83200D02*
X81200Y15500D01*
X85200D01*
X83200Y11500D01*
X90900D02*
X88900Y15500D01*
X92900D01*
X90900Y11500D01*
X98700D02*
X96700Y15500D01*
X100700D01*
X98700Y11500D01*
X106700D02*
X104700Y15500D01*
X108700D01*
X106700Y11500D01*
X114600D02*
X112600Y15500D01*
X116600D01*
X114600Y11500D01*
X122100D02*
X120100Y15500D01*
X124100D01*
X122100Y11500D01*
X130300D02*
X128300Y15500D01*
X132300D01*
X130300Y11500D01*
X137900D02*
X135900Y15500D01*
X139900D01*
X137900Y11500D01*
X146100D02*
X144100Y15500D01*
X148100D01*
X146100Y11500D01*
X153600D02*
X151600Y15500D01*
X155600D01*
X153600Y11500D01*
X161500D02*
X159500Y15500D01*
X163500D01*
X161500Y11500D01*
X169500D02*
X167500Y15500D01*
X171500D01*
X169500Y11500D01*
X177300D02*
X175300Y15500D01*
X179300D01*
X177300Y11500D01*
X185000D02*
X183000Y15500D01*
X187000D01*
X185000Y11500D01*
X193100D02*
X191100Y15500D01*
X195100D01*
X193100Y11500D01*
X201000D02*
X199000Y15500D01*
X203000D01*
X201000Y11500D01*
X208600D02*
X206600Y15500D01*
X210600D01*
X208600Y11500D01*
X216700D02*
X214700Y15500D01*
X218700D01*
X216700Y11500D01*
X224900D02*
X222900Y15500D01*
X226900D01*
X224900Y11500D01*
X232400D02*
X230400Y15500D01*
X234400D01*
X232400Y11500D01*
X240300D02*
X238300Y15500D01*
X242300D01*
X240300Y11500D01*
X248300D02*
X246300Y15500D01*
X250300D01*
X248300Y11500D01*
X256100D02*
X254100Y15500D01*
X258100D01*
X256100Y11500D01*
X263800D02*
X261800Y15500D01*
X265800D01*
X263800Y11500D01*
X271900D02*
X269900Y15500D01*
X273900D01*
X271900Y11500D01*
X279800D02*
X277800Y15500D01*
X281800D01*
X279800Y11500D01*
X287400D02*
X285400Y15500D01*
X289400D01*
X287400Y11500D01*
X295800Y11200D02*
X293800Y15200D01*
X297800D01*
X295800Y11200D01*
X304000D02*
X302000Y15200D01*
X306000D01*
X304000Y11200D01*
X311500D02*
X309500Y15200D01*
X313500D01*
X311500Y11200D01*
X319400D02*
X317400Y15200D01*
X321400D01*
X319400Y11200D01*
X232500Y5600D02*
X230500Y9600D01*
X234500D01*
X232500Y5600D01*
X240700D02*
X238700Y9600D01*
X242700D01*
X240700Y5600D01*
X248200D02*
X246200Y9600D01*
X250200D01*
X248200Y5600D01*
X256100D02*
X254100Y9600D01*
X258100D01*
X256100Y5600D01*
X264100D02*
X262100Y9600D01*
X266100D01*
X264100Y5600D01*
X271900D02*
X269900Y9600D01*
X273900D01*
X271900Y5600D01*
X279600D02*
X277600Y9600D01*
X281600D01*
X279600Y5600D01*
X287700D02*
X285700Y9600D01*
X289700D01*
X287700Y5600D01*
X295600D02*
X293600Y9600D01*
X297600D01*
X295600Y5600D01*
X303200D02*
X301200Y9600D01*
X305200D01*
X303200Y5600D01*
X311500Y5800D02*
X309500Y9800D01*
X313500D01*
X311500Y5800D01*
X319500Y5300D02*
X317500Y9300D01*
X321500D01*
X319500Y5300D01*
X329200Y5800D02*
X327200Y9800D01*
X331200D01*
X329200Y5800D01*
X329000Y11200D02*
X327000Y15200D01*
X331000D01*
X329000Y11200D01*
X339200Y11300D02*
X337200Y15300D01*
X341200D01*
X339200Y11300D01*
X339000Y5700D02*
X337000Y9700D01*
X341000D01*
X339000Y5700D01*
X348900Y11500D02*
X346900Y15500D01*
X350900D01*
X348900Y11500D01*
X349200Y5700D02*
X347200Y9700D01*
X351200D01*
X349200Y5700D01*
X358900Y11000D02*
X356900Y15000D01*
X360900D01*
X358900Y11000D01*
X368800Y11300D02*
X366800Y15300D01*
X370800D01*
X368800Y11300D01*
X378500Y11200D02*
X376500Y15200D01*
X380500D01*
X378500Y11200D01*
X388500Y11500D02*
X386500Y15500D01*
X390500D01*
X388500Y11500D01*
X388700Y5700D02*
X386700Y9700D01*
X390700D01*
X388700Y5700D01*
X378600Y5500D02*
X376600Y9500D01*
X380600D01*
X378600Y5500D01*
X368700Y5400D02*
X366700Y9400D01*
X370700D01*
X368700Y5400D01*
X358900Y5500D02*
X356900Y9500D01*
X360900D01*
X358900Y5500D01*
X428100Y11600D02*
X426100Y15600D01*
X430100D01*
X428100Y11600D01*
X418300Y11700D02*
X416300Y15700D01*
X420300D01*
X418300Y11700D01*
X408400Y11600D02*
X406400Y15600D01*
X410400D01*
X408400Y11600D01*
X398300Y11400D02*
X396300Y15400D01*
X400300D01*
X398300Y11400D01*
X398500Y5600D02*
X396500Y9600D01*
X400500D01*
X398500Y5600D01*
X408500Y5900D02*
X406500Y9900D01*
X410500D01*
X408500Y5900D01*
X418200Y5800D02*
X416200Y9800D01*
X420200D01*
X418200Y5800D01*
X428100Y6100D02*
X426100Y10100D01*
X430100D01*
X428100Y6100D01*
X437800Y11400D02*
X435800Y15400D01*
X439800D01*
X437800Y11400D01*
X438100Y5600D02*
X436100Y9600D01*
X440100D01*
X438100Y5600D01*
X448000Y11400D02*
X446000Y15400D01*
X450000D01*
X448000Y11400D01*
X447800Y5800D02*
X445800Y9800D01*
X449800D01*
X447800Y5800D01*
X487400Y11400D02*
X485400Y15400D01*
X489400D01*
X487400Y11400D01*
X477600Y11500D02*
X475600Y15500D01*
X479600D01*
X477600Y11500D01*
X467700Y11400D02*
X465700Y15400D01*
X469700D01*
X467700Y11400D01*
X457600Y11200D02*
X455600Y15200D01*
X459600D01*
X457600Y11200D01*
X457800Y5400D02*
X455800Y9400D01*
X459800D01*
X457800Y5400D01*
X467800Y5700D02*
X465800Y9700D01*
X469800D01*
X467800Y5700D01*
X477500Y5600D02*
X475500Y9600D01*
X479500D01*
X477500Y5600D01*
X487400Y5900D02*
X485400Y9900D01*
X489400D01*
X487400Y5900D01*
X497100Y11200D02*
X495100Y15200D01*
X499100D01*
X497100Y11200D01*
X497400Y5400D02*
X495400Y9400D01*
X499400D01*
X497400Y5400D01*
X507300Y11200D02*
X505300Y15200D01*
X509300D01*
X507300Y11200D01*
X507100Y5600D02*
X505100Y9600D01*
X509100D01*
X507100Y5600D01*
X546600Y11400D02*
X544600Y15400D01*
X548600D01*
X546600Y11400D01*
X536800Y11500D02*
X534800Y15500D01*
X538800D01*
X536800Y11500D01*
X526900Y11400D02*
X524900Y15400D01*
X528900D01*
X526900Y11400D01*
X516800Y11200D02*
X514800Y15200D01*
X518800D01*
X516800Y11200D01*
X517000Y5400D02*
X515000Y9400D01*
X519000D01*
X517000Y5400D01*
X527000Y5700D02*
X525000Y9700D01*
X529000D01*
X527000Y5700D01*
X536700Y5600D02*
X534700Y9600D01*
X538700D01*
X536700Y5600D01*
X546600Y5900D02*
X544600Y9900D01*
X548600D01*
X546600Y5900D01*
X556300Y11200D02*
X554300Y15200D01*
X558300D01*
X556300Y11200D01*
X556600Y5400D02*
X554600Y9400D01*
X558600D01*
X556600Y5400D01*
X566500Y11200D02*
X564500Y15200D01*
X568500D01*
X566500Y11200D01*
X566300Y5600D02*
X564300Y9600D01*
X568300D01*
X566300Y5600D01*
X596200Y5500D02*
X594200Y9500D01*
X598200D01*
X596200Y5500D01*
X596400Y11100D02*
X594400Y15100D01*
X598400D01*
X596400Y11100D01*
X586500Y5300D02*
X584500Y9300D01*
X588500D01*
X586500Y5300D01*
X586200Y11100D02*
X584200Y15100D01*
X588200D01*
X586200Y11100D01*
X576500Y5800D02*
X574500Y9800D01*
X578500D01*
X576500Y5800D01*
Y11300D02*
X574500Y15300D01*
X578500D01*
X576500Y11300D01*
X548700Y32500D02*
X546700Y36500D01*
X550700D01*
X548700Y32500D01*
X565400Y29700D02*
X563400Y33700D01*
X567400D01*
X565400Y29700D01*
X627700Y103800D02*
X625700Y107800D01*
X629700D01*
X627700Y103800D01*
X627800Y98000D02*
X625800Y102000D01*
X629800D01*
X627800Y98000D01*
X627600Y91800D02*
X625600Y95800D01*
X629600D01*
X627600Y91800D01*
X627900Y86300D02*
X625900Y90300D01*
X629900D01*
X627900Y86300D01*
X627800Y80400D02*
X625800Y84400D01*
X629800D01*
X627800Y80400D01*
X638500Y103900D02*
X636500Y107900D01*
X640500D01*
X638500Y103900D01*
X643600D02*
X641600Y107900D01*
X645600D01*
X643600Y103900D01*
X638800Y98100D02*
X636800Y102100D01*
X640800D01*
X638800Y98100D01*
X643700Y97800D02*
X641700Y101800D01*
X645700D01*
X643700Y97800D01*
X638600Y92300D02*
X636600Y96300D01*
X640600D01*
X638600Y92300D01*
X643600Y92000D02*
X641600Y96000D01*
X645600D01*
X643600Y92000D01*
X638600Y86200D02*
X636600Y90200D01*
X640600D01*
X638600Y86200D01*
X643500Y85900D02*
X641500Y89900D01*
X645500D01*
X643500Y85900D01*
X638700Y80200D02*
X636700Y84200D01*
X640700D01*
X638700Y80200D01*
X643500D02*
X641500Y84200D01*
X645500D01*
X643500Y80200D01*
X643400Y50600D02*
X641400Y54600D01*
X645400D01*
X643400Y50600D01*
X638600D02*
X636600Y54600D01*
X640600D01*
X638600Y50600D01*
X643400Y56300D02*
X641400Y60300D01*
X645400D01*
X643400Y56300D01*
X638500Y56600D02*
X636500Y60600D01*
X640500D01*
X638500Y56600D01*
X643500Y62400D02*
X641500Y66400D01*
X645500D01*
X643500Y62400D01*
X638500Y62700D02*
X636500Y66700D01*
X640500D01*
X638500Y62700D01*
X643600Y68200D02*
X641600Y72200D01*
X645600D01*
X643600Y68200D01*
X638700Y68500D02*
X636700Y72500D01*
X640700D01*
X638700Y68500D01*
X643500Y74300D02*
X641500Y78300D01*
X645500D01*
X643500Y74300D01*
X638400D02*
X636400Y78300D01*
X640400D01*
X638400Y74300D01*
X627700Y50800D02*
X625700Y54800D01*
X629700D01*
X627700Y50800D01*
X627800Y56700D02*
X625800Y60700D01*
X629800D01*
X627800Y56700D01*
X627500Y62200D02*
X625500Y66200D01*
X629500D01*
X627500Y62200D01*
X627700Y68400D02*
X625700Y72400D01*
X629700D01*
X627700Y68400D01*
X627600Y74200D02*
X625600Y78200D01*
X629600D01*
X627600Y74200D01*
X627800Y39000D02*
X625800Y43000D01*
X629800D01*
X627800Y39000D01*
X627900Y44800D02*
X625900Y48800D01*
X629900D01*
X627900Y44800D01*
X638800Y44600D02*
X636800Y48600D01*
X640800D01*
X638800Y44600D01*
X643600Y44700D02*
X641600Y48700D01*
X645600D01*
X643600Y44700D01*
X638400Y38900D02*
X636400Y42900D01*
X640400D01*
X638400Y38900D01*
X643300D02*
X641300Y42900D01*
X645300D01*
X643300Y38900D01*
X643400Y33000D02*
X641400Y37000D01*
X645400D01*
X643400Y33000D01*
X638600Y33100D02*
X636600Y37100D01*
X640600D01*
X638600Y33100D01*
X643400Y27100D02*
X641400Y31100D01*
X645400D01*
X643400Y27100D01*
Y363600D02*
X641400Y367600D01*
X645400D01*
X643400Y363600D01*
X638500D02*
X636500Y367600D01*
X640500D01*
X638500Y363600D01*
X643700Y369400D02*
X641700Y373400D01*
X645700D01*
X643700Y369400D01*
X638900Y369300D02*
X636900Y373300D01*
X640900D01*
X638900Y369300D01*
X628000Y369500D02*
X626000Y373500D01*
X630000D01*
X628000Y369500D01*
X627900Y363700D02*
X625900Y367700D01*
X629900D01*
X627900Y363700D01*
X627700Y398900D02*
X625700Y402900D01*
X629700D01*
X627700Y398900D01*
X627800Y393100D02*
X625800Y397100D01*
X629800D01*
X627800Y393100D01*
X627600Y386900D02*
X625600Y390900D01*
X629600D01*
X627600Y386900D01*
X627900Y381400D02*
X625900Y385400D01*
X629900D01*
X627900Y381400D01*
X627800Y375500D02*
X625800Y379500D01*
X629800D01*
X627800Y375500D01*
X638500Y399000D02*
X636500Y403000D01*
X640500D01*
X638500Y399000D01*
X643600D02*
X641600Y403000D01*
X645600D01*
X643600Y399000D01*
X638800Y393200D02*
X636800Y397200D01*
X640800D01*
X638800Y393200D01*
X643700Y392900D02*
X641700Y396900D01*
X645700D01*
X643700Y392900D01*
X638600Y387400D02*
X636600Y391400D01*
X640600D01*
X638600Y387400D01*
X643600Y387100D02*
X641600Y391100D01*
X645600D01*
X643600Y387100D01*
X638600Y381300D02*
X636600Y385300D01*
X640600D01*
X638600Y381300D01*
X643500Y381000D02*
X641500Y385000D01*
X645500D01*
X643500Y381000D01*
X638700Y375300D02*
X636700Y379300D01*
X640700D01*
X638700Y375300D01*
X643500D02*
X641500Y379300D01*
X645500D01*
X643500Y375300D01*
X643600Y404900D02*
X641600Y408900D01*
X645600D01*
X643600Y404900D01*
X638800D02*
X636800Y408900D01*
X640800D01*
X638800Y404900D01*
X643600Y410600D02*
X641600Y414600D01*
X645600D01*
X643600Y410600D01*
X638700Y410900D02*
X636700Y414900D01*
X640700D01*
X638700Y410900D01*
X643700Y416700D02*
X641700Y420700D01*
X645700D01*
X643700Y416700D01*
X638700Y417000D02*
X636700Y421000D01*
X640700D01*
X638700Y417000D01*
X643800Y422500D02*
X641800Y426500D01*
X645800D01*
X643800Y422500D01*
X638900Y422800D02*
X636900Y426800D01*
X640900D01*
X638900Y422800D01*
X643700Y428600D02*
X641700Y432600D01*
X645700D01*
X643700Y428600D01*
X638600D02*
X636600Y432600D01*
X640600D01*
X638600Y428600D01*
X627900Y405100D02*
X625900Y409100D01*
X629900D01*
X627900Y405100D01*
X628000Y411000D02*
X626000Y415000D01*
X630000D01*
X628000Y411000D01*
X627700Y416500D02*
X625700Y420500D01*
X629700D01*
X627700Y416500D01*
X627900Y422700D02*
X625900Y426700D01*
X629900D01*
X627900Y422700D01*
X627800Y428500D02*
X625800Y432500D01*
X629800D01*
X627800Y428500D01*
X643300Y292800D02*
X641300Y296800D01*
X645300D01*
X643300Y292800D01*
X638400D02*
X636400Y296800D01*
X640400D01*
X638400Y292800D01*
X643600Y298600D02*
X641600Y302600D01*
X645600D01*
X643600Y298600D01*
X638800Y298500D02*
X636800Y302500D01*
X640800D01*
X638800Y298500D01*
X627900Y298700D02*
X625900Y302700D01*
X629900D01*
X627900Y298700D01*
X627800Y292900D02*
X625800Y296900D01*
X629800D01*
X627800Y292900D01*
X627600Y328100D02*
X625600Y332100D01*
X629600D01*
X627600Y328100D01*
X627700Y322300D02*
X625700Y326300D01*
X629700D01*
X627700Y322300D01*
X627500Y316100D02*
X625500Y320100D01*
X629500D01*
X627500Y316100D01*
X627800Y310600D02*
X625800Y314600D01*
X629800D01*
X627800Y310600D01*
X627700Y304700D02*
X625700Y308700D01*
X629700D01*
X627700Y304700D01*
X638400Y328200D02*
X636400Y332200D01*
X640400D01*
X638400Y328200D01*
X643500D02*
X641500Y332200D01*
X645500D01*
X643500Y328200D01*
X638700Y322400D02*
X636700Y326400D01*
X640700D01*
X638700Y322400D01*
X643600Y322100D02*
X641600Y326100D01*
X645600D01*
X643600Y322100D01*
X638500Y316600D02*
X636500Y320600D01*
X640500D01*
X638500Y316600D01*
X643500Y316300D02*
X641500Y320300D01*
X645500D01*
X643500Y316300D01*
X638500Y310500D02*
X636500Y314500D01*
X640500D01*
X638500Y310500D01*
X643400Y310200D02*
X641400Y314200D01*
X645400D01*
X643400Y310200D01*
X638600Y304500D02*
X636600Y308500D01*
X640600D01*
X638600Y304500D01*
X643400D02*
X641400Y308500D01*
X645400D01*
X643400Y304500D01*
X643500Y334100D02*
X641500Y338100D01*
X645500D01*
X643500Y334100D01*
X638700D02*
X636700Y338100D01*
X640700D01*
X638700Y334100D01*
X643500Y339800D02*
X641500Y343800D01*
X645500D01*
X643500Y339800D01*
X638600Y340100D02*
X636600Y344100D01*
X640600D01*
X638600Y340100D01*
X643600Y345900D02*
X641600Y349900D01*
X645600D01*
X643600Y345900D01*
X638600Y346200D02*
X636600Y350200D01*
X640600D01*
X638600Y346200D01*
X643700Y351700D02*
X641700Y355700D01*
X645700D01*
X643700Y351700D01*
X638800Y352000D02*
X636800Y356000D01*
X640800D01*
X638800Y352000D01*
X643600Y357800D02*
X641600Y361800D01*
X645600D01*
X643600Y357800D01*
X638500D02*
X636500Y361800D01*
X640500D01*
X638500Y357800D01*
X627800Y334300D02*
X625800Y338300D01*
X629800D01*
X627800Y334300D01*
X627900Y340200D02*
X625900Y344200D01*
X629900D01*
X627900Y340200D01*
X627600Y345700D02*
X625600Y349700D01*
X629600D01*
X627600Y345700D01*
X627800Y351900D02*
X625800Y355900D01*
X629800D01*
X627800Y351900D01*
X627700Y357700D02*
X625700Y361700D01*
X629700D01*
X627700Y357700D01*
X643200Y221800D02*
X641200Y225800D01*
X645200D01*
X643200Y221800D01*
X638300D02*
X636300Y225800D01*
X640300D01*
X638300Y221800D01*
X643500Y227600D02*
X641500Y231600D01*
X645500D01*
X643500Y227600D01*
X638700Y227500D02*
X636700Y231500D01*
X640700D01*
X638700Y227500D01*
X627800Y227700D02*
X625800Y231700D01*
X629800D01*
X627800Y227700D01*
X627700Y221900D02*
X625700Y225900D01*
X629700D01*
X627700Y221900D01*
X627500Y257100D02*
X625500Y261100D01*
X629500D01*
X627500Y257100D01*
X627600Y251300D02*
X625600Y255300D01*
X629600D01*
X627600Y251300D01*
X627400Y245100D02*
X625400Y249100D01*
X629400D01*
X627400Y245100D01*
X627700Y239600D02*
X625700Y243600D01*
X629700D01*
X627700Y239600D01*
X627600Y233700D02*
X625600Y237700D01*
X629600D01*
X627600Y233700D01*
X638300Y257200D02*
X636300Y261200D01*
X640300D01*
X638300Y257200D01*
X643400D02*
X641400Y261200D01*
X645400D01*
X643400Y257200D01*
X638600Y251400D02*
X636600Y255400D01*
X640600D01*
X638600Y251400D01*
X643500Y251100D02*
X641500Y255100D01*
X645500D01*
X643500Y251100D01*
X638400Y245600D02*
X636400Y249600D01*
X640400D01*
X638400Y245600D01*
X643400Y245300D02*
X641400Y249300D01*
X645400D01*
X643400Y245300D01*
X638400Y239500D02*
X636400Y243500D01*
X640400D01*
X638400Y239500D01*
X643300Y239200D02*
X641300Y243200D01*
X645300D01*
X643300Y239200D01*
X638500Y233500D02*
X636500Y237500D01*
X640500D01*
X638500Y233500D01*
X643300D02*
X641300Y237500D01*
X645300D01*
X643300Y233500D01*
X643400Y263100D02*
X641400Y267100D01*
X645400D01*
X643400Y263100D01*
X638600D02*
X636600Y267100D01*
X640600D01*
X638600Y263100D01*
X643400Y268800D02*
X641400Y272800D01*
X645400D01*
X643400Y268800D01*
X638500Y269100D02*
X636500Y273100D01*
X640500D01*
X638500Y269100D01*
X643500Y274900D02*
X641500Y278900D01*
X645500D01*
X643500Y274900D01*
X638500Y275200D02*
X636500Y279200D01*
X640500D01*
X638500Y275200D01*
X643600Y280700D02*
X641600Y284700D01*
X645600D01*
X643600Y280700D01*
X638700Y281000D02*
X636700Y285000D01*
X640700D01*
X638700Y281000D01*
X643500Y286800D02*
X641500Y290800D01*
X645500D01*
X643500Y286800D01*
X638400D02*
X636400Y290800D01*
X640400D01*
X638400Y286800D01*
X627700Y263300D02*
X625700Y267300D01*
X629700D01*
X627700Y263300D01*
X627800Y269200D02*
X625800Y273200D01*
X629800D01*
X627800Y269200D01*
X627500Y274700D02*
X625500Y278700D01*
X629500D01*
X627500Y274700D01*
X627700Y280900D02*
X625700Y284900D01*
X629700D01*
X627700Y280900D01*
X627600Y286700D02*
X625600Y290700D01*
X629600D01*
X627600Y286700D01*
X643400Y151100D02*
X641400Y155100D01*
X645400D01*
X643400Y151100D01*
X638500D02*
X636500Y155100D01*
X640500D01*
X638500Y151100D01*
X643700Y156900D02*
X641700Y160900D01*
X645700D01*
X643700Y156900D01*
X638900Y156800D02*
X636900Y160800D01*
X640900D01*
X638900Y156800D01*
X628000Y157000D02*
X626000Y161000D01*
X630000D01*
X628000Y157000D01*
X627900Y151200D02*
X625900Y155200D01*
X629900D01*
X627900Y151200D01*
X627700Y186400D02*
X625700Y190400D01*
X629700D01*
X627700Y186400D01*
X627800Y180600D02*
X625800Y184600D01*
X629800D01*
X627800Y180600D01*
X627600Y174400D02*
X625600Y178400D01*
X629600D01*
X627600Y174400D01*
X627900Y168900D02*
X625900Y172900D01*
X629900D01*
X627900Y168900D01*
X627800Y163000D02*
X625800Y167000D01*
X629800D01*
X627800Y163000D01*
X638500Y186500D02*
X636500Y190500D01*
X640500D01*
X638500Y186500D01*
X643600D02*
X641600Y190500D01*
X645600D01*
X643600Y186500D01*
X638800Y180700D02*
X636800Y184700D01*
X640800D01*
X638800Y180700D01*
X643700Y180400D02*
X641700Y184400D01*
X645700D01*
X643700Y180400D01*
X638600Y174900D02*
X636600Y178900D01*
X640600D01*
X638600Y174900D01*
X643600Y174600D02*
X641600Y178600D01*
X645600D01*
X643600Y174600D01*
X638600Y168800D02*
X636600Y172800D01*
X640600D01*
X638600Y168800D01*
X643500Y168500D02*
X641500Y172500D01*
X645500D01*
X643500Y168500D01*
X638700Y162800D02*
X636700Y166800D01*
X640700D01*
X638700Y162800D01*
X643500D02*
X641500Y166800D01*
X645500D01*
X643500Y162800D01*
X643600Y192400D02*
X641600Y196400D01*
X645600D01*
X643600Y192400D01*
X638800D02*
X636800Y196400D01*
X640800D01*
X638800Y192400D01*
X643600Y198100D02*
X641600Y202100D01*
X645600D01*
X643600Y198100D01*
X638700Y198400D02*
X636700Y202400D01*
X640700D01*
X638700Y198400D01*
X643700Y204200D02*
X641700Y208200D01*
X645700D01*
X643700Y204200D01*
X638700Y204500D02*
X636700Y208500D01*
X640700D01*
X638700Y204500D01*
X643800Y210000D02*
X641800Y214000D01*
X645800D01*
X643800Y210000D01*
X638900Y210300D02*
X636900Y214300D01*
X640900D01*
X638900Y210300D01*
X643700Y216100D02*
X641700Y220100D01*
X645700D01*
X643700Y216100D01*
X638600D02*
X636600Y220100D01*
X640600D01*
X638600Y216100D01*
X627900Y192600D02*
X625900Y196600D01*
X629900D01*
X627900Y192600D01*
X628000Y198500D02*
X626000Y202500D01*
X630000D01*
X628000Y198500D01*
X627700Y204000D02*
X625700Y208000D01*
X629700D01*
X627700Y204000D01*
X627900Y210200D02*
X625900Y214200D01*
X629900D01*
X627900Y210200D01*
X627800Y216000D02*
X625800Y220000D01*
X629800D01*
X627800Y216000D01*
X627700Y115600D02*
X625700Y119600D01*
X629700D01*
X627700Y115600D01*
X627800Y109800D02*
X625800Y113800D01*
X629800D01*
X627800Y109800D01*
X638500Y115700D02*
X636500Y119700D01*
X640500D01*
X638500Y115700D01*
X643600D02*
X641600Y119700D01*
X645600D01*
X643600Y115700D01*
X638800Y109900D02*
X636800Y113900D01*
X640800D01*
X638800Y109900D01*
X643700Y109600D02*
X641700Y113600D01*
X645700D01*
X643700Y109600D01*
X643600Y121600D02*
X641600Y125600D01*
X645600D01*
X643600Y121600D01*
X638800D02*
X636800Y125600D01*
X640800D01*
X638800Y121600D01*
X643600Y127300D02*
X641600Y131300D01*
X645600D01*
X643600Y127300D01*
X638700Y127600D02*
X636700Y131600D01*
X640700D01*
X638700Y127600D01*
X643700Y133400D02*
X641700Y137400D01*
X645700D01*
X643700Y133400D01*
X638700Y133700D02*
X636700Y137700D01*
X640700D01*
X638700Y133700D01*
X643800Y139200D02*
X641800Y143200D01*
X645800D01*
X643800Y139200D01*
X638900Y139500D02*
X636900Y143500D01*
X640900D01*
X638900Y139500D01*
X643700Y145300D02*
X641700Y149300D01*
X645700D01*
X643700Y145300D01*
X638600D02*
X636600Y149300D01*
X640600D01*
X638600Y145300D01*
X627900Y121800D02*
X625900Y125800D01*
X629900D01*
X627900Y121800D01*
X628000Y127700D02*
X626000Y131700D01*
X630000D01*
X628000Y127700D01*
X627700Y133200D02*
X625700Y137200D01*
X629700D01*
X627700Y133200D01*
X627900Y139400D02*
X625900Y143400D01*
X629900D01*
X627900Y139400D01*
X627800Y145200D02*
X625800Y149200D01*
X629800D01*
X627800Y145200D01*
X44100Y458100D02*
X42100Y462100D01*
X46100D01*
X44100Y458100D01*
X67800Y457900D02*
X65800Y461900D01*
X69800D01*
X67800Y457900D01*
X91700D02*
X89700Y461900D01*
X93700D01*
X91700Y457900D01*
X115200Y457800D02*
X113200Y461800D01*
X117200D01*
X115200Y457800D01*
X139100Y458300D02*
X137100Y462300D01*
X141100D01*
X139100Y458300D01*
X162500Y458100D02*
X160500Y462100D01*
X164500D01*
X162500Y458100D01*
X186000Y458000D02*
X184000Y462000D01*
X188000D01*
X186000Y458000D01*
X209700Y458100D02*
X207700Y462100D01*
X211700D01*
X209700Y458100D01*
X233300Y457800D02*
X231300Y461800D01*
X235300D01*
X233300Y457800D01*
X446200Y457500D02*
X444200Y461500D01*
X448200D01*
X446200Y457500D01*
X422600Y457800D02*
X420600Y461800D01*
X424600D01*
X422600Y457800D01*
X398900Y457600D02*
X396900Y461600D01*
X400900D01*
X398900Y457600D01*
X375300Y457500D02*
X373300Y461500D01*
X377300D01*
X375300Y457500D01*
X351800Y457700D02*
X349800Y461700D01*
X353800D01*
X351800Y457700D01*
X328100Y457500D02*
X326100Y461500D01*
X330100D01*
X328100Y457500D01*
X304600Y457600D02*
X302600Y461600D01*
X306600D01*
X304600Y457600D01*
X280700D02*
X278700Y461600D01*
X282700D01*
X280700Y457600D01*
X257000Y457800D02*
X255000Y461800D01*
X259000D01*
X257000Y457800D01*
X588600D02*
X586600Y461800D01*
X590600D01*
X588600Y457800D01*
X565200Y457600D02*
X563200Y461600D01*
X567200D01*
X565200Y457600D01*
X541500Y457400D02*
X539500Y461400D01*
X543500D01*
X541500Y457400D01*
X517800Y457900D02*
X515800Y461900D01*
X519800D01*
X517800Y457900D01*
X494100Y457500D02*
X492100Y461500D01*
X496100D01*
X494100Y457500D01*
X470400Y457700D02*
X468400Y461700D01*
X472400D01*
X470400Y457700D01*
X51300Y372000D02*
X49300Y376000D01*
X53300D01*
X51300Y372000D01*
X69800Y372100D02*
X67800Y376100D01*
X71800D01*
X69800Y372100D01*
X85600Y372000D02*
X83600Y376000D01*
X87600D01*
X85600Y372000D01*
X118000Y368700D02*
X116000Y372700D01*
X120000D01*
X118000Y368700D01*
X130400Y363800D02*
X128400Y367800D01*
X132400D01*
X130400Y363800D01*
X136958Y363921D02*
X134958Y367921D01*
X138958D01*
X136958Y363921D01*
X100500Y367900D02*
X98500Y371900D01*
X102500D01*
X100500Y367900D01*
X80791Y356671D02*
X78791Y360671D01*
X82791D01*
X80791Y356671D01*
X39400Y356600D02*
X37400Y360600D01*
X41400D01*
X39400Y356600D01*
X69500Y351300D02*
X67500Y355300D01*
X71500D01*
X69500Y351300D01*
X60083Y335088D02*
X58083Y339088D01*
X62083D01*
X60083Y335088D01*
X66874Y334546D02*
X64874Y338546D01*
X68874D01*
X66874Y334546D01*
X107100Y342100D02*
X105100Y346100D01*
X109100D01*
X107100Y342100D01*
X114300Y341500D02*
X112300Y345500D01*
X116300D01*
X114300Y341500D01*
X121000Y343600D02*
X119000Y347600D01*
X123000D01*
X121000Y343600D01*
X164000Y341500D02*
X162000Y345500D01*
X166000D01*
X164000Y341500D01*
X172800Y342500D02*
X170800Y346500D01*
X174800D01*
X172800Y342500D01*
X158500Y336800D02*
X156500Y340800D01*
X160500D01*
X158500Y336800D01*
X146200Y331300D02*
X144200Y335300D01*
X148200D01*
X146200Y331300D01*
X46700Y334800D02*
X44700Y338800D01*
X48700D01*
X46700Y334800D01*
X47800Y327500D02*
X45800Y331500D01*
X49800D01*
X47800Y327500D01*
X56400Y327100D02*
X54400Y331100D01*
X58400D01*
X56400Y327100D01*
X64600Y327300D02*
X62600Y331300D01*
X66600D01*
X64600Y327300D01*
X72700Y327200D02*
X70700Y331200D01*
X74700D01*
X72700Y327200D01*
X81400Y326900D02*
X79400Y330900D01*
X83400D01*
X81400Y326900D01*
X87800Y330800D02*
X85800Y334800D01*
X89800D01*
X87800Y330800D01*
X47800Y322600D02*
X45800Y326600D01*
X49800D01*
X47800Y322600D01*
X56200Y322500D02*
X54200Y326500D01*
X58200D01*
X56200Y322500D01*
X52100Y315600D02*
X50100Y319600D01*
X54100D01*
X52100Y315600D01*
X60600Y315700D02*
X58600Y319700D01*
X62600D01*
X60600Y315700D01*
X68900Y316000D02*
X66900Y320000D01*
X70900D01*
X68900Y316000D01*
X77000Y315700D02*
X75000Y319700D01*
X79000D01*
X77000Y315700D01*
X101400Y321600D02*
X99400Y325600D01*
X103400D01*
X101400Y321600D01*
X47700Y317900D02*
X45700Y321900D01*
X49700D01*
X47700Y317900D01*
X47600Y313100D02*
X45600Y317100D01*
X49600D01*
X47600Y313100D01*
X47700Y308400D02*
X45700Y312400D01*
X49700D01*
X47700Y308400D01*
Y304000D02*
X45700Y308000D01*
X49700D01*
X47700Y304000D01*
X46700Y297900D02*
X44700Y301900D01*
X48700D01*
X46700Y297900D01*
X56200Y303900D02*
X54200Y307900D01*
X58200D01*
X56200Y303900D01*
Y308300D02*
X54200Y312300D01*
X58200D01*
X56200Y308300D01*
X56400Y313000D02*
X54400Y317000D01*
X58400D01*
X56400Y313000D01*
Y318300D02*
X54400Y322300D01*
X58400D01*
X56400Y318300D01*
X64900Y322600D02*
X62900Y326600D01*
X66900D01*
X64900Y322600D01*
X64600Y317800D02*
X62600Y321800D01*
X66600D01*
X64600Y317800D01*
X64400Y313300D02*
X62400Y317300D01*
X66400D01*
X64400Y313300D01*
X64700Y308300D02*
X62700Y312300D01*
X66700D01*
X64700Y308300D01*
X64600Y304100D02*
X62600Y308100D01*
X66600D01*
X64600Y304100D01*
X72700Y304200D02*
X70700Y308200D01*
X74700D01*
X72700Y304200D01*
X72600Y308400D02*
X70600Y312400D01*
X74600D01*
X72600Y308400D01*
X72700Y313100D02*
X70700Y317100D01*
X74700D01*
X72700Y313100D01*
X73000Y317800D02*
X71000Y321800D01*
X75000D01*
X73000Y317800D01*
Y322400D02*
X71000Y326400D01*
X75000D01*
X73000Y322400D01*
X81200Y322500D02*
X79200Y326500D01*
X83200D01*
X81200Y322500D01*
X81500Y317900D02*
X79500Y321900D01*
X83500D01*
X81500Y317900D01*
Y308400D02*
X79500Y312400D01*
X83500D01*
X81500Y308400D01*
X81200Y304200D02*
X79200Y308200D01*
X83200D01*
X81200Y304200D01*
X53400Y297500D02*
X51400Y301500D01*
X55400D01*
X53400Y297500D01*
X62000D02*
X60000Y301500D01*
X64000D01*
X62000Y297500D01*
X70900D02*
X68900Y301500D01*
X72900D01*
X70900Y297500D01*
X77100Y297300D02*
X75100Y301300D01*
X79100D01*
X77100Y297300D01*
X83200D02*
X81200Y301300D01*
X85200D01*
X83200Y297300D01*
X45000Y281100D02*
X43000Y285100D01*
X47000D01*
X45000Y281100D01*
X47100Y271800D02*
X45100Y275800D01*
X49100D01*
X47100Y271800D01*
X51900Y275300D02*
X49900Y279300D01*
X53900D01*
X51900Y275300D01*
X58000Y274800D02*
X56000Y278800D01*
X60000D01*
X58000Y274800D01*
X79200Y280700D02*
X77200Y284700D01*
X81200D01*
X79200Y280700D01*
X47400Y225300D02*
X45400Y229300D01*
X49400D01*
X47400Y225300D01*
Y229700D02*
X45400Y233700D01*
X49400D01*
X47400Y229700D01*
X47300Y234400D02*
X45300Y238400D01*
X49300D01*
X47300Y234400D01*
X47400Y239200D02*
X45400Y243200D01*
X49400D01*
X47400Y239200D01*
X47500Y243900D02*
X45500Y247900D01*
X49500D01*
X47500Y243900D01*
Y248800D02*
X45500Y252800D01*
X49500D01*
X47500Y248800D01*
X56000Y225200D02*
X54000Y229200D01*
X58000D01*
X56000Y225200D01*
Y229600D02*
X54000Y233600D01*
X58000D01*
X56000Y229600D01*
X55900Y234300D02*
X53900Y238300D01*
X57900D01*
X55900Y234300D01*
X56000Y239100D02*
X54000Y243100D01*
X58000D01*
X56000Y239100D01*
X56100Y243800D02*
X54100Y247800D01*
X58100D01*
X56100Y243800D01*
Y248700D02*
X54100Y252700D01*
X58100D01*
X56100Y248700D01*
X64400Y225100D02*
X62400Y229100D01*
X66400D01*
X64400Y225100D01*
Y229500D02*
X62400Y233500D01*
X66400D01*
X64400Y229500D01*
X64300Y234200D02*
X62300Y238200D01*
X66300D01*
X64300Y234200D01*
X64400Y239000D02*
X62400Y243000D01*
X66400D01*
X64400Y239000D01*
X64500Y243700D02*
X62500Y247700D01*
X66500D01*
X64500Y243700D01*
Y248600D02*
X62500Y252600D01*
X66500D01*
X64500Y248600D01*
X72500Y225200D02*
X70500Y229200D01*
X74500D01*
X72500Y225200D01*
Y229600D02*
X70500Y233600D01*
X74500D01*
X72500Y229600D01*
X72400Y234300D02*
X70400Y238300D01*
X74400D01*
X72400Y234300D01*
X72500Y239100D02*
X70500Y243100D01*
X74500D01*
X72500Y239100D01*
X72600Y243800D02*
X70600Y247800D01*
X74600D01*
X72600Y243800D01*
Y248700D02*
X70600Y252700D01*
X74600D01*
X72600Y248700D01*
X80900Y225300D02*
X78900Y229300D01*
X82900D01*
X80900Y225300D01*
Y229700D02*
X78900Y233700D01*
X82900D01*
X80900Y229700D01*
X80800Y234400D02*
X78800Y238400D01*
X82800D01*
X80800Y234400D01*
X80900Y239200D02*
X78900Y243200D01*
X82900D01*
X80900Y239200D01*
X81000Y243900D02*
X79000Y247900D01*
X83000D01*
X81000Y243900D01*
Y248800D02*
X79000Y252800D01*
X83000D01*
X81000Y248800D01*
X45416Y254838D02*
X43416Y258838D01*
X47416D01*
X45416Y254838D01*
X44500Y218800D02*
X42500Y222800D01*
X46500D01*
X44500Y218800D01*
X52600Y218600D02*
X50600Y222600D01*
X54600D01*
X52600Y218600D01*
X71600Y218800D02*
X69600Y222800D01*
X73600D01*
X71600Y218800D01*
X158700Y318300D02*
X156700Y322300D01*
X160700D01*
X158700Y318300D01*
X147916Y318338D02*
X145916Y322338D01*
X149916D01*
X147916Y318338D01*
X148041Y309588D02*
X146041Y313588D01*
X150041D01*
X148041Y309588D01*
X132291Y295713D02*
X130291Y299713D01*
X134291D01*
X132291Y295713D01*
X147874Y301005D02*
X145874Y305005D01*
X149874D01*
X147874Y301005D01*
X162166Y298755D02*
X160166Y302755D01*
X164166D01*
X162166Y298755D01*
X149200Y289600D02*
X147200Y293600D01*
X151200D01*
X149200Y289600D01*
X161666Y292588D02*
X159666Y296588D01*
X163666D01*
X161666Y292588D01*
X110400Y295200D02*
X108400Y299200D01*
X112400D01*
X110400Y295200D01*
X112700Y286600D02*
X110700Y290600D01*
X114700D01*
X112700Y286600D01*
X101100Y275000D02*
X99100Y279000D01*
X103100D01*
X101100Y275000D01*
X112800D02*
X110800Y279000D01*
X114800D01*
X112800Y275000D01*
X109400Y256600D02*
X107400Y260600D01*
X111400D01*
X109400Y256600D01*
X102900Y256000D02*
X100900Y260000D01*
X104900D01*
X102900Y256000D01*
X99600Y245700D02*
X97600Y249700D01*
X101600D01*
X99600Y245700D01*
X99400Y266800D02*
X97400Y270800D01*
X101400D01*
X99400Y266800D01*
X108100Y245500D02*
X106100Y249500D01*
X110100D01*
X108100Y245500D01*
X127400Y254600D02*
X125400Y258600D01*
X129400D01*
X127400Y254600D01*
X126300Y263100D02*
X124300Y267100D01*
X128300D01*
X126300Y263100D01*
X143800Y257600D02*
X141800Y261600D01*
X145800D01*
X143800Y257600D01*
X148500Y280700D02*
X146500Y284700D01*
X150500D01*
X148500Y280700D01*
X141500Y273900D02*
X139500Y277900D01*
X143500D01*
X141500Y273900D01*
X163200Y274500D02*
X161200Y278500D01*
X165200D01*
X163200Y274500D01*
X172100Y277000D02*
X170100Y281000D01*
X174100D01*
X172100Y277000D01*
X113900Y240600D02*
X111900Y244600D01*
X115900D01*
X113900Y240600D01*
X143624Y246588D02*
X141624Y250588D01*
X145624D01*
X143624Y246588D01*
X155124Y250505D02*
X153124Y254505D01*
X157124D01*
X155124Y250505D01*
X161583Y250588D02*
X159583Y254588D01*
X163583D01*
X161583Y250588D01*
X167874Y250463D02*
X165874Y254463D01*
X169874D01*
X167874Y250463D01*
X174791Y250421D02*
X172791Y254421D01*
X176791D01*
X174791Y250421D01*
X182083Y252380D02*
X180083Y256380D01*
X184083D01*
X182083Y252380D01*
X179999Y246796D02*
X177999Y250796D01*
X181999D01*
X179999Y246796D01*
X180916Y240296D02*
X178916Y244296D01*
X182916D01*
X180916Y240296D01*
X173800Y241100D02*
X171800Y245100D01*
X175800D01*
X173800Y241100D01*
X187791Y246046D02*
X185791Y250046D01*
X189791D01*
X187791Y246046D01*
X194249Y246005D02*
X192249Y250005D01*
X196249D01*
X194249Y246005D01*
X195083Y252463D02*
X193083Y256463D01*
X197083D01*
X195083Y252463D01*
X199666Y243005D02*
X197666Y247005D01*
X201666D01*
X199666Y243005D01*
X204624Y246421D02*
X202624Y250421D01*
X206624D01*
X204624Y246421D01*
X206624Y252088D02*
X204624Y256088D01*
X208624D01*
X206624Y252088D01*
X214499Y251796D02*
X212499Y255796D01*
X216499D01*
X214499Y251796D01*
X211708Y246630D02*
X209708Y250630D01*
X213708D01*
X211708Y246630D01*
X219041Y245755D02*
X217041Y249755D01*
X221041D01*
X219041Y245755D01*
X223124Y252088D02*
X221124Y256088D01*
X225124D01*
X223124Y252088D01*
X229249Y252046D02*
X227249Y256046D01*
X231249D01*
X229249Y252046D01*
X235208D02*
X233208Y256046D01*
X237208D01*
X235208Y252046D01*
X243958Y252005D02*
X241958Y256005D01*
X245958D01*
X243958Y252005D01*
X253958Y250713D02*
X251958Y254713D01*
X255958D01*
X253958Y250713D01*
X227000Y244200D02*
X225000Y248200D01*
X229000D01*
X227000Y244200D01*
X144916Y240713D02*
X142916Y244713D01*
X146916D01*
X144916Y240713D01*
X150333Y236588D02*
X148333Y240588D01*
X152333D01*
X150333Y236588D01*
X143666Y231213D02*
X141666Y235213D01*
X145666D01*
X143666Y231213D01*
X150333Y230880D02*
X148333Y234880D01*
X152333D01*
X150333Y230880D01*
X144999Y223880D02*
X142999Y227880D01*
X146999D01*
X144999Y223880D01*
X152791Y225380D02*
X150791Y229380D01*
X154791D01*
X152791Y225380D01*
Y219255D02*
X150791Y223255D01*
X154791D01*
X152791Y219255D01*
X99800Y227000D02*
X97800Y231000D01*
X101800D01*
X99800Y227000D01*
X99300Y211900D02*
X97300Y215900D01*
X101300D01*
X99300Y211900D01*
X116200Y225200D02*
X114200Y229200D01*
X118200D01*
X116200Y225200D01*
X115416Y216900D02*
X113416Y220901D01*
X117416D01*
X115416Y216900D01*
X107000Y209400D02*
X105000Y213400D01*
X109000D01*
X107000Y209400D01*
X116895Y210796D02*
X114895Y214796D01*
X118895D01*
X116895Y210796D01*
X123583Y202921D02*
X121583Y206921D01*
X125583D01*
X123583Y202921D01*
X116100Y200200D02*
X114100Y204200D01*
X118100D01*
X116100Y200200D01*
X96200Y203500D02*
X94200Y207500D01*
X98200D01*
X96200Y203500D01*
X57900Y202800D02*
X55900Y206800D01*
X59900D01*
X57900Y202800D01*
X66700Y202900D02*
X64700Y206900D01*
X68700D01*
X66700Y202900D01*
X75500Y202800D02*
X73500Y206800D01*
X77500D01*
X75500Y202800D01*
X45200Y194800D02*
X43200Y198800D01*
X47200D01*
X45200Y194800D01*
X57900Y194100D02*
X55900Y198100D01*
X59900D01*
X57900Y194100D01*
X89800Y197000D02*
X87800Y201000D01*
X91800D01*
X89800Y197000D01*
X151583Y210838D02*
X149583Y214838D01*
X153583D01*
X151583Y210838D01*
X145041Y210880D02*
X143041Y214880D01*
X147041D01*
X145041Y210880D01*
X144333Y202380D02*
X142333Y206380D01*
X146333D01*
X144333Y202380D01*
X150416Y202213D02*
X148416Y206213D01*
X152416D01*
X150416Y202213D01*
X158200Y202200D02*
X156200Y206200D01*
X160200D01*
X158200Y202200D01*
X164000Y214900D02*
X162000Y218900D01*
X166000D01*
X164000Y214900D01*
X75700Y187800D02*
X73700Y191800D01*
X77700D01*
X75700Y187800D01*
X89000Y187200D02*
X87000Y191200D01*
X91000D01*
X89000Y187200D01*
X99300Y179600D02*
X97300Y183600D01*
X101300D01*
X99300Y179600D01*
X118541Y182588D02*
X116541Y186588D01*
X120541D01*
X118541Y182588D01*
X144166Y189088D02*
X142166Y193088D01*
X146166D01*
X144166Y189088D01*
X150624Y189130D02*
X148624Y193130D01*
X152624D01*
X150624Y189130D01*
X158500Y175500D02*
X156500Y179500D01*
X160500D01*
X158500Y175500D01*
X144800Y176200D02*
X142800Y180200D01*
X146800D01*
X144800Y176200D01*
X116458Y169796D02*
X114458Y173796D01*
X118458D01*
X116458Y169796D01*
X122749Y171588D02*
X120749Y175588D01*
X124749D01*
X122749Y171588D01*
X111416Y166088D02*
X109416Y170088D01*
X113416D01*
X111416Y166088D01*
X116458Y160880D02*
X114458Y164880D01*
X118458D01*
X116458Y160880D01*
X122666Y158005D02*
X120666Y162005D01*
X124666D01*
X122666Y158005D01*
X35300Y187000D02*
X33300Y191000D01*
X37300D01*
X35300Y187000D01*
X32500Y149200D02*
X30500Y153200D01*
X34500D01*
X32500Y149200D01*
X44600Y161200D02*
X42600Y165200D01*
X46600D01*
X44600Y161200D01*
X43800Y147000D02*
X41800Y151000D01*
X45800D01*
X43800Y147000D01*
X61000Y152000D02*
X59000Y156000D01*
X63000D01*
X61000Y152000D01*
X65100Y156700D02*
X63100Y160700D01*
X67100D01*
X65100Y156700D01*
X65700Y147800D02*
X63700Y151800D01*
X67700D01*
X65700Y147800D01*
X72300Y147300D02*
X70300Y151300D01*
X74300D01*
X72300Y147300D01*
X74500Y154900D02*
X72500Y158900D01*
X76500D01*
X74500Y154900D01*
X80300Y152800D02*
X78300Y156800D01*
X82300D01*
X80300Y152800D01*
X83900Y148000D02*
X81900Y152000D01*
X85900D01*
X83900Y148000D01*
X94000Y153000D02*
X92000Y157000D01*
X96000D01*
X94000Y153000D01*
X73900Y170800D02*
X71900Y174800D01*
X75900D01*
X73900Y170800D01*
X81000Y171000D02*
X79000Y175000D01*
X83000D01*
X81000Y171000D01*
X94600Y172800D02*
X92600Y176800D01*
X96600D01*
X94600Y172800D01*
X114500Y146900D02*
X112500Y150900D01*
X116500D01*
X114500Y146900D01*
X128900D02*
X126900Y150900D01*
X130900D01*
X128900Y146900D01*
X135300Y147300D02*
X133300Y151300D01*
X137300D01*
X135300Y147300D01*
X154833Y162296D02*
X152833Y166296D01*
X156833D01*
X154833Y162296D01*
X150708Y157963D02*
X148708Y161963D01*
X152708D01*
X150708Y157963D01*
X146900Y152100D02*
X144900Y156100D01*
X148900D01*
X146900Y152100D01*
X164166Y162546D02*
X162166Y166546D01*
X166166D01*
X164166Y162546D01*
X158958Y158130D02*
X156958Y162130D01*
X160958D01*
X158958Y158130D01*
X168249Y158005D02*
X166249Y162005D01*
X170249D01*
X168249Y158005D01*
X177400Y170400D02*
X175400Y174400D01*
X179400D01*
X177400Y170400D01*
X192000Y170000D02*
X190000Y174000D01*
X194000D01*
X192000Y170000D01*
X166500Y178600D02*
X164500Y182600D01*
X168500D01*
X166500Y178600D01*
X171200Y183300D02*
X169200Y187300D01*
X173200D01*
X171200Y183300D01*
X177200Y183500D02*
X175200Y187500D01*
X179200D01*
X177200Y183500D01*
X183100D02*
X181100Y187500D01*
X185100D01*
X183100Y183500D01*
X159400Y130500D02*
X157400Y134500D01*
X161400D01*
X159400Y130500D01*
X165333Y132255D02*
X163333Y136255D01*
X167333D01*
X165333Y132255D01*
X171541Y130171D02*
X169541Y134171D01*
X173541D01*
X171541Y130171D01*
X182374Y130796D02*
X180374Y134796D01*
X184374D01*
X182374Y130796D01*
X170749Y152380D02*
X168749Y156380D01*
X172749D01*
X170749Y152380D01*
X174083Y157296D02*
X172083Y161296D01*
X176083D01*
X174083Y157296D01*
X181999Y159380D02*
X179999Y163380D01*
X183999D01*
X181999Y159380D01*
X177749Y152796D02*
X175749Y156796D01*
X179749D01*
X177749Y152796D01*
X46100Y131000D02*
X44100Y135000D01*
X48100D01*
X46100Y131000D01*
X32200Y113300D02*
X30200Y117300D01*
X34200D01*
X32200Y113300D01*
Y101300D02*
X30200Y105300D01*
X34200D01*
X32200Y101300D01*
X32100Y89700D02*
X30100Y93700D01*
X34100D01*
X32100Y89700D01*
X32000Y77800D02*
X30000Y81800D01*
X34000D01*
X32000Y77800D01*
X31700Y60500D02*
X29700Y64500D01*
X33700D01*
X31700Y60500D01*
X34500Y44000D02*
X32500Y48000D01*
X36500D01*
X34500Y44000D01*
X47600Y54500D02*
X45600Y58500D01*
X49600D01*
X47600Y54500D01*
X53700Y66100D02*
X51700Y70100D01*
X55700D01*
X53700Y66100D01*
X63700Y40900D02*
X61700Y44900D01*
X65700D01*
X63700Y40900D01*
X111000Y27500D02*
X109000Y31500D01*
X113000D01*
X111000Y27500D01*
X140200Y27800D02*
X138200Y31800D01*
X142200D01*
X140200Y27800D01*
X171000Y27700D02*
X169000Y31700D01*
X173000D01*
X171000Y27700D01*
X182000Y43900D02*
X180000Y47900D01*
X184000D01*
X182000Y43900D01*
X173300Y47200D02*
X171300Y51200D01*
X175300D01*
X173300Y47200D01*
X180800Y52900D02*
X178800Y56900D01*
X182800D01*
X180800Y52900D01*
X158958Y52005D02*
X156958Y56005D01*
X160958D01*
X158958Y52005D01*
X148958D02*
X146958Y56005D01*
X150958D01*
X148958Y52005D01*
X109100Y52200D02*
X107100Y56200D01*
X111100D01*
X109100Y52200D01*
X119100Y52000D02*
X117100Y56000D01*
X121100D01*
X119100Y52000D01*
X129100Y52100D02*
X127100Y56100D01*
X131100D01*
X129100Y52100D01*
X139100Y52000D02*
X137100Y56000D01*
X141100D01*
X139100Y52000D01*
X182500Y64400D02*
X180500Y68400D01*
X184500D01*
X182500Y64400D01*
X160874Y72380D02*
X158874Y76380D01*
X162874D01*
X160874Y72380D01*
X154249Y67213D02*
X152249Y71213D01*
X156249D01*
X154249Y67213D01*
X143916Y67380D02*
X141916Y71380D01*
X145916D01*
X143916Y67380D01*
X134200Y67300D02*
X132200Y71300D01*
X136200D01*
X134200Y67300D01*
X114100Y67400D02*
X112100Y71400D01*
X116100D01*
X114100Y67400D01*
X124400D02*
X122400Y71400D01*
X126400D01*
X124400Y67400D01*
X106200Y67200D02*
X104200Y71200D01*
X108200D01*
X106200Y67200D01*
X99000Y67100D02*
X97000Y71100D01*
X101000D01*
X99000Y67100D01*
X68900Y67300D02*
X66900Y71300D01*
X70900D01*
X68900Y67300D01*
X78700Y67200D02*
X76700Y71200D01*
X80700D01*
X78700Y67200D01*
X89300Y67400D02*
X87300Y71400D01*
X91300D01*
X89300Y67400D01*
X93900Y74500D02*
X91900Y78500D01*
X95900D01*
X93900Y74500D01*
X84000D02*
X82000Y78500D01*
X86000D01*
X84000Y74500D01*
X73700Y74400D02*
X71700Y78400D01*
X75700D01*
X73700Y74400D01*
X63700Y74500D02*
X61700Y78500D01*
X65700D01*
X63700Y74500D01*
X63200Y82700D02*
X61200Y86700D01*
X65200D01*
X63200Y82700D01*
X73500Y91200D02*
X71500Y95200D01*
X75500D01*
X73500Y91200D01*
X83400Y84600D02*
X81400Y88600D01*
X85400D01*
X83400Y84600D01*
X101500Y88100D02*
X99500Y92100D01*
X103500D01*
X101500Y88100D01*
X125700Y88500D02*
X123700Y92500D01*
X127700D01*
X125700Y88500D01*
X157458Y85880D02*
X155458Y89880D01*
X159458D01*
X157458Y85880D01*
X161666Y81671D02*
X159666Y85671D01*
X163666D01*
X161666Y81671D01*
X148000Y87500D02*
X146000Y91500D01*
X150000D01*
X148000Y87500D01*
X157700Y96500D02*
X155700Y100500D01*
X159700D01*
X157700Y96500D01*
X182800Y85500D02*
X180800Y89500D01*
X184800D01*
X182800Y85500D01*
X192000Y88200D02*
X190000Y92200D01*
X194000D01*
X192000Y88200D01*
X63800Y113200D02*
X61800Y117200D01*
X65800D01*
X63800Y113200D01*
X74000D02*
X72000Y117200D01*
X76000D01*
X74000Y113200D01*
X83900Y113300D02*
X81900Y117300D01*
X85900D01*
X83900Y113300D01*
X94100Y113200D02*
X92100Y117200D01*
X96100D01*
X94100Y113200D01*
X99000Y106100D02*
X97000Y110100D01*
X101000D01*
X99000Y106100D01*
X88900D02*
X86900Y110100D01*
X90900D01*
X88900Y106100D01*
X69000Y106000D02*
X67000Y110000D01*
X71000D01*
X69000Y106000D01*
X78900Y106100D02*
X76900Y110100D01*
X80900D01*
X78900Y106100D01*
X114100Y112600D02*
X112100Y116600D01*
X116100D01*
X114100Y112600D01*
X124083Y112671D02*
X122083Y116671D01*
X126083D01*
X124083Y112671D01*
X134124Y112588D02*
X132124Y116588D01*
X136124D01*
X134124Y112588D01*
X143999D02*
X141999Y116588D01*
X145999D01*
X143999Y112588D01*
X119000Y105600D02*
X117000Y109600D01*
X121000D01*
X119000Y105600D01*
X129100D02*
X127100Y109600D01*
X131100D01*
X129100Y105600D01*
X139200D02*
X137200Y109600D01*
X141200D01*
X139200Y105600D01*
X149124Y105505D02*
X147124Y109505D01*
X151124D01*
X149124Y105505D01*
X156041Y110255D02*
X154041Y114255D01*
X158041D01*
X156041Y110255D01*
X164708Y110213D02*
X162708Y114213D01*
X166708D01*
X164708Y110213D01*
X186749Y116046D02*
X184749Y120046D01*
X188749D01*
X186749Y116046D01*
X195458Y125005D02*
X193458Y129005D01*
X197458D01*
X195458Y125005D01*
X203583Y132255D02*
X201583Y136255D01*
X205583D01*
X203583Y132255D01*
X116500Y45800D02*
X114500Y49800D01*
X118500D01*
X116500Y45800D01*
X71500Y127300D02*
X69500Y131300D01*
X73500D01*
X71500Y127300D01*
X81800Y217500D02*
X79800Y221500D01*
X83800D01*
X81800Y217500D01*
X124500Y286600D02*
X122500Y290600D01*
X126500D01*
X124500Y286600D01*
X137624Y300921D02*
X135624Y304921D01*
X139624D01*
X137624Y300921D01*
X220500Y445100D02*
X218500Y449100D01*
X222500D01*
X220500Y445100D01*
X247500Y444500D02*
X245500Y448500D01*
X249500D01*
X247500Y444500D01*
X179500Y378000D02*
X177500Y382000D01*
X181500D01*
X179500Y378000D01*
X260600Y395000D02*
X258600Y399000D01*
X262600D01*
X260600Y395000D01*
X304700Y386600D02*
X302700Y390600D01*
X306700D01*
X304700Y386600D01*
X280300Y386700D02*
X278300Y390700D01*
X282300D01*
X280300Y386700D01*
X256900Y370900D02*
X254900Y374900D01*
X258900D01*
X256900Y370900D01*
X217000Y371600D02*
X215000Y375600D01*
X219000D01*
X217000Y371600D01*
X191374Y371880D02*
X189374Y375880D01*
X193374D01*
X191374Y371880D01*
X196999Y369213D02*
X194999Y373213D01*
X198999D01*
X196999Y369213D01*
X220541Y365255D02*
X218541Y369255D01*
X222541D01*
X220541Y365255D01*
X226916Y365713D02*
X224916Y369713D01*
X228916D01*
X226916Y365713D01*
X236300Y362500D02*
X234300Y366500D01*
X238300D01*
X236300Y362500D01*
X215708Y361505D02*
X213708Y365505D01*
X217708D01*
X215708Y361505D01*
X204124Y360755D02*
X202124Y364755D01*
X206124D01*
X204124Y360755D01*
X197541Y360713D02*
X195541Y364713D01*
X199541D01*
X197541Y360713D01*
X191499Y360880D02*
X189499Y364880D01*
X193499D01*
X191499Y360880D01*
X182999Y359088D02*
X180999Y363088D01*
X184999D01*
X182999Y359088D01*
X184124Y352338D02*
X182124Y356338D01*
X186124D01*
X184124Y352338D01*
X189208Y341463D02*
X187208Y345463D01*
X191208D01*
X189208Y341463D01*
X195333Y342546D02*
X193333Y346546D01*
X197333D01*
X195333Y342546D01*
X204083Y342338D02*
X202083Y346338D01*
X206083D01*
X204083Y342338D01*
X214166Y340755D02*
X212166Y344755D01*
X216166D01*
X214166Y340755D01*
X226083Y337421D02*
X224083Y341421D01*
X228083D01*
X226083Y337421D01*
X241400Y338300D02*
X239400Y342300D01*
X243400D01*
X241400Y338300D01*
X246200Y334700D02*
X244200Y338700D01*
X248200D01*
X246200Y334700D01*
X252041Y331588D02*
X250041Y335588D01*
X254041D01*
X252041Y331588D01*
X257800Y337300D02*
X255800Y341300D01*
X259800D01*
X257800Y337300D01*
X241200Y324300D02*
X239200Y328300D01*
X243200D01*
X241200Y324300D01*
X224500Y322000D02*
X222500Y326000D01*
X226500D01*
X224500Y322000D01*
X199833Y330463D02*
X197833Y334463D01*
X201833D01*
X199833Y330463D01*
X180200Y332900D02*
X178200Y336900D01*
X182200D01*
X180200Y332900D01*
X180600Y326800D02*
X178600Y330800D01*
X182600D01*
X180600Y326800D01*
X180500Y320500D02*
X178500Y324500D01*
X182500D01*
X180500Y320500D01*
X199500Y321800D02*
X197500Y325800D01*
X201500D01*
X199500Y321800D01*
X256000Y363000D02*
X254000Y367000D01*
X258000D01*
X256000Y363000D01*
X279874Y363796D02*
X277874Y367796D01*
X281874D01*
X279874Y363796D01*
X267900Y360800D02*
X265900Y364800D01*
X269900D01*
X267900Y360800D01*
X258500Y355000D02*
X256500Y359000D01*
X260500D01*
X258500Y355000D01*
X279499Y352671D02*
X277499Y356671D01*
X281499D01*
X279499Y352671D01*
X298916Y363546D02*
X296916Y367546D01*
X300916D01*
X298916Y363546D01*
X297458Y352380D02*
X295458Y356380D01*
X299458D01*
X297458Y352380D01*
X308958Y352421D02*
X306958Y356421D01*
X310958D01*
X308958Y352421D01*
X326249Y365171D02*
X324249Y369171D01*
X328249D01*
X326249Y365171D01*
X326249Y347796D02*
X324249Y351796D01*
X328249D01*
X326249Y347796D01*
X348999Y368880D02*
X346999Y372880D01*
X350999D01*
X348999Y368880D01*
X349874Y363421D02*
X347874Y367421D01*
X351874D01*
X349874Y363421D01*
X363291Y361463D02*
X361291Y365463D01*
X365291D01*
X363291Y361463D01*
X232900Y351200D02*
X230900Y355200D01*
X234900D01*
X232900Y351200D01*
X326041Y337255D02*
X324041Y341255D01*
X328041D01*
X326041Y337255D01*
X309104Y342255D02*
X307104Y346255D01*
X311104D01*
X309104Y342255D01*
X297583Y342421D02*
X295583Y346421D01*
X299583D01*
X297583Y342421D01*
X301541Y331963D02*
X299541Y335963D01*
X303541D01*
X301541Y331963D01*
X310333Y331296D02*
X308333Y335296D01*
X312333D01*
X310333Y331296D01*
X319624D02*
X317624Y335296D01*
X321624D01*
X319624Y331296D01*
X310541Y319421D02*
X308541Y323421D01*
X312541D01*
X310541Y319421D01*
X319666Y319296D02*
X317666Y323296D01*
X321666D01*
X319666Y319296D01*
X326624Y319338D02*
X324624Y323338D01*
X328624D01*
X326624Y319338D01*
X272208Y335046D02*
X270208Y339046D01*
X274208D01*
X272208Y335046D01*
X279583Y336255D02*
X277583Y340255D01*
X281583D01*
X279583Y336255D01*
X279666Y342630D02*
X277666Y346630D01*
X281666D01*
X279666Y342630D01*
X275333Y330005D02*
X273333Y334005D01*
X277333D01*
X275333Y330005D01*
X256500Y318100D02*
X254500Y322100D01*
X258500D01*
X256500Y318100D01*
X221458Y313338D02*
X219458Y317338D01*
X223458D01*
X221458Y313338D01*
X241500Y314800D02*
X239500Y318800D01*
X243500D01*
X241500Y314800D01*
X248000D02*
X246000Y318800D01*
X250000D01*
X248000Y314800D01*
X241583Y306213D02*
X239583Y310213D01*
X243583D01*
X241583Y306213D01*
X227083Y305588D02*
X225083Y309588D01*
X229083D01*
X227083Y305588D01*
X176500Y312900D02*
X174500Y316900D01*
X178500D01*
X176500Y312900D01*
X199300Y313000D02*
X197300Y317000D01*
X201300D01*
X199300Y313000D01*
X180500Y305500D02*
X178500Y309500D01*
X182500D01*
X180500Y305500D01*
X194500Y305600D02*
X192500Y309600D01*
X196500D01*
X194500Y305600D01*
X199500Y301200D02*
X197500Y305200D01*
X201500D01*
X199500Y301200D01*
X193000Y287800D02*
X191000Y291800D01*
X195000D01*
X193000Y287800D01*
X206874Y285005D02*
X204874Y289005D01*
X208874D01*
X206874Y285005D01*
X199541Y285421D02*
X197541Y289421D01*
X201541D01*
X199541Y285421D01*
X226800Y277000D02*
X224800Y281000D01*
X228800D01*
X226800Y277000D01*
X186333Y280380D02*
X184333Y284380D01*
X188333D01*
X186333Y280380D01*
X198124Y274796D02*
X196124Y278796D01*
X200124D01*
X198124Y274796D01*
X204416Y274005D02*
X202416Y278005D01*
X206416D01*
X204416Y274005D01*
X180458Y272213D02*
X178458Y276213D01*
X182458D01*
X180458Y272213D01*
X267208Y308963D02*
X265208Y312963D01*
X269208D01*
X267208Y308963D01*
X267166Y300255D02*
X265166Y304255D01*
X269166D01*
X267166Y300255D01*
X284666Y305588D02*
X282666Y309588D01*
X286666D01*
X284666Y305588D01*
X253124Y292338D02*
X251124Y296338D01*
X255124D01*
X253124Y292338D01*
X315749Y306171D02*
X313749Y310171D01*
X317749D01*
X315749Y306171D01*
X297083Y306005D02*
X295083Y310005D01*
X299083D01*
X297083Y306005D01*
X320833Y287796D02*
X318833Y291796D01*
X322833D01*
X320833Y287796D01*
X302600Y287500D02*
X300600Y291500D01*
X304600D01*
X302600Y287500D01*
X289400Y285400D02*
X287400Y289400D01*
X291400D01*
X289400Y285400D01*
X247999Y271213D02*
X245999Y275213D01*
X249999D01*
X247999Y271213D01*
X256041Y271255D02*
X254041Y275255D01*
X258041D01*
X256041Y271255D01*
X262208Y273296D02*
X260208Y277296D01*
X264208D01*
X262208Y273296D01*
X268583Y273213D02*
X266583Y277213D01*
X270583D01*
X268583Y273213D01*
X282291Y279130D02*
X280291Y283130D01*
X284291D01*
X282291Y279130D01*
X289200Y276800D02*
X287200Y280800D01*
X291200D01*
X289200Y276800D01*
X295300Y276500D02*
X293300Y280500D01*
X297300D01*
X295300Y276500D01*
X315300Y276700D02*
X313300Y280700D01*
X317300D01*
X315300Y276700D01*
X313208Y264671D02*
X311208Y268671D01*
X315208D01*
X313208Y264671D01*
X303000Y261000D02*
X301000Y265000D01*
X305000D01*
X303000Y261000D01*
X296500Y259000D02*
X294500Y263000D01*
X298500D01*
X296500Y259000D01*
X301000Y254800D02*
X299000Y258800D01*
X303000D01*
X301000Y254800D01*
X287916Y251838D02*
X285916Y255838D01*
X289916D01*
X287916Y251838D01*
X258583Y257755D02*
X256583Y261755D01*
X260583D01*
X258583Y257755D01*
X264833Y255880D02*
X262833Y259880D01*
X266833D01*
X264833Y255880D01*
X270916Y255546D02*
X268916Y259546D01*
X272916D01*
X270916Y255546D01*
X325333Y253046D02*
X323333Y257046D01*
X327333D01*
X325333Y253046D01*
X316208Y253088D02*
X314208Y257088D01*
X318208D01*
X316208Y253088D01*
X309666Y243171D02*
X307666Y247171D01*
X311666D01*
X309666Y243171D01*
X287979Y231505D02*
X285979Y235505D01*
X289979D01*
X287979Y231505D01*
X270708Y246880D02*
X268708Y250880D01*
X272708D01*
X270708Y246880D01*
X243624Y236505D02*
X241624Y240505D01*
X245624D01*
X243624Y236505D01*
X243749Y227880D02*
X241749Y231880D01*
X245749D01*
X243749Y227880D01*
X263999Y230213D02*
X261999Y234213D01*
X265999D01*
X263999Y230213D01*
X269374Y226046D02*
X267374Y230046D01*
X271374D01*
X269374Y226046D01*
X271700Y217600D02*
X269700Y221600D01*
X273700D01*
X271700Y217600D01*
X262800Y214100D02*
X260800Y218100D01*
X264800D01*
X262800Y214100D01*
X262666Y208088D02*
X260666Y212088D01*
X264666D01*
X262666Y208088D01*
X271124Y208921D02*
X269124Y212921D01*
X273124D01*
X271124Y208921D01*
X229400Y225900D02*
X227400Y229900D01*
X231400D01*
X229400Y225900D01*
X229300Y212000D02*
X227300Y216000D01*
X231300D01*
X229300Y212000D01*
X195500Y211300D02*
X193500Y215300D01*
X197500D01*
X195500Y211300D01*
X185000Y224600D02*
X183000Y228600D01*
X187000D01*
X185000Y224600D01*
X195300Y197300D02*
X193300Y201300D01*
X197300D01*
X195300Y197300D01*
X204200Y199800D02*
X202200Y203800D01*
X206200D01*
X204200Y199800D01*
X222083Y204296D02*
X220083Y208296D01*
X224083D01*
X222083Y204296D01*
X221499Y198505D02*
X219499Y202505D01*
X223499D01*
X221499Y198505D01*
X229833Y200963D02*
X227833Y204963D01*
X231833D01*
X229833Y200963D01*
X238208Y204671D02*
X236208Y208671D01*
X240208D01*
X238208Y204671D01*
X238249Y210713D02*
X236249Y214713D01*
X240249D01*
X238249Y210713D01*
X243916Y215505D02*
X241916Y219505D01*
X245916D01*
X243916Y215505D01*
X244249Y206713D02*
X242249Y210713D01*
X246249D01*
X244249Y206713D01*
X244208Y197671D02*
X242208Y201671D01*
X246208D01*
X244208Y197671D01*
X238166Y198588D02*
X236166Y202588D01*
X240166D01*
X238166Y198588D01*
X233333Y195213D02*
X231333Y199213D01*
X235333D01*
X233333Y195213D01*
X289333Y209505D02*
X287333Y213505D01*
X291333D01*
X289333Y209505D01*
X295458Y208921D02*
X293458Y212921D01*
X297458D01*
X295458Y208921D01*
X289124Y196213D02*
X287124Y200213D01*
X291124D01*
X289124Y196213D01*
X269833Y188755D02*
X267833Y192755D01*
X271833D01*
X269833Y188755D01*
X263749Y188796D02*
X261749Y192796D01*
X265749D01*
X263749Y188796D01*
X263541Y177588D02*
X261541Y181588D01*
X265541D01*
X263541Y177588D01*
X269666Y177755D02*
X267666Y181755D01*
X271666D01*
X269666Y177755D01*
X269458Y170546D02*
X267458Y174546D01*
X271458D01*
X269458Y170546D01*
X282083Y178213D02*
X280083Y182213D01*
X284083D01*
X282083Y178213D01*
X285958Y185213D02*
X283958Y189213D01*
X287958D01*
X285958Y185213D01*
X289749Y180505D02*
X287749Y184505D01*
X291749D01*
X289749Y180505D01*
X294999Y185088D02*
X292999Y189088D01*
X296999D01*
X294999Y185088D01*
X291833Y172296D02*
X289833Y176296D01*
X293833D01*
X291833Y172296D01*
X325400Y204300D02*
X323400Y208300D01*
X327400D01*
X325400Y204300D01*
X188374Y157380D02*
X186374Y161380D01*
X190374D01*
X188374Y157380D01*
X194541Y158755D02*
X192541Y162755D01*
X196541D01*
X194541Y158755D01*
X200124Y161255D02*
X198124Y165255D01*
X202124D01*
X200124Y161255D01*
X205291Y158380D02*
X203291Y162380D01*
X207291D01*
X205291Y158380D01*
X203458Y152755D02*
X201458Y156755D01*
X205458D01*
X203458Y152755D01*
X210249Y163005D02*
X208249Y167005D01*
X212249D01*
X210249Y163005D01*
X214249Y158296D02*
X212249Y162296D01*
X216249D01*
X214249Y158296D01*
X215374Y152546D02*
X213374Y156546D01*
X217374D01*
X215374Y152546D01*
X189749Y151296D02*
X187749Y155296D01*
X191749D01*
X189749Y151296D01*
X226041Y157296D02*
X224041Y161296D01*
X228041D01*
X226041Y157296D01*
X232166Y153838D02*
X230166Y157838D01*
X234166D01*
X232166Y153838D01*
X238249Y160463D02*
X236249Y164463D01*
X240249D01*
X238249Y160463D01*
X243541Y163296D02*
X241541Y167296D01*
X245541D01*
X243541Y163296D01*
X243416Y157213D02*
X241416Y161213D01*
X245416D01*
X243416Y157213D01*
X224600Y151400D02*
X222600Y155400D01*
X226600D01*
X224600Y151400D01*
X211166Y118796D02*
X209166Y122796D01*
X213166D01*
X211166Y118796D01*
X230541Y125838D02*
X228541Y129838D01*
X232541D01*
X230541Y125838D01*
X214700Y113900D02*
X212700Y117900D01*
X216700D01*
X214700Y113900D01*
X243800Y121600D02*
X241800Y125600D01*
X245800D01*
X243800Y121600D01*
X248700Y126800D02*
X246700Y130800D01*
X250700D01*
X248700Y126800D01*
X242500Y108300D02*
X240500Y112300D01*
X244500D01*
X242500Y108300D01*
X241700Y102500D02*
X239700Y106500D01*
X243700D01*
X241700Y102500D01*
X242200Y96300D02*
X240200Y100300D01*
X244200D01*
X242200Y96300D01*
X232600Y88100D02*
X230600Y92100D01*
X234600D01*
X232600Y88100D01*
X255100Y93400D02*
X253100Y97400D01*
X257100D01*
X255100Y93400D01*
X250700Y87300D02*
X248700Y91300D01*
X252700D01*
X250700Y87300D01*
X242000Y69200D02*
X240000Y73200D01*
X244000D01*
X242000Y69200D01*
X245500Y45400D02*
X243500Y49400D01*
X247500D01*
X245500Y45400D01*
X251600Y39100D02*
X249600Y43100D01*
X253600D01*
X251600Y39100D01*
X242800Y28800D02*
X240800Y32800D01*
X244800D01*
X242800Y28800D01*
X259400Y31700D02*
X257400Y35700D01*
X261400D01*
X259400Y31700D01*
X251400Y46100D02*
X249400Y50100D01*
X253400D01*
X251400Y46100D01*
Y51900D02*
X249400Y55900D01*
X253400D01*
X251400Y51900D01*
X251800Y57800D02*
X249800Y61800D01*
X253800D01*
X251800Y57800D01*
X251500Y64100D02*
X249500Y68100D01*
X253500D01*
X251500Y64100D01*
X266000Y44000D02*
X264000Y48000D01*
X268000D01*
X266000Y44000D01*
X274300Y53200D02*
X272300Y57200D01*
X276300D01*
X274300Y53200D01*
X297700Y53100D02*
X295700Y57100D01*
X299700D01*
X297700Y53100D01*
X292900Y53300D02*
X290900Y57300D01*
X294900D01*
X292900Y53300D01*
X288200Y53400D02*
X286200Y57400D01*
X290200D01*
X288200Y53400D01*
X283700D02*
X281700Y57400D01*
X285700D01*
X283700Y53400D01*
X278600Y53200D02*
X276600Y57200D01*
X280600D01*
X278600Y53200D01*
X278800Y45000D02*
X276800Y49000D01*
X280800D01*
X278800Y45000D01*
X283900Y45200D02*
X281900Y49200D01*
X285900D01*
X283900Y45200D01*
X288400D02*
X286400Y49200D01*
X290400D01*
X288400Y45200D01*
X293100Y45100D02*
X291100Y49100D01*
X295100D01*
X293100Y45100D01*
X297900Y44900D02*
X295900Y48900D01*
X299900D01*
X297900Y44900D01*
X274500Y45000D02*
X272500Y49000D01*
X276500D01*
X274500Y45000D01*
X278800Y61400D02*
X276800Y65400D01*
X280800D01*
X278800Y61400D01*
X283900Y61600D02*
X281900Y65600D01*
X285900D01*
X283900Y61600D01*
X288400D02*
X286400Y65600D01*
X290400D01*
X288400Y61600D01*
X293100Y61500D02*
X291100Y65500D01*
X295100D01*
X293100Y61500D01*
X297200D02*
X295200Y65500D01*
X299200D01*
X297200Y61500D01*
X274500Y61400D02*
X272500Y65400D01*
X276500D01*
X274500Y61400D01*
X278800Y69500D02*
X276800Y73500D01*
X280800D01*
X278800Y69500D01*
X283900Y69700D02*
X281900Y73700D01*
X285900D01*
X283900Y69700D01*
X288400D02*
X286400Y73700D01*
X290400D01*
X288400Y69700D01*
X293100Y69600D02*
X291100Y73600D01*
X295100D01*
X293100Y69600D01*
X297100Y69500D02*
X295100Y73500D01*
X299100D01*
X297100Y69500D01*
X274500D02*
X272500Y73500D01*
X276500D01*
X274500Y69500D01*
X278900Y78300D02*
X276900Y82300D01*
X280900D01*
X278900Y78300D01*
X284000Y78500D02*
X282000Y82500D01*
X286000D01*
X284000Y78500D01*
X288500D02*
X286500Y82500D01*
X290500D01*
X288500Y78500D01*
X293200Y78400D02*
X291200Y82400D01*
X295200D01*
X293200Y78400D01*
X297000Y78200D02*
X295000Y82200D01*
X299000D01*
X297000Y78200D01*
X274600Y78300D02*
X272600Y82300D01*
X276600D01*
X274600Y78300D01*
X285800Y73700D02*
X283800Y77700D01*
X287800D01*
X285800Y73700D01*
X286200Y65800D02*
X284200Y69800D01*
X288200D01*
X286200Y65800D01*
X286000Y57200D02*
X284000Y61200D01*
X288000D01*
X286000Y57200D01*
X301500Y38100D02*
X299500Y42100D01*
X303500D01*
X301500Y38100D01*
X303800Y44000D02*
X301800Y48000D01*
X305800D01*
X303800Y44000D01*
X312600Y33700D02*
X310600Y37700D01*
X314600D01*
X312600Y33700D01*
X319600Y39000D02*
X317600Y43000D01*
X321600D01*
X319600Y39000D01*
X332200Y32800D02*
X330200Y36800D01*
X334200D01*
X332200Y32800D01*
X331500Y52700D02*
X329500Y56700D01*
X333500D01*
X331500Y52700D01*
X326800Y60200D02*
X324800Y64200D01*
X328800D01*
X326800Y60200D01*
X323000Y71200D02*
X321000Y75200D01*
X325000D01*
X323000Y71200D01*
X328400Y75100D02*
X326400Y79100D01*
X330400D01*
X328400Y75100D01*
X327499Y84213D02*
X325499Y88213D01*
X329499D01*
X327499Y84213D01*
X323800Y79400D02*
X321800Y83400D01*
X325800D01*
X323800Y79400D01*
X338900Y80100D02*
X336900Y84100D01*
X340900D01*
X338900Y80100D01*
X348499Y77505D02*
X346499Y81505D01*
X350499D01*
X348499Y77505D01*
X360300Y60500D02*
X358300Y64500D01*
X362300D01*
X360300Y60500D01*
X371000Y69200D02*
X369000Y73200D01*
X373000D01*
X371000Y69200D01*
X377200Y79000D02*
X375200Y83000D01*
X379200D01*
X377200Y79000D01*
X389200Y68500D02*
X387200Y72500D01*
X391200D01*
X389200Y68500D01*
X356700Y42000D02*
X354700Y46000D01*
X358700D01*
X356700Y42000D01*
X395800Y41900D02*
X393800Y45900D01*
X397800D01*
X395800Y41900D01*
X409400Y62500D02*
X407400Y66500D01*
X411400D01*
X409400Y62500D01*
Y56100D02*
X407400Y60100D01*
X411400D01*
X409400Y56100D01*
X409300Y49700D02*
X407300Y53700D01*
X411300D01*
X409300Y49700D01*
X424200Y44000D02*
X422200Y48000D01*
X426200D01*
X424200Y44000D01*
X425000Y37300D02*
X423000Y41300D01*
X427000D01*
X425000Y37300D01*
X432000Y44800D02*
X430000Y48800D01*
X434000D01*
X432000Y44800D01*
X436300Y44900D02*
X434300Y48900D01*
X438300D01*
X436300Y44900D01*
X441000Y44600D02*
X439000Y48600D01*
X443000D01*
X441000Y44600D01*
X446000Y44900D02*
X444000Y48900D01*
X448000D01*
X446000Y44900D01*
X450600Y44800D02*
X448600Y48800D01*
X452600D01*
X450600Y44800D01*
X455500Y44700D02*
X453500Y48700D01*
X457500D01*
X455500Y44700D01*
X462200Y44000D02*
X460200Y48000D01*
X464200D01*
X462200Y44000D01*
X462300Y38100D02*
X460300Y42100D01*
X464300D01*
X462300Y38100D01*
X455400Y53200D02*
X453400Y57200D01*
X457400D01*
X455400Y53200D01*
X450500Y53300D02*
X448500Y57300D01*
X452500D01*
X450500Y53300D01*
X445900Y53400D02*
X443900Y57400D01*
X447900D01*
X445900Y53400D01*
X440900Y53100D02*
X438900Y57100D01*
X442900D01*
X440900Y53100D01*
X436200Y53400D02*
X434200Y57400D01*
X438200D01*
X436200Y53400D01*
X431900Y53300D02*
X429900Y57300D01*
X433900D01*
X431900Y53300D01*
X455400Y61000D02*
X453400Y65000D01*
X457400D01*
X455400Y61000D01*
X450500Y61100D02*
X448500Y65100D01*
X452500D01*
X450500Y61100D01*
X445900Y61200D02*
X443900Y65200D01*
X447900D01*
X445900Y61200D01*
X440900Y60900D02*
X438900Y64900D01*
X442900D01*
X440900Y60900D01*
X436200Y61200D02*
X434200Y65200D01*
X438200D01*
X436200Y61200D01*
X431900Y61100D02*
X429900Y65100D01*
X433900D01*
X431900Y61100D01*
X455500Y69300D02*
X453500Y73300D01*
X457500D01*
X455500Y69300D01*
X450600Y69400D02*
X448600Y73400D01*
X452600D01*
X450600Y69400D01*
X446000Y69500D02*
X444000Y73500D01*
X448000D01*
X446000Y69500D01*
X441000Y69200D02*
X439000Y73200D01*
X443000D01*
X441000Y69200D01*
X436300Y69500D02*
X434300Y73500D01*
X438300D01*
X436300Y69500D01*
X432000Y69400D02*
X430000Y73400D01*
X434000D01*
X432000Y69400D01*
X455700Y78200D02*
X453700Y82200D01*
X457700D01*
X455700Y78200D01*
X450800Y78300D02*
X448800Y82300D01*
X452800D01*
X450800Y78300D01*
X446200Y78400D02*
X444200Y82400D01*
X448200D01*
X446200Y78400D01*
X441200Y78100D02*
X439200Y82100D01*
X443200D01*
X441200Y78100D01*
X436500Y78400D02*
X434500Y82400D01*
X438500D01*
X436500Y78400D01*
X432200Y78300D02*
X430200Y82300D01*
X434200D01*
X432200Y78300D01*
X443900Y74000D02*
X441900Y78000D01*
X445900D01*
X443900Y74000D01*
X443800Y65100D02*
X441800Y69100D01*
X445800D01*
X443800Y65100D01*
X443700Y57100D02*
X441700Y61100D01*
X445700D01*
X443700Y57100D01*
X443800Y48900D02*
X441800Y52900D01*
X445800D01*
X443800Y48900D01*
X402400Y68600D02*
X400400Y72600D01*
X404400D01*
X402400Y68600D01*
X407300Y83800D02*
X405300Y87800D01*
X409300D01*
X407300Y83800D01*
X394800Y86200D02*
X392800Y90200D01*
X396800D01*
X394800Y86200D01*
X258400Y100700D02*
X256400Y104700D01*
X260400D01*
X258400Y100700D01*
X255700Y106500D02*
X253700Y110500D01*
X257700D01*
X255700Y106500D01*
X254500Y113300D02*
X252500Y117300D01*
X256500D01*
X254500Y113300D01*
X275200Y114800D02*
X273200Y118800D01*
X277200D01*
X275200Y114800D01*
X266000Y117500D02*
X264000Y121500D01*
X268000D01*
X266000Y117500D01*
X280700Y121700D02*
X278700Y125700D01*
X282700D01*
X280700Y121700D01*
X292200Y107800D02*
X290200Y111800D01*
X294200D01*
X292200Y107800D01*
X303900Y119600D02*
X301900Y123600D01*
X305900D01*
X303900Y119600D01*
X296000Y93700D02*
X294000Y97700D01*
X298000D01*
X296000Y93700D01*
X300900Y96100D02*
X298900Y100100D01*
X302900D01*
X300900Y96100D01*
X318900Y98200D02*
X316900Y102200D01*
X320900D01*
X318900Y98200D01*
X330900Y101400D02*
X328900Y105400D01*
X332900D01*
X330900Y101400D01*
X347100Y101300D02*
X345100Y105300D01*
X349100D01*
X347100Y101300D01*
X359400Y101100D02*
X357400Y105100D01*
X361400D01*
X359400Y101100D01*
X382200Y101300D02*
X380200Y105300D01*
X384200D01*
X382200Y101300D01*
X405000Y101400D02*
X403000Y105400D01*
X407000D01*
X405000Y101400D01*
X411500Y94200D02*
X409500Y98200D01*
X413500D01*
X411500Y94200D01*
X425400Y95400D02*
X423400Y99400D01*
X427400D01*
X425400Y95400D01*
X452600Y98500D02*
X450600Y102500D01*
X454600D01*
X452600Y98500D01*
X461900Y91100D02*
X459900Y95100D01*
X463900D01*
X461900Y91100D01*
X477500Y78800D02*
X475500Y82800D01*
X479500D01*
X477500Y78800D01*
X484400Y81300D02*
X482400Y85300D01*
X486400D01*
X484400Y81300D01*
X479600Y71700D02*
X477600Y75700D01*
X481600D01*
X479600Y71700D01*
X462700Y68900D02*
X460700Y72900D01*
X464700D01*
X462700Y68900D01*
X462300Y61700D02*
X460300Y65700D01*
X464300D01*
X462300Y61700D01*
X476500Y63200D02*
X474500Y67200D01*
X478500D01*
X476500Y63200D01*
X488800D02*
X486800Y67200D01*
X490800D01*
X488800Y63200D01*
X484500Y58400D02*
X482500Y62400D01*
X486500D01*
X484500Y58400D01*
X478000Y53000D02*
X476000Y57000D01*
X480000D01*
X478000Y53000D01*
X478900Y38800D02*
X476900Y42800D01*
X480900D01*
X478900Y38800D01*
X488300Y38900D02*
X486300Y42900D01*
X490300D01*
X488300Y38900D01*
X503500Y44000D02*
X501500Y48000D01*
X505500D01*
X503500Y44000D01*
X503900Y53700D02*
X501900Y57700D01*
X505900D01*
X503900Y53700D01*
X504200Y37800D02*
X502200Y41800D01*
X506200D01*
X504200Y37800D01*
X534000Y44800D02*
X532000Y48800D01*
X536000D01*
X534000Y44800D01*
X529200D02*
X527200Y48800D01*
X531200D01*
X529200Y44800D01*
X524200Y44600D02*
X522200Y48600D01*
X526200D01*
X524200Y44600D01*
X519700Y44700D02*
X517700Y48700D01*
X521700D01*
X519700Y44700D01*
X515000Y44900D02*
X513000Y48900D01*
X517000D01*
X515000Y44900D01*
X510500Y44800D02*
X508500Y48800D01*
X512500D01*
X510500Y44800D01*
X510800Y53100D02*
X508800Y57100D01*
X512800D01*
X510800Y53100D01*
X515300Y53200D02*
X513300Y57200D01*
X517300D01*
X515300Y53200D01*
X520000Y53000D02*
X518000Y57000D01*
X522000D01*
X520000Y53000D01*
X524500Y52900D02*
X522500Y56900D01*
X526500D01*
X524500Y52900D01*
X529500Y53100D02*
X527500Y57100D01*
X531500D01*
X529500Y53100D01*
X534300D02*
X532300Y57100D01*
X536300D01*
X534300Y53100D01*
X510600Y61300D02*
X508600Y65300D01*
X512600D01*
X510600Y61300D01*
X515100Y61400D02*
X513100Y65400D01*
X517100D01*
X515100Y61400D01*
X519800Y61200D02*
X517800Y65200D01*
X521800D01*
X519800Y61200D01*
X524300Y61100D02*
X522300Y65100D01*
X526300D01*
X524300Y61100D01*
X529300Y61300D02*
X527300Y65300D01*
X531300D01*
X529300Y61300D01*
X534100D02*
X532100Y65300D01*
X536100D01*
X534100Y61300D01*
X511000Y69400D02*
X509000Y73400D01*
X513000D01*
X511000Y69400D01*
X515500Y69500D02*
X513500Y73500D01*
X517500D01*
X515500Y69500D01*
X520200Y69300D02*
X518200Y73300D01*
X522200D01*
X520200Y69300D01*
X524700Y69200D02*
X522700Y73200D01*
X526700D01*
X524700Y69200D01*
X529700Y69400D02*
X527700Y73400D01*
X531700D01*
X529700Y69400D01*
X534500D02*
X532500Y73400D01*
X536500D01*
X534500Y69400D01*
X510800Y78000D02*
X508800Y82000D01*
X512800D01*
X510800Y78000D01*
X515300Y78100D02*
X513300Y82100D01*
X517300D01*
X515300Y78100D01*
X520000Y77900D02*
X518000Y81900D01*
X522000D01*
X520000Y77900D01*
X524500Y77800D02*
X522500Y81800D01*
X526500D01*
X524500Y77800D01*
X529500Y78000D02*
X527500Y82000D01*
X531500D01*
X529500Y78000D01*
X534300D02*
X532300Y82000D01*
X536300D01*
X534300Y78000D01*
X522700Y73800D02*
X520700Y77800D01*
X524700D01*
X522700Y73800D01*
X522400Y65400D02*
X520400Y69400D01*
X524400D01*
X522400Y65400D01*
Y57100D02*
X520400Y61100D01*
X524400D01*
X522400Y57100D01*
X522200Y48800D02*
X520200Y52800D01*
X524200D01*
X522200Y48800D01*
X540500Y74000D02*
X538500Y78000D01*
X542500D01*
X540500Y74000D01*
X541600Y64000D02*
X539600Y68000D01*
X543600D01*
X541600Y64000D01*
X556800Y66100D02*
X554800Y70100D01*
X558800D01*
X556800Y66100D01*
X557000Y58800D02*
X555000Y62800D01*
X559000D01*
X557000Y58800D01*
X556900Y50300D02*
X554900Y54300D01*
X558900D01*
X556900Y50300D01*
X558200Y43900D02*
X556200Y47900D01*
X560200D01*
X558200Y43900D01*
X566000Y64600D02*
X564000Y68600D01*
X568000D01*
X566000Y64600D01*
X52000Y237100D02*
X50000Y241100D01*
X54000D01*
X52000Y237100D01*
X60200Y236800D02*
X58200Y240800D01*
X62200D01*
X60200Y236800D01*
X68000Y237100D02*
X66000Y241100D01*
X70000D01*
X68000Y237100D01*
X76500Y237000D02*
X74500Y241000D01*
X78500D01*
X76500Y237000D01*
X162166Y237338D02*
X160166Y241338D01*
X164166D01*
X162166Y237338D01*
X242916Y145380D02*
X240916Y149380D01*
X244916D01*
X242916Y145380D01*
X254874Y152338D02*
X252874Y156338D01*
X256874D01*
X254874Y152338D01*
X257749Y146963D02*
X255749Y150963D01*
X259749D01*
X257749Y146963D01*
X258333Y140880D02*
X256333Y144880D01*
X260333D01*
X258333Y140880D01*
X271208Y152755D02*
X269208Y156755D01*
X273208D01*
X271208Y152755D01*
X286500Y152600D02*
X284500Y156600D01*
X288500D01*
X286500Y152600D01*
X257300Y125200D02*
X255300Y129200D01*
X259300D01*
X257300Y125200D01*
X261916Y135588D02*
X259916Y139588D01*
X263916D01*
X261916Y135588D01*
X267416Y137213D02*
X265416Y141213D01*
X269416D01*
X267416Y137213D01*
X284400Y142000D02*
X282400Y146000D01*
X286400D01*
X284400Y142000D01*
X294000Y146500D02*
X292000Y150500D01*
X296000D01*
X294000Y146500D01*
X330900Y113900D02*
X328900Y117900D01*
X332900D01*
X330900Y113900D01*
X345500Y119700D02*
X343500Y123700D01*
X347500D01*
X345500Y119700D01*
X323791Y137421D02*
X321791Y141421D01*
X325791D01*
X323791Y137421D01*
X344700Y129500D02*
X342700Y133500D01*
X346700D01*
X344700Y129500D01*
X344900Y138600D02*
X342900Y142600D01*
X346900D01*
X344900Y138600D01*
X360600Y134200D02*
X358600Y138200D01*
X362600D01*
X360600Y134200D01*
X360900Y127000D02*
X358900Y131000D01*
X362900D01*
X360900Y127000D01*
X372500Y120300D02*
X370500Y124300D01*
X374500D01*
X372500Y120300D01*
X325000Y147200D02*
X323000Y151200D01*
X327000D01*
X325000Y147200D01*
X345700D02*
X343700Y151200D01*
X347700D01*
X345700Y147200D01*
X325500Y160300D02*
X323500Y164300D01*
X327500D01*
X325500Y160300D01*
X331600Y161600D02*
X329600Y165600D01*
X333600D01*
X331600Y161600D01*
X338300Y161800D02*
X336300Y165800D01*
X340300D01*
X338300Y161800D01*
X345100Y164100D02*
X343100Y168100D01*
X347100D01*
X345100Y164100D01*
X345300Y172700D02*
X343300Y176700D01*
X347300D01*
X345300Y172700D01*
X362900Y164200D02*
X360900Y168200D01*
X364900D01*
X362900Y164200D01*
X360700Y153300D02*
X358700Y157300D01*
X362700D01*
X360700Y153300D01*
X362200Y177800D02*
X360200Y181800D01*
X364200D01*
X362200Y177800D01*
X382000Y173600D02*
X380000Y177600D01*
X384000D01*
X382000Y173600D01*
X391100Y183800D02*
X389100Y187800D01*
X393100D01*
X391100Y183800D01*
X382900Y129300D02*
X380900Y133300D01*
X384900D01*
X382900Y129300D01*
X383666Y139463D02*
X381666Y143463D01*
X385666D01*
X383666Y139463D01*
X398500Y134500D02*
X396500Y138500D01*
X400500D01*
X398500Y134500D01*
X399000Y122400D02*
X397000Y126400D01*
X401000D01*
X399000Y122400D01*
X399200Y142000D02*
X397200Y146000D01*
X401200D01*
X399200Y142000D01*
X409300Y138800D02*
X407300Y142800D01*
X411300D01*
X409300Y138800D01*
X404800Y153200D02*
X402800Y157200D01*
X406800D01*
X404800Y153200D01*
X384000Y153300D02*
X382000Y157300D01*
X386000D01*
X384000Y153300D01*
X399300Y157000D02*
X397300Y161000D01*
X401300D01*
X399300Y157000D01*
X409800Y157200D02*
X407800Y161200D01*
X411800D01*
X409800Y157200D01*
X419500Y148100D02*
X417500Y152100D01*
X421500D01*
X419500Y148100D01*
X409400Y124700D02*
X407400Y128700D01*
X411400D01*
X409400Y124700D01*
X427000Y120800D02*
X425000Y124800D01*
X429000D01*
X427000Y120800D01*
X428900Y131300D02*
X426900Y135300D01*
X430900D01*
X428900Y131300D01*
X427900Y137500D02*
X425900Y141500D01*
X429900D01*
X427900Y137500D01*
X436400Y124800D02*
X434400Y128800D01*
X438400D01*
X436400Y124800D01*
X434800Y112500D02*
X432800Y116500D01*
X436800D01*
X434800Y112500D01*
X458000Y117600D02*
X456000Y121600D01*
X460000D01*
X458000Y117600D01*
X474500Y121700D02*
X472500Y125700D01*
X476500D01*
X474500Y121700D01*
X473800Y129100D02*
X471800Y133100D01*
X475800D01*
X473800Y129100D01*
X473900Y141500D02*
X471900Y145500D01*
X475900D01*
X473900Y141500D01*
X480200Y141400D02*
X478200Y145400D01*
X482200D01*
X480200Y141400D01*
X486400Y129100D02*
X484400Y133100D01*
X488400D01*
X486400Y129100D01*
X495600Y128800D02*
X493600Y132800D01*
X497600D01*
X495600Y128800D01*
X507500Y134800D02*
X505500Y138800D01*
X509500D01*
X507500Y134800D01*
X477100Y153100D02*
X475100Y157100D01*
X479100D01*
X477100Y153100D01*
X473600Y164700D02*
X471600Y168700D01*
X475600D01*
X473600Y164700D01*
X480354Y168296D02*
X478354Y172296D01*
X482354D01*
X480354Y168296D01*
X484000Y173600D02*
X482000Y177600D01*
X486000D01*
X484000Y173600D01*
X474200Y178800D02*
X472200Y182800D01*
X476200D01*
X474200Y178800D01*
X486874Y168296D02*
X484874Y172296D01*
X488874D01*
X486874Y168296D01*
X495458D02*
X493458Y172296D01*
X497458D01*
X495458Y168296D01*
X504100Y148800D02*
X502100Y152800D01*
X506100D01*
X504100Y148800D01*
X510500Y148000D02*
X508500Y152000D01*
X512500D01*
X510500Y148000D01*
X509700Y160100D02*
X507700Y164100D01*
X511700D01*
X509700Y160100D01*
X520900Y160000D02*
X518900Y164000D01*
X522900D01*
X520900Y160000D01*
X520800Y148100D02*
X518800Y152100D01*
X522800D01*
X520800Y148100D01*
X504000Y73800D02*
X502000Y77800D01*
X506000D01*
X504000Y73800D01*
X496200Y90000D02*
X494200Y94000D01*
X498200D01*
X496200Y90000D01*
X503200Y92800D02*
X501200Y96800D01*
X505200D01*
X503200Y92800D01*
X511400Y85100D02*
X509400Y89100D01*
X513400D01*
X511400Y85100D01*
X540500Y83600D02*
X538500Y87600D01*
X542500D01*
X540500Y83600D01*
X553000Y89300D02*
X551000Y93300D01*
X555000D01*
X553000Y89300D01*
X564400Y91300D02*
X562400Y95300D01*
X566400D01*
X564400Y91300D01*
X507500Y113500D02*
X505500Y117500D01*
X509500D01*
X507500Y113500D01*
X541300Y105000D02*
X539300Y109000D01*
X543300D01*
X541300Y105000D01*
X541400Y122000D02*
X539400Y126000D01*
X543400D01*
X541400Y122000D01*
X564400Y114900D02*
X562400Y118900D01*
X566400D01*
X564400Y114900D01*
X558500Y135300D02*
X556500Y139300D01*
X560500D01*
X558500Y135300D01*
X570600D02*
X568600Y139300D01*
X572600D01*
X570600Y135300D01*
X557000Y156500D02*
X555000Y160500D01*
X559000D01*
X557000Y156500D01*
X564000Y156800D02*
X562000Y160800D01*
X566000D01*
X564000Y156800D01*
X533500Y148100D02*
X531500Y152100D01*
X535500D01*
X533500Y148100D01*
X555400Y175900D02*
X553400Y179900D01*
X557400D01*
X555400Y175900D01*
X556800Y188700D02*
X554800Y192700D01*
X558800D01*
X556800Y188700D01*
X410200Y169800D02*
X408200Y173800D01*
X412200D01*
X410200Y169800D01*
X410124Y176005D02*
X408124Y180005D01*
X412124D01*
X410124Y176005D01*
X429374Y157671D02*
X427374Y161671D01*
X431374D01*
X429374Y157671D01*
X436541Y171505D02*
X434541Y175505D01*
X438541D01*
X436541Y171505D01*
X440208Y180005D02*
X438208Y184005D01*
X442208D01*
X440208Y180005D01*
X426200Y185400D02*
X424200Y189400D01*
X428200D01*
X426200Y185400D01*
X404400Y178500D02*
X402400Y182500D01*
X406400D01*
X404400Y178500D01*
X331700Y183300D02*
X329700Y187300D01*
X333700D01*
X331700Y183300D01*
X474200Y187400D02*
X472200Y191400D01*
X476200D01*
X474200Y187400D01*
X479791Y195671D02*
X477791Y199671D01*
X481791D01*
X479791Y195671D01*
X490458Y197921D02*
X488458Y201921D01*
X492458D01*
X490458Y197921D01*
X433624Y195171D02*
X431624Y199171D01*
X435624D01*
X433624Y195171D01*
X423800Y200900D02*
X421800Y204900D01*
X425800D01*
X423800Y200900D01*
X416000Y206000D02*
X414000Y210000D01*
X418000D01*
X416000Y206000D01*
X403800Y201800D02*
X401800Y205800D01*
X405800D01*
X403800Y201800D01*
X386400Y201000D02*
X384400Y205000D01*
X388400D01*
X386400Y201000D01*
X395300Y200900D02*
X393300Y204900D01*
X397300D01*
X395300Y200900D01*
X365374Y207505D02*
X363374Y211505D01*
X367374D01*
X365374Y207505D01*
X366958Y201421D02*
X364958Y205421D01*
X368958D01*
X366958Y201421D01*
X355600Y211300D02*
X353600Y215300D01*
X357600D01*
X355600Y211300D01*
X351400Y202100D02*
X349400Y206100D01*
X353400D01*
X351400Y202100D01*
X345600Y200900D02*
X343600Y204900D01*
X347600D01*
X345600Y200900D01*
X336800Y204300D02*
X334800Y208300D01*
X338800D01*
X336800Y204300D01*
X338200Y215900D02*
X336200Y219900D01*
X340200D01*
X338200Y215900D01*
X336400Y224500D02*
X334400Y228500D01*
X338400D01*
X336400Y224500D01*
X367300Y223100D02*
X365300Y227100D01*
X369300D01*
X367300Y223100D01*
X376600Y226800D02*
X374600Y230800D01*
X378600D01*
X376600Y226800D01*
X383200Y229500D02*
X381200Y233500D01*
X385200D01*
X383200Y229500D01*
X383500Y220600D02*
X381500Y224600D01*
X385500D01*
X383500Y220600D01*
X391624Y215838D02*
X389624Y219838D01*
X393624D01*
X391624Y215838D01*
X398541Y216630D02*
X396541Y220630D01*
X400541D01*
X398541Y216630D01*
X399400Y231900D02*
X397400Y235900D01*
X401400D01*
X399400Y231900D01*
X418624Y219880D02*
X416624Y223880D01*
X420624D01*
X418624Y219880D01*
X418208Y231046D02*
X416208Y235046D01*
X420208D01*
X418208Y231046D01*
X441499Y221963D02*
X439499Y225963D01*
X443499D01*
X441499Y221963D01*
X442000Y205300D02*
X440000Y209300D01*
X444000D01*
X442000Y205300D01*
X458833Y204213D02*
X456833Y208213D01*
X460833D01*
X458833Y204213D01*
X463833Y219088D02*
X461833Y223088D01*
X465833D01*
X463833Y219088D01*
X516200Y195800D02*
X514200Y199800D01*
X518200D01*
X516200Y195800D01*
X509458Y195921D02*
X507458Y199921D01*
X511458D01*
X509458Y195921D01*
X504000Y202600D02*
X502000Y206600D01*
X506000D01*
X504000Y202600D01*
X509291Y205213D02*
X507291Y209213D01*
X511291D01*
X509291Y205213D01*
X484041Y212505D02*
X482041Y216505D01*
X486041D01*
X484041Y212505D01*
X486583Y223921D02*
X484583Y227921D01*
X488583D01*
X486583Y223921D01*
X507600Y223400D02*
X505600Y227400D01*
X509600D01*
X507600Y223400D01*
X506800Y229300D02*
X504800Y233300D01*
X508800D01*
X506800Y229300D01*
X490300Y234800D02*
X488300Y238800D01*
X492300D01*
X490300Y234800D01*
X483000Y232500D02*
X481000Y236500D01*
X485000D01*
X483000Y232500D01*
X507400Y238000D02*
X505400Y242000D01*
X509400D01*
X507400Y238000D01*
X524300Y236100D02*
X522300Y240100D01*
X526300D01*
X524300Y236100D01*
X527100Y228100D02*
X525100Y232100D01*
X529100D01*
X527100Y228100D01*
X525300Y211300D02*
X523300Y215300D01*
X527300D01*
X525300Y211300D01*
X525200Y220000D02*
X523200Y224000D01*
X527200D01*
X525200Y220000D01*
X423166Y245005D02*
X421166Y249005D01*
X425166D01*
X423166Y245005D01*
X432999Y242005D02*
X430999Y246005D01*
X434999D01*
X432999Y242005D01*
X438124Y246338D02*
X436124Y250338D01*
X440124D01*
X438124Y246338D01*
X431416Y252046D02*
X429416Y256046D01*
X433416D01*
X431416Y252046D01*
X424624Y251338D02*
X422624Y255338D01*
X426624D01*
X424624Y251338D01*
X416624Y255088D02*
X414624Y259088D01*
X418624D01*
X416624Y255088D01*
X437958Y252088D02*
X435958Y256088D01*
X439958D01*
X437958Y252088D01*
X439041Y239963D02*
X437041Y243963D01*
X441041D01*
X439041Y239963D01*
X439541Y233630D02*
X437541Y237630D01*
X441541D01*
X439541Y233630D01*
X458500Y237800D02*
X456500Y241800D01*
X460500D01*
X458500Y237800D01*
X458100Y248100D02*
X456100Y252100D01*
X460100D01*
X458100Y248100D01*
X462800Y241900D02*
X460800Y245900D01*
X464800D01*
X462800Y241900D01*
X462600Y252100D02*
X460600Y256100D01*
X464600D01*
X462600Y252100D01*
X458400Y256700D02*
X456400Y260700D01*
X460400D01*
X458400Y256700D01*
X465000Y262600D02*
X463000Y266600D01*
X467000D01*
X465000Y262600D01*
X459300Y265500D02*
X457300Y269500D01*
X461300D01*
X459300Y265500D01*
X438500Y264700D02*
X436500Y268700D01*
X440500D01*
X438500Y264700D01*
X429500Y265400D02*
X427500Y269400D01*
X431500D01*
X429500Y265400D01*
X483500Y250200D02*
X481500Y254200D01*
X485500D01*
X483500Y250200D01*
X491000Y256400D02*
X489000Y260400D01*
X493000D01*
X491000Y256400D01*
X489200Y247300D02*
X487200Y251300D01*
X491200D01*
X489200Y247300D01*
X489458Y241088D02*
X487458Y245088D01*
X491458D01*
X489458Y241088D01*
X489833Y270921D02*
X487833Y274921D01*
X491833D01*
X489833Y270921D01*
X491200Y279600D02*
X489200Y283600D01*
X493200D01*
X491200Y279600D01*
X499700Y284000D02*
X497700Y288000D01*
X501700D01*
X499700Y284000D01*
X484000Y284500D02*
X482000Y288500D01*
X486000D01*
X484000Y284500D01*
X498900Y264800D02*
X496900Y268800D01*
X500900D01*
X498900Y264800D01*
X505791Y264130D02*
X503791Y268130D01*
X507791D01*
X505791Y264130D01*
X507333Y255380D02*
X505333Y259380D01*
X509333D01*
X507333Y255380D01*
X507395Y246692D02*
X505395Y250692D01*
X509395D01*
X507395Y246692D01*
X513041Y266755D02*
X511041Y270755D01*
X515041D01*
X513041Y266755D01*
X525708Y261213D02*
X523708Y265213D01*
X527708D01*
X525708Y261213D01*
X525208Y252588D02*
X523208Y256588D01*
X527208D01*
X525208Y252588D01*
X527100Y244300D02*
X525100Y248300D01*
X529100D01*
X527100Y244300D01*
X555900Y240400D02*
X553900Y244400D01*
X557900D01*
X555900Y240400D01*
X561800Y235700D02*
X559800Y239700D01*
X563800D01*
X561800Y235700D01*
X558200Y225600D02*
X556200Y229600D01*
X560200D01*
X558200Y225600D01*
X556200Y210000D02*
X554200Y214000D01*
X558200D01*
X556200Y210000D01*
X527200Y201000D02*
X525200Y205000D01*
X529200D01*
X527200Y201000D01*
X556800Y203000D02*
X554800Y207000D01*
X558800D01*
X556800Y203000D01*
X561000Y261100D02*
X559000Y265100D01*
X563000D01*
X561000Y261100D01*
X553900Y268800D02*
X551900Y272800D01*
X555900D01*
X553900Y268800D01*
X563500Y275000D02*
X561500Y279000D01*
X565500D01*
X563500Y275000D01*
X553600Y281000D02*
X551600Y285000D01*
X555600D01*
X553600Y281000D01*
X564600Y284100D02*
X562600Y288100D01*
X566600D01*
X564600Y284100D01*
X526600Y284500D02*
X524600Y288500D01*
X528600D01*
X526600Y284500D01*
X513200Y279700D02*
X511200Y283700D01*
X515200D01*
X513200Y279700D01*
X524600Y294900D02*
X522600Y298900D01*
X526600D01*
X524600Y294900D01*
X564500Y303000D02*
X562500Y307000D01*
X566500D01*
X564500Y303000D01*
X564300Y310700D02*
X562300Y314700D01*
X566300D01*
X564300Y310700D01*
X558800Y328700D02*
X556800Y332700D01*
X560800D01*
X558800Y328700D01*
X571200Y328800D02*
X569200Y332800D01*
X573200D01*
X571200Y328800D01*
X553500Y346900D02*
X551500Y350900D01*
X555500D01*
X553500Y346900D01*
X511645Y332046D02*
X509645Y336046D01*
X513645D01*
X511645Y332046D01*
X513249Y325692D02*
X511249Y329692D01*
X515249D01*
X513249Y325692D01*
X517729Y321192D02*
X515729Y325192D01*
X519729D01*
X517729Y321192D01*
X525100Y325300D02*
X523100Y329300D01*
X527100D01*
X525100Y325300D01*
X501200Y330300D02*
X499200Y334300D01*
X503200D01*
X501200Y330300D01*
X346833Y236005D02*
X344833Y240005D01*
X348833D01*
X346833Y236005D01*
X360416Y238546D02*
X358416Y242546D01*
X362416D01*
X360416Y238546D01*
X366249Y237005D02*
X364249Y241005D01*
X368249D01*
X366249Y237005D01*
X361583Y249171D02*
X359583Y253171D01*
X363583D01*
X361583Y249171D01*
X374874Y249713D02*
X372874Y253713D01*
X376874D01*
X374874Y249713D01*
X383499Y244796D02*
X381499Y248796D01*
X385499D01*
X383499Y244796D01*
X398900Y245000D02*
X396900Y249000D01*
X400900D01*
X398900Y245000D01*
X398800Y253800D02*
X396800Y257800D01*
X400800D01*
X398800Y253800D01*
X398300Y260800D02*
X396300Y264800D01*
X400300D01*
X398300Y260800D01*
X360791Y259880D02*
X358791Y263880D01*
X362791D01*
X360791Y259880D01*
X366874Y259838D02*
X364874Y263838D01*
X368874D01*
X366874Y259838D01*
X378124Y259880D02*
X376124Y263880D01*
X380124D01*
X378124Y259880D01*
X362874Y268046D02*
X360874Y272046D01*
X364874D01*
X362874Y268046D01*
X361541Y276671D02*
X359541Y280671D01*
X363541D01*
X361541Y276671D01*
X367249Y276505D02*
X365249Y280505D01*
X369249D01*
X367249Y276505D01*
X374416Y278880D02*
X372416Y282880D01*
X376416D01*
X374416Y278880D01*
X383200Y270000D02*
X381200Y274000D01*
X385200D01*
X383200Y270000D01*
X398900Y267100D02*
X396900Y271100D01*
X400900D01*
X398900Y267100D01*
X398708Y275755D02*
X396708Y279755D01*
X400708D01*
X398708Y275755D01*
X419600Y280800D02*
X417600Y284800D01*
X421600D01*
X419600Y280800D01*
X424500Y285100D02*
X422500Y289100D01*
X426500D01*
X424500Y285100D01*
X438100Y281900D02*
X436100Y285900D01*
X440100D01*
X438100Y281900D01*
X458800Y284800D02*
X456800Y288800D01*
X460800D01*
X458800Y284800D01*
X463000Y280700D02*
X461000Y284700D01*
X465000D01*
X463000Y280700D01*
X481600Y296700D02*
X479600Y300700D01*
X483600D01*
X481600Y296700D01*
X464124Y301213D02*
X462124Y305213D01*
X466124D01*
X464124Y301213D01*
X458624Y296338D02*
X456624Y300338D01*
X460624D01*
X458624Y296338D01*
X359791Y292130D02*
X357791Y296130D01*
X361791D01*
X359791Y292130D01*
X367083Y292213D02*
X365083Y296213D01*
X369083D01*
X367083Y292213D01*
X385000Y291900D02*
X383000Y295900D01*
X387000D01*
X385000Y291900D01*
X400333Y287380D02*
X398333Y291380D01*
X402333D01*
X400333Y287380D01*
X409200Y293200D02*
X407200Y297200D01*
X411200D01*
X409200Y293200D01*
X432300Y293800D02*
X430300Y297800D01*
X434300D01*
X432300Y293800D01*
X425100Y299000D02*
X423100Y303000D01*
X427100D01*
X425100Y299000D01*
X437874Y302005D02*
X435874Y306005D01*
X439874D01*
X437874Y302005D01*
X409291Y311713D02*
X407291Y315713D01*
X411291D01*
X409291Y311713D01*
X418833Y311546D02*
X416833Y315546D01*
X420833D01*
X418833Y311546D01*
X425624Y311421D02*
X423624Y315421D01*
X427624D01*
X425624Y311421D01*
X392800Y311900D02*
X390800Y315900D01*
X394800D01*
X392800Y311900D01*
X380600Y312800D02*
X378600Y316800D01*
X382600D01*
X380600Y312800D01*
X365999Y315088D02*
X363999Y319088D01*
X367999D01*
X365999Y315088D01*
X358124Y317130D02*
X356124Y321130D01*
X360124D01*
X358124Y317130D01*
X358958Y311296D02*
X356958Y315296D01*
X360958D01*
X358958Y311296D01*
X353708Y335546D02*
X351708Y339546D01*
X355708D01*
X353708Y335546D01*
X362666Y334171D02*
X360666Y338171D01*
X364666D01*
X362666Y334171D01*
X353749Y348755D02*
X351749Y352755D01*
X355749D01*
X353749Y348755D01*
X362749Y348880D02*
X360749Y352880D01*
X364749D01*
X362749Y348880D01*
X373100Y358900D02*
X371100Y362900D01*
X375100D01*
X373100Y358900D01*
X371916Y367213D02*
X369916Y371213D01*
X373916D01*
X371916Y367213D01*
X384500Y348900D02*
X382500Y352900D01*
X386500D01*
X384500Y348900D01*
X393249Y348463D02*
X391249Y352463D01*
X395249D01*
X393249Y348463D01*
X401749Y348546D02*
X399749Y352546D01*
X403749D01*
X401749Y348546D01*
X410583Y348755D02*
X408583Y352755D01*
X412583D01*
X410583Y348755D01*
X419166Y348630D02*
X417166Y352630D01*
X421166D01*
X419166Y348630D01*
X435916Y348713D02*
X433916Y352713D01*
X437916D01*
X435916Y348713D01*
X455500Y350100D02*
X453500Y354100D01*
X457500D01*
X455500Y350100D01*
X407999Y336296D02*
X405999Y340296D01*
X409999D01*
X407999Y336296D01*
X416458Y334005D02*
X414458Y338005D01*
X418458D01*
X416458Y334005D01*
X423916Y336338D02*
X421916Y340338D01*
X425916D01*
X423916Y336338D01*
X387800Y336500D02*
X385800Y340500D01*
X389800D01*
X387800Y336500D01*
X441916Y336755D02*
X439916Y340755D01*
X443916D01*
X441916Y336755D01*
X450479Y331317D02*
X448479Y335317D01*
X452479D01*
X450479Y331317D01*
X457520Y332151D02*
X455520Y336151D01*
X459520D01*
X457520Y332151D01*
X454624Y325880D02*
X452624Y329880D01*
X456624D01*
X454624Y325880D01*
X449708Y322171D02*
X447708Y326171D01*
X451708D01*
X449708Y322171D01*
X471583Y345588D02*
X469583Y349588D01*
X473583D01*
X471583Y345588D01*
X471500Y356000D02*
X469500Y360000D01*
X473500D01*
X471500Y356000D01*
X464100Y362700D02*
X462100Y366700D01*
X466100D01*
X464100Y362700D01*
X455083Y357880D02*
X453083Y361880D01*
X457083D01*
X455083Y357880D01*
X476100Y365700D02*
X474100Y369700D01*
X478100D01*
X476100Y365700D01*
X495208Y364005D02*
X493208Y368005D01*
X497208D01*
X495208Y364005D01*
X519300Y363400D02*
X517300Y367400D01*
X521300D01*
X519300Y363400D01*
X512000Y357500D02*
X510000Y361500D01*
X514000D01*
X512000Y357500D01*
X518700Y357000D02*
X516700Y361000D01*
X520700D01*
X518700Y357000D01*
X512600Y376600D02*
X510600Y380600D01*
X514600D01*
X512600Y376600D01*
X435604Y367380D02*
X433604Y371380D01*
X437604D01*
X435604Y367380D01*
X393900Y361500D02*
X391900Y365500D01*
X395900D01*
X393900Y361500D01*
X402900Y365000D02*
X400900Y369000D01*
X404900D01*
X402900Y365000D01*
X414500Y369500D02*
X412500Y373500D01*
X416500D01*
X414500Y369500D01*
X424624Y361005D02*
X422624Y365005D01*
X426624D01*
X424624Y361005D01*
X516100Y130900D02*
X514100Y134900D01*
X518100D01*
X516100Y130900D01*
X382300Y264100D02*
X380300Y268100D01*
X384300D01*
X382300Y264100D01*
X239749Y219880D02*
X237749Y223880D01*
X241749D01*
X239749Y219880D01*
X304600Y69000D02*
X302600Y73000D01*
X306600D01*
X304600Y69000D01*
X55916Y351213D02*
X53916Y355213D01*
X57916D01*
X55916Y351213D01*
X393700Y443400D02*
X391700Y447400D01*
X395700D01*
X393700Y443400D01*
X81200Y313000D02*
X79200Y317000D01*
X83200D01*
X81200Y313000D01*
X217100Y123900D02*
X215100Y127900D01*
X219100D01*
X217100Y123900D01*
X401500Y76600D02*
X399500Y80600D01*
X403500D01*
X401500Y76600D01*
X482800Y242800D02*
X480800Y246800D01*
X484800D01*
X482800Y242800D01*
X484208Y258796D02*
X482208Y262796D01*
X486208D01*
X484208Y258796D01*
X487874Y306838D02*
X485874Y310838D01*
X489874D01*
X487874Y306838D01*
X259874Y342921D02*
X257874Y346921D01*
X261874D01*
X259874Y342921D01*
X286100Y49171D02*
X284100Y53171D01*
X288100D01*
X286100Y49171D01*
D178*
X527400Y420400D02*
G03*
X527400Y420400I-2000J0D01*
G01*
Y388300D02*
G03*
X527400Y388300I-2000J0D01*
G01*
Y375300D02*
G03*
X527400Y375300I-2000J0D01*
G01*
X538900Y411200D02*
G03*
X538900Y411200I-2000J0D01*
G01*
X550400Y420400D02*
G03*
X550400Y420400I-2000J0D01*
G01*
Y388300D02*
G03*
X550400Y388300I-2000J0D01*
G01*
X151600Y420400D02*
G03*
X151600Y420400I-2000J0D01*
G01*
Y388300D02*
G03*
X151600Y388300I-2000J0D01*
G01*
Y375300D02*
G03*
X151600Y375300I-2000J0D01*
G01*
X140400Y411200D02*
G03*
X140400Y411200I-2000J0D01*
G01*
X128800Y420400D02*
G03*
X128800Y420400I-2000J0D01*
G01*
Y388300D02*
G03*
X128800Y388300I-2000J0D01*
G01*
X117450Y411200D02*
G03*
X117450Y411200I-2000J0D01*
G01*
X106000Y420400D02*
G03*
X106000Y420400I-2000J0D01*
G01*
Y388300D02*
G03*
X106000Y388300I-2000J0D01*
G01*
X269400Y375300D02*
G03*
X269400Y375300I-2000J0D01*
G01*
M02*
