M48
;Layer_Color=9474304
;FILE_FORMAT=2:5
INCH,LZ
;TYPE=PLATED
T1F00S00C0.02000
T2F00S00C0.04000
T3F00S00C0.05000
%
T01
X00078Y00272
X00596Y00135
X00672
X00751
X00832
X00909
X00987
X01067
X01146
X01221
X01303
X01379
X01461
X01536
X01615
X01695
X0171Y00297
X01402Y00298
X0111Y00295
X01773Y00135
X0185
X01931
X0201
X02086
X02167
X02249
X02324
X02325Y00076
X02407
X02403Y00135
X02483
X02482Y00076
X02561
Y00135
X02638
X02641Y00076
X02719
Y00135
X02798
X02796Y00076
X02877
X02874Y00135
X02958Y00132
X02956Y00076
X03032
X0304Y00132
X03115
Y00078
X03195Y00073
X03194Y00132
X0329
X03292Y00078
X02594Y00337
X02428Y00308
X03392Y00133
X0339Y00077
X03492
X03489Y00135
X03589Y0013
Y00075
X03687Y00074
X03688Y00133
X03785Y00132
X03786Y00075
X03887Y00077
X03885Y00135
X03983Y00134
X03985Y00076
X04085Y00079
X04084Y00136
X04183Y00137
X04182Y00078
X04281Y00081
Y00136
X04378Y00134
X04381Y00076
X04478Y00078
X0448Y00134
X04576Y00132
X04578Y00074
X04678Y00077
X04677Y00134
X04776Y00135
X04775Y00076
X04874Y00079
Y00134
X04971Y00132
X04974Y00074
X05071Y00076
X05073Y00132
X05168
X0517Y00074
X0527Y00077
X05269Y00134
X05368Y00135
X05367Y00076
X05466Y00079
Y00134
X05563Y00132
X05566Y00074
X05663Y00076
X05665Y00132
X05765Y00133
Y00078
X05865Y00073
X05862Y00131
X05964
X05962Y00075
X05654Y00317
X06434Y00291
Y0035
X06433Y00409
X06436Y00467
X06434Y00526
Y00583
X06435Y00644
X06436Y00702
X06435Y00763
Y00822
Y00879
X06436Y0094
X06437Y00998
X06436Y01059
X06437Y01116
X06436Y01177
Y01236
Y01293
X06437Y01354
X06438Y01412
X06437Y01473
X06434Y01531
X06437Y01589
X06435Y01648
Y01705
X06436Y01766
X06437Y01824
X06436Y01885
X06385
X06388Y01827
X06386Y01769
Y01708
X06387Y01648
X06389Y01588
X06385Y01531
X06386Y01473
X06389Y01415
X06387Y01357
Y01296
X06388Y01236
X06385Y01177
X06388Y01119
X06385Y01059
X06388Y01001
X06386Y00943
Y00882
X06387Y00822
X06384Y00763
X06387Y00705
X06385Y00647
Y00586
X06386Y00526
X06388Y00466
X06384Y00409
X06386Y00351
X06278Y0041
X06279Y00468
X06277Y00528
X06278Y00587
X06275Y00642
X06277Y00704
X06276Y00762
X06278Y00824
X06279Y00883
X06276Y00938
X06278Y01
X06277Y01058
X06278Y01118
X06277Y01176
X06279Y01238
X0628Y01297
X06277Y01352
X06279Y01414
X06278Y01472
X06279Y01532
X0628Y0159
X06278Y0165
X06279Y01709
X06276Y01764
X06278Y01826
X06277Y01884
X05554Y01779
X0557Y01585
X0564Y01588
X05585Y01373
X05706
X05644Y01169
Y00933
X0553Y00913
X05405Y00856
Y0076
X05343Y008
X05295
X05245Y00798
X052Y00799
X05153Y00801
X05108Y008
X05114Y00871
X05032Y00948
X04962Y0092
X0504Y00758
X0511Y00714
X05155Y00715
X05202Y00713
X05247Y00712
X05297Y00714
X05345
X05341Y00633
X05293
X05243Y00631
X05198Y00632
X05151Y00634
X05106Y00633
X05108Y00551
X05153Y00552
X052Y0055
X05245Y00549
X05295Y00551
X05343
X0534Y00468
X05292
X05242Y00466
X05197Y00467
X0515Y00469
X05105Y00468
X05035Y0046
X05042Y00398
X05039Y00557
X05224Y00591
Y00674
X05227Y00758
X05222Y00508
X05416Y0066
X05568Y00681
X0557Y00608
X05569Y00523
X05582Y00459
X05487Y00345
X0566Y00666
X05413Y0107
X05414Y0124
X05335Y01501
X05208
X05105Y015
X05041Y01508
X05097Y01621
X05209Y0162
X0495458Y0170296
X0486874
X04864Y01311
X04956Y01308
X05075Y01368
X05161Y01329
X05075Y01155
X04888Y00652
X04883Y00409
X04789Y00408
X0478Y0055
X04765Y00652
X04796Y00737
X04775Y00808
X04844Y00833
X04845Y01052
X0474Y01154
X04745Y01237
X04738Y01311
X04739Y01435
X04802Y01434
X04771Y01551
X04736Y01667
X0480354Y0170296
X0484Y01756
X04742Y01808
Y01894
X0440208Y0182005
X0436541Y0173505
X0429374Y0159671
X04195Y01501
X04098Y01592
X04048Y01552
X03993Y0159
X03992Y0144
X03985Y01365
X0399Y01244
X04094Y01267
X04093Y01408
X04279Y01395
X04289Y01333
X0427Y01228
X04364Y01268
X04348Y01145
X04254Y00974
X04115Y00962
X0405Y01034
X04073Y00858
X04015Y00786
X04024Y00706
X04094Y00645
Y00581
X04093Y00517
X04242Y0046
X0425Y00393
X0432Y00468
X04363Y00469
X0441Y00466
X0446Y00469
X04506Y00468
X04555Y00467
X04622Y0046
X04623Y00401
X04554Y00552
X04505Y00553
X04459Y00554
X04409Y00551
X04362Y00554
X04319Y00553
Y00631
X04362Y00632
X04409Y00629
X04459Y00632
X04505Y00631
X04554Y0063
X04623Y00637
X04627Y00709
X04555Y00713
X04506Y00714
X0446Y00715
X0441Y00712
X04363Y00715
X0432Y00714
X04322Y00803
X04365Y00804
X04412Y00801
X04462Y00804
X04508Y00803
X04557Y00802
X04439Y0076
X04438Y00671
X04437Y00591
X04438Y00509
X04845Y00604
X04619Y00931
X04526Y01005
X0458Y01196
X03829Y01313
X0383666Y0141463
X0384Y01553
X0382Y01756
X03911Y01858
X04044Y01805
X0410124Y0178005
X04102Y01718
X04262Y01874
X03622Y01798
X03629Y01662
X03607Y01553
X03606Y01362
X03609Y0129
X03725Y01223
X03455Y01217
X03447Y01315
X03449Y01406
X03457Y01492
X03451Y01661
X03453Y01747
X03383Y01638
X03316Y01636
X03317Y01853
X03309Y01159
Y01034
X03471Y01033
X03594Y01031
X03822Y01033
X03772Y0081
X0371Y00712
X03892Y00705
X03948Y00882
X03958Y00439
X03567Y0044
X03603Y00625
X0348499Y0079505
X03389Y00821
X03315Y00547
X03322Y00348
X03196Y0041
X03126Y00357
X03015Y00401
X03038Y0046
X02979Y00469
X02931Y00471
X02884Y00472
X02839
X02788Y0047
X02745
X02743Y00552
X02786
X02837Y00554
X02882
X02929Y00553
X02977Y00551
X02972Y00635
X02931
X02884Y00636
X02839
X02788Y00634
X02745
Y00715
X02788
X02839Y00717
X02884
X02931Y00716
X02971Y00715
X03046Y0071
X0297Y00802
X02932Y00804
X02885Y00805
X0284
X02789Y00803
X02746
X02858Y00757
X02862Y00678
X0286Y00592
X02861Y0051171
X0266Y0046
X02514Y00481
Y00539
X02518Y00598
X02515Y00661
X0242Y00712
X02507Y00893
X02551Y00954
X02584Y01027
X02557Y01085
X02545Y01153
X02573Y01272
X02487Y01288
X02438Y01236
X02425Y01103
X02417Y01045
X02422Y00983
X02326Y00901
X0230541Y0127838
X02171Y01259
X0211166Y0120796
X02147Y01159
X0203583Y0134255
X0195458Y0127005
X0186749Y0118046
X0182374Y0132796
X0177749Y0154796
X0174083Y0159296
X0181999Y016138
X0188374Y015938
X0189749Y0153296
X0194541Y0160755
X0200124Y0163255
X0205291Y016038
X0203458Y0154755
X0215374Y0154546
X0214249Y0160296
X0210249Y0165005
X0226041Y0159296
X02246Y01534
X0232166Y0155838
X0238249Y0162463
X0243541Y0165296
X0243416Y0159213
X0242916Y014738
X0257749Y0148963
X0258333Y014288
X0261916Y0137588
X0267416Y0139213
X0271208Y0154755
X02865Y01546
X02844Y0144
X0294Y01485
X0291833Y0174296
X0289749Y0182505
X0285958Y0187213
X0294999Y0187088
X0282083Y0180213
X0269666Y0179755
X0263541Y0179588
X0269458Y0172546
X0254874Y0154338
X0266Y01195
X02752Y01168
X02807Y01237
X03039Y01216
X02922Y01098
X0296Y00957
X03009Y00981
X03189Y01002
X0327499Y0086213
X03238Y00814
X03284Y00771
X0323Y00732
X03268Y00622
X0323791Y0139421
X0325Y01492
X03255Y01623
X0192Y0172
X01774Y01724
X01772Y01855
X01831
X01828Y00875
X0192Y00902
X01825Y00664
X01808Y00549
X0182Y00459
X02455Y00474
X02516Y00411
X01733Y00492
X0158958Y0054005
X0148958
X01391Y0054
X01291Y00541
X01191Y0054
X01165Y00478
X01091Y00542
X01062Y00692
X0099Y00691
X00893Y00694
X00787Y00692
X00689Y00693
X00737Y00764
X00637Y00765
X00632Y00847
X00735Y00932
X00834Y00866
X0084Y00765
X00939
X01015Y00901
X0099Y01081
X00889
X00789
X0069Y0108
X0074Y01152
X00839Y01153
X00941Y01152
X01141Y01146
X0124083Y0114671
X0134124Y0114588
X0143999
X01392Y01076
X0149124Y0107505
X0156041Y0112255
X0164708Y0112213
X01577Y00985
X0157458Y008788
X0161666Y0083671
X0160874Y007438
X0154249Y0069213
X0143916Y006938
X01342Y00693
X01244Y00694
X01141
X01257Y00905
X01291Y01076
X0119
X01145Y01489
X01289
X01353Y01493
X01469Y01541
X0150708Y0159963
X0158958Y016013
X0154833Y0164296
X0164166Y0164546
X0168249Y0160005
X0170749Y015438
X0171541Y0132171
X0165333Y0134255
X01594Y01325
X01585Y01775
X01665Y01806
X01712Y01853
X01448Y01782
X0122749Y0173588
X0116458Y0171796
X0111416Y0168088
X0116458Y016288
X0122666Y0160005
X0118541Y0184588
X00993Y01816
X00946Y01748
X0081Y0173
X00739Y01728
X00745Y01569
X00803Y01548
X00839Y015
X00723Y01493
X00657Y01498
X0061Y0154
X00651Y01587
X00446Y01632
X00438Y0149
X00325Y01512
X00461Y0133
X00715Y01293
X00638Y01152
X00322Y01153
Y01033
X00321Y00917
X0032Y00798
X00317Y00625
X00345Y0046
X00476Y00565
X00537Y00681
X00637Y00429
X0148Y00895
X0094Y0155
X0089Y01892
X00757Y01898
X00353Y0189
X0014Y01846
X00079Y01845
Y01748
X00138
X00137Y01651
X00079Y01649
Y01551
X0014
X00139Y01453
X00079Y01452
Y01352
X00139Y01353
X00137Y01256
X00079Y01255
Y01155
X0014Y01156
X00138Y01058
X00079
Y00959
X00137Y00961
X00139Y00864
X00078
Y00765
X00138Y00766
Y00666
X00078Y00665
Y00568
X00136Y00569
X00139Y00469
X00078Y00468
Y00371
X00137
Y01946
X00079Y01945
Y02042
X00139Y02043
Y02143
X00079Y02142
Y02241
X0014
X00139Y0234
X00081Y02338
Y02437
X0014
X00142Y02535
X00081Y02534
Y02634
X00139Y02635
X00141Y02732
X00081Y02731
Y02831
X00141Y02832
X00142Y0293
X00081
X00084Y03024
X00142Y03026
X00143Y03123
X00084
Y0322
X00145Y03221
X00142Y03321
X00084Y0332
Y03417
X00144Y03418
X00467Y03368
X00478Y03295
Y03246
X00477Y03199
X00476Y03151
X00477Y03104
Y0306
X00467Y02999
X00534Y02995
X0062
X00709
X00771Y02993
X00832
X00812Y03062
X00815Y03104
X00812Y0315
X00815Y03199
X00812Y03245
X00814Y03289
X00727Y03292
X0073Y03244
Y03198
X00727Y03151
X00726Y03104
X00727Y03062
X00646Y03061
X00647Y03103
X00644Y03153
X00646Y03198
X00649Y03246
X00646Y03293
X00564Y03291
X00562Y03245
X00564Y03203
Y0315
X00562Y03103
Y03059
X00521Y03176
X00606Y03177
X00689Y0318
X0077Y03177
X00878Y03328
X01014Y03236
X01071Y03441
X01143Y03435
X0121Y03456
X01462Y03333
X0147916Y0320338
X0148041Y0311588
X0147874Y0303005
X0137624Y0302921
X0132291Y0297713
X01245Y02886
X01127
X01104Y02972
X01128Y0277
X01011
X00994Y02688
X01029Y0258
X01094Y02586
X01081Y02475
X00996Y02477
X00998Y0229
X00993Y02139
X0107Y02114
X0116895Y0212796
X0115416Y02189
X01162Y02272
X01139Y02426
X01274Y02566
X01263Y02651
X01438Y02596
X0143624Y0248588
X0144916Y0242713
X0150333Y0238588
Y023288
X0143666Y0233213
X0144999Y022588
X0152791Y022738
Y0221255
X0151583Y0212838
X0145041Y021288
X0144333Y020438
X0150416Y0204213
X01582Y02042
X0164Y02169
X0162166Y0239338
X0161583Y0252588
X0167874Y0252463
X0155124Y0252505
X01632Y02765
X01721Y0279
X0161666Y0294588
X0162166Y0300755
X01492Y02916
X01485Y02827
X01415Y02759
X01587Y03203
X01585Y03388
X0164Y03435
X01728Y03445
X0066874Y0336546
X0060083Y0337088
X0058Y02768
X00519Y02773
X00471Y02738
X0045Y02831
X0045416Y0256838
X00475Y02508
Y02459
X00474Y02412
X00473Y02364
X00474Y02317
Y02273
X0056Y02272
Y02316
X00559Y02363
X0056Y02411
X00561Y02458
Y02507
X00645Y02506
Y02457
X00644Y0241
X00643Y02362
X00644Y02315
Y02271
X00725Y02272
Y02316
X00724Y02363
X00725Y02411
X00726Y02458
Y02507
X0081Y02508
Y02459
X00809Y02412
X00808Y02364
X00809Y02317
Y02273
X00818Y02195
X00716Y02208
X00526Y02206
X00445Y02208
X00452Y01968
X00579Y01961
Y02048
X00667Y02049
X00755Y02048
X00898Y0199
X00962Y02055
X01161Y02022
X0123583Y0204921
X0144166Y0191088
X0150624Y019113
X00765Y0239
X0068Y02391
X00602Y02388
X0052Y02391
X00792Y02827
X0186333Y028238
X0180458Y0274213
X0198124Y0276796
X0204416Y0276005
X0206874Y0287005
X0199541Y0287421
X0193Y02898
X01945Y03076
X01995Y03032
X01993Y0315
X01995Y03238
X0199833Y0332463
X0204083Y0344338
X0195333Y0344546
X0189208Y0343463
X01802Y03349
X01806Y03288
X01805Y03225
X01765Y03149
X01805Y03075
X0227083Y0307588
X0221458Y0315338
X02245Y0324
X0226083Y0339421
X0214166Y0342755
X02414Y03403
X02462Y03367
X0252041Y0333588
X02578Y03393
X0259874Y0344921
X0279666Y034463
X0279583Y0338255
X0272208Y0337046
X0275333Y0332005
X0301541Y0333963
X0310333Y0333296
X0319624
X0319666Y0321296
X0326624Y0321338
X0310541Y0321421
X0315749Y0308171
X0297083Y0308005
X0284666Y0307588
X0267208Y0310963
X0267166Y0302255
X0253124Y0294338
X0256041Y0273255
X0247999Y0273213
X0262208Y0275296
X0268583Y0275213
X0282291Y028113
X02892Y02788
X02953Y02785
X02894Y02874
X03026Y02895
X0320833Y0289796
X03153Y02787
X0313208Y0266671
X0303Y0263
X0301Y02568
X02965Y0261
X0287916Y0253838
X0287979Y0233505
X0289333Y0211505
X0295458Y0210921
X0289124Y0198213
X0269833Y0190755
X0263749Y0190796
X0262666Y0210088
X02628Y02161
X02717Y02196
X0271124Y0210921
X0269374Y0228046
X0263999Y0232213
X0243749Y022988
X0243624Y0238505
X0243958Y0254005
X0235208Y0254046
X0229249
X0223124Y0254088
X0214499Y0253796
X0211708Y024863
X0204624Y0248421
X0206624Y0254088
X0195083Y0254463
X0194249Y0248005
X0187791Y0248046
X0179999Y0248796
X0180916Y0242296
X01738Y02431
X0174791Y0252421
X0182083Y025438
X0199666Y0245005
X0219041Y0247755
X0227Y02462
X02294Y02279
X02293Y0214
X0238249Y0212713
X0238208Y0206671
X0238166Y0200588
X0244208Y0199671
X0244249Y0208713
X0243916Y0217505
X0239749Y022188
X0229833Y0202963
X0233333Y0197213
X0221499Y0200505
X0222083Y0206296
X02042Y02018
X01953Y01993
X01955Y02133
X0185Y02266
X02268Y0279
X0241583Y0308213
X02415Y03168
X0248
X02565Y03201
X02412Y03263
X0297583Y0344421
X0309104Y0344255
X0326041Y0339255
X0325333Y0255046
X0316208Y0255088
X0309666Y0245171
X0270708Y024888
X0270916Y0257546
X0264833Y025788
X0258583Y0259755
X0253958Y0252713
X03254Y02063
X03368
X03456Y02029
X03514Y02041
X03556Y02133
X0365374Y0209505
X0366958Y0203421
X03864Y0203
X03953Y02029
X04038Y02038
X0416Y0208
X04238Y02029
X0433624Y0197171
X0442Y02073
X0441499Y0223963
X0439541Y023563
X0439041Y0241963
X0438124Y0248338
X0437958Y0254088
X0431416Y0254046
X0424624Y0253338
X0423166Y0247005
X0432999Y0244005
X0418208Y0233046
X0418624Y022188
X0398541Y021863
X0391624Y0217838
X03835Y02226
X03832Y02315
X03766Y02288
X03673Y02251
X0366249Y0239005
X0360416Y0240546
X0361583Y0251171
X0360791Y026188
X0366874Y0261838
X0378124Y026188
X03823Y02661
X03832Y0272
X0374416Y028088
X0367249Y0278505
X0361541Y0278671
X0362874Y0270046
X0359791Y029413
X0367083Y0294213
X0385Y02939
X0400333Y028938
X0398708Y0277755
X03989Y02691
X03983Y02628
X03988Y02558
X03989Y0247
X03994Y02339
X0383499Y0246796
X0374874Y0251713
X0346833Y0238005
X03364Y02265
X03382Y02179
X0358958Y0313296
X0358124Y031913
X0365999Y0317088
X03806Y03148
X03928Y03139
X0409291Y0313713
X0418833Y0313546
X0425624Y0313421
X04251Y0301
X04323Y02958
X0437874Y0304005
X04381Y02839
X04245Y02871
X04196Y02828
X04092Y02952
X0407999Y0338296
X0416458Y0336005
X0423916Y0338338
X0441916Y0338755
X0450479Y0333317
X045752Y0334151
X0454624Y032788
X0449708Y0324171
X0458624Y0298338
X0464124Y0303213
X0463Y02827
X04588Y02868
X04593Y02675
X0465Y02646
X04584Y02587
X04626Y02541
X04581Y02501
X04585Y02398
X04628Y02439
X04828Y02448
X04835Y02522
X0484208Y0260796
X0484Y02865
X04816Y02987
X0483Y02345
X0484041Y0214505
X0479791Y0197671
X0458833Y0206213
X0463833Y0221088
X04385Y02667
X04295Y02674
X0416624Y0257088
X03878Y03385
X0362666Y0336171
X0353708Y0337546
X05012Y03323
X0511645Y0334046
X0513249Y0327692
X0517729Y0323192
X05251Y03273
X05246Y02969
X05266Y02865
X05132Y02817
X0513041Y0268755
X0505791Y026613
X04989Y02668
X0489833Y0272921
X04912Y02816
X04997Y0286
X0487874Y0308838
X0491Y02584
X04892Y02493
X0489458Y0243088
X04903Y02368
X0486583Y0225921
X05076Y02254
X05068Y02313
X05074Y024
X0507395Y0248692
X0507333Y025738
X0525208Y0254588
X0525708Y0263213
X05271Y02463
X05243Y02381
X05271Y02301
X05252Y0222
X05253Y02133
X05272Y0203
X05162Y01978
X0509458Y0197921
X0509291Y0207213
X0504Y02046
X0490458Y0199921
X05568Y0205
X05562Y0212
X05582Y02276
X05618Y02377
X05559Y02424
X0561Y02631
X05539Y02708
X05536Y0283
X05646Y02861
X05635Y0277
X05645Y0305
X05643Y03127
X05588Y03307
X05712Y03308
X06276Y03301
X06277Y03243
X06275Y03181
X06278Y03126
X06277Y03067
X06279Y03007
X06278Y02949
X06276Y02887
X06277Y02829
X06275Y02767
X06278Y02712
X06277Y02653
X06275Y02591
X06276Y02533
X06274Y02471
X06277Y02416
X06276Y02357
X06278Y02297
X06277Y02239
X06278Y0218
X06279Y02122
X06277Y0206
X0628Y02005
X06279Y01946
X06388Y01944
X06387Y02004
Y02065
X06389Y02123
X06386Y02181
X06383Y02238
X06387Y02295
X06385Y02355
X06384Y02415
Y02476
X06386Y02534
X06383Y02592
X06386Y02651
X06385Y02711
Y02772
X06387Y0283
X06384Y02888
Y02948
X06388Y03005
X06386Y03065
X06385Y03125
Y03186
X06387Y03244
X06384Y03302
X06387Y03361
X06386Y03421
X06279Y03422
X06278Y03363
X05568Y01907
X06436Y01944
Y02001
X06437Y02062
X06438Y0212
X06437Y02181
X06432Y02238
X06435Y02296
X06433Y02355
Y02412
X06434Y02473
X06435Y02531
X06434Y02592
Y02651
Y02708
X06435Y02769
X06436Y02827
X06435Y02888
X06433Y02948
X06436Y03006
X06434Y03065
Y03122
X06435Y03183
X06436Y03241
X06435Y03302
Y03361
Y03418
X06436Y03479
X06437Y03537
X06436Y03598
X06434Y03656
X06437Y03714
X06435Y03773
Y0383
X06436Y03891
X06437Y03949
X06436Y0401
Y04069
Y04126
X06437Y04187
X06438Y04245
X06437Y04306
X06386
X06389Y04248
X06387Y0419
Y04129
X06388Y04069
X06385Y0401
X06388Y03952
X06386Y03894
Y03833
X06387Y03773
X06389Y03713
X06385Y03656
Y03598
X06388Y0354
X06386Y03482
X06276Y03477
X06278Y03539
X06277Y03597
X06279Y03657
X0628Y03715
X06278Y03775
X06279Y03834
X06276Y03889
X06278Y03951
X06277Y04009
X06279Y04071
X0628Y0413
X06277Y04185
X06279Y04247
X06278Y04305
X05886Y04598
X05652Y04596
X05415Y04594
X05178Y04599
X04941Y04595
X0495208Y0366005
X0512Y03595
X05187Y0359
X05193Y03654
X05126Y03786
X05535Y03489
X0471583Y0347588
X04715Y0358
X04641Y03647
X0455083Y035988
X04555Y03521
X0435916Y0350713
X0419166Y035063
X0410583Y0350755
X0401749Y0350546
X0393249Y0350463
X03845Y03509
X03731Y03609
X0371916Y0369213
X0363291Y0363463
X0362749Y035088
X0353749Y0350755
X0349874Y0365421
X0348999Y037088
X03939Y03635
X04029Y0367
X04145Y03715
X0424624Y0363005
X0435604Y036938
X04761Y03677
X04704Y04597
X04462Y04595
X04226Y04598
X03989Y04596
X03937Y04454
X03753Y04595
X03518Y04597
X03281Y04595
X03046Y04596
X02807
X0257Y04598
X02475Y04465
X02333Y04598
X02097Y04601
X0186Y046
X02205Y04471
X0217Y03736
X0220541Y0367255
X0226916Y0367713
X02363Y03645
X02329Y03532
X0215708Y0363505
X0204124Y0362755
X0197541Y0362713
X0191499Y036288
X0182999Y0361088
X0184124Y0354338
X0191374Y037388
X0196999Y0371213
X01795Y038
X02569Y03729
X0256Y0365
X02585Y0357
X02679Y03628
X0279874Y0365796
X0279499Y0354671
X0297458Y035438
X0308958Y0354421
X0298916Y0365546
X03047Y03886
X02803Y03887
X02606Y0397
X0326249Y0367171
X0326249Y0349796
X0136958Y0365921
X01304Y03658
X0118Y03707
X01005Y03699
X00856Y0374
X00698Y03741
X00513Y0374
X0055916Y0353213
X00695Y03533
X0080791Y0358671
X00394Y03586
X00441Y04601
X00678Y04599
X00917
X01152Y04598
X01391Y04603
X01625Y04601
X00146Y04307
X00085
Y04208
X00145Y04209
Y04109
X00085Y04108
Y04011
X00143Y04012
X00146Y03912
X00085Y03911
Y03814
X00144
X00143Y03717
X00085Y03715
X00084Y03616
X00145
X00144Y03518
X00084Y03517
T02
X04942Y03884
Y03984
Y04222
Y04322
X0484172
Y04222
X0474144
Y04322
X0464117
Y04222
X0454089
Y04322
X0444061
Y04222
X0434033
Y04322
X0424006
Y04222
X0413978
Y04322
X040395
Y04222
X0393922
Y04322
X0383894
Y04222
X0373867
Y04322
X0363839
Y04222
X0353811
Y04322
X0343783
Y04222
X0333755
Y04322
Y03984
Y03884
X0343783
Y03984
X0353811
Y03884
X0363839
Y03984
X0373867
Y03884
X0383894
Y03984
X0393922
Y03884
X040395
Y03984
X0413978
Y03884
X0424006
Y03984
X0434033
Y03884
X0444061
Y03984
X0454089
Y03884
X0464117
Y03984
X0474144
Y03884
X0484172
Y03984
X0323728
Y03884
X03137
Y03984
Y04222
Y04322
X0323728
Y04222
X0251
Y04322
X0240957
Y04222
X0230914
Y04322
X0220871
Y04222
X0210828
Y04322
X0200786
Y04222
X0190743
Y04322
X01807
Y04222
Y03984
Y03884
X0190743
Y03984
X0200786
Y03884
X0210828
Y03984
X0220871
Y03884
X0230914
Y03984
X0240957
Y03884
X0251
Y03984
T03
X05254Y03753
Y03883
X05484
Y04204
X05369Y04112
X05254Y04204
X02674Y03753
X01496
Y03883
X01268
X0104
Y04204
X011545Y04112
X01268Y04204
X01384Y04112
X01496Y04204
M30
